<svg xmlns="http://www.w3.org/2000/svg" xmlns:xlink="http://www.w3.org/1999/xlink" version="1.1" x="0" y="0" height="50" width="800" viewBox="0 0 800 50" preserveAspectRatio="none"  >
<g label="Query sequence" class="clusterblast-cluster"  >
<text x="5" y="20" class="clusterblast-acc"  >
Query sequence</text>
<line x1="10" y1="35" x2="778.0" y2="35" style="stroke-width:1; stroke:grey; "  />
<polygon points="0,40 28,40 33,35 28,30 0,30 0,40 " style="fill:white; stroke-width:1; stroke:black; " description="&lt;b&gt;LOCUS_24260&lt;/b&gt;&lt;br&gt;hypothetical protein&lt;br&gt;Location: 1925351 - 1926032" locus_tag="LOCUS_24260" class="clusterblast-orf" id="knownclusterblast-3_q0_0_all"  />
<polygon points="42,40 71,40 76,35 71,30 42,30 42,40 " style="fill:white; stroke-width:1; stroke:black; " description="&lt;b&gt;LOCUS_24270&lt;/b&gt;&lt;br&gt;copper homeostasis protein CutC&lt;br&gt;Location: 1926231 - 1926933" locus_tag="LOCUS_24270" class="clusterblast-orf" id="knownclusterblast-3_q1_0_all"  />
<polygon points="86,40 146,40 151,35 146,30 86,30 86,40 " style="fill:white; stroke-width:1; stroke:black; " description="&lt;b&gt;LOCUS_24280&lt;/b&gt;&lt;br&gt;diaminobutyrate--2-oxoglutarate aminotransferase&lt;br&gt;Location: 1927131 - 1928496" locus_tag="LOCUS_24280" class="clusterblast-orf" id="knownclusterblast-3_q2_0_all"  />
<polygon points="152,40 183,40 188,35 183,30 152,30 152,40 " style="fill:white; stroke-width:1; stroke:black; " description="&lt;b&gt;LOCUS_24290&lt;/b&gt;&lt;br&gt;hypothetical protein&lt;br&gt;Location: 1928497 - 1929250" locus_tag="LOCUS_24290" class="clusterblast-orf" id="knownclusterblast-3_q3_0_all"  />
<polygon points="193,40 220,40 225,35 220,30 193,30 193,40 " style="fill:white; stroke-width:1; stroke:black; " description="&lt;b&gt;LOCUS_24300&lt;/b&gt;&lt;br&gt;hypothetical protein&lt;br&gt;Location: 1929365 - 1930025" locus_tag="LOCUS_24300" class="clusterblast-orf" id="knownclusterblast-3_q4_0_all"  />
<polygon points="224,40 303,40 308,35 303,30 224,30 224,40 " style="fill:white; stroke-width:1; stroke:black; " description="&lt;b&gt;LOCUS_24310&lt;/b&gt;&lt;br&gt;petrobactin biosynthesis protein AsbA&lt;br&gt;Location: 1930002 - 1931745" locus_tag="LOCUS_24310" class="clusterblast-orf" id="knownclusterblast-3_q5_0_all"  />
<polygon points="308,40 332,40 337,35 332,30 308,30 308,40 " style="fill:white; stroke-width:1; stroke:black; " description="&lt;b&gt;LOCUS_24320&lt;/b&gt;&lt;br&gt;rhizobactin siderophore biosynthesis protein RhbD&lt;br&gt;Location: 1931741 - 1932341" locus_tag="LOCUS_24320" class="clusterblast-orf" id="knownclusterblast-3_q6_0_all"  />
<polygon points="338,40 393,40 398,35 393,30 338,30 338,40 " style="fill:white; stroke-width:1; stroke:black; " description="&lt;b&gt;LOCUS_24330&lt;/b&gt;&lt;br&gt;lysine 6-monooxygenase&lt;br&gt;Location: 1932359 - 1933604" locus_tag="LOCUS_24330" class="clusterblast-orf" id="knownclusterblast-3_q7_0_all"  />
<polygon points="432,40 449,40 454,35 449,30 432,30 432,40 " style="fill:white; stroke-width:1; stroke:black; " description="&lt;b&gt;LOCUS_24340&lt;/b&gt;&lt;br&gt;hypothetical protein&lt;br&gt;Location: 1934324 - 1934768" locus_tag="LOCUS_24340" class="clusterblast-orf" id="knownclusterblast-3_q8_0_all"  />
<polygon points="453,40 535,40 540,35 535,30 453,30 453,40 " style="fill:white; stroke-width:1; stroke:black; " description="&lt;b&gt;LOCUS_24350&lt;/b&gt;&lt;br&gt;iron transporter&lt;br&gt;Location: 1934764 - 1936570" locus_tag="LOCUS_24350" class="clusterblast-orf" id="knownclusterblast-3_q9_0_all"  />
<polygon points="559,40 598,40 603,35 598,30 559,30 559,40 " style="fill:white; stroke-width:1; stroke:black; " description="&lt;b&gt;LOCUS_24360&lt;/b&gt;&lt;br&gt;hypothetical protein&lt;br&gt;Location: 1936959 - 1937877" locus_tag="LOCUS_24360" class="clusterblast-orf" id="knownclusterblast-3_q10_0_all"  />
<polygon points="603,40 613,40 618,35 613,30 603,30 603,40 " style="fill:white; stroke-width:1; stroke:black; " description="&lt;b&gt;LOCUS_24370&lt;/b&gt;&lt;br&gt;hypothetical protein&lt;br&gt;Location: 1937873 - 1938188" locus_tag="LOCUS_24370" class="clusterblast-orf" id="knownclusterblast-3_q11_0_all"  />
<polygon points="618,40 630,40 635,35 630,30 618,30 618,40 " style="fill:white; stroke-width:1; stroke:black; " description="&lt;b&gt;LOCUS_24380&lt;/b&gt;&lt;br&gt;hypothetical protein&lt;br&gt;Location: 1938171 - 1938537" locus_tag="LOCUS_24380" class="clusterblast-orf" id="knownclusterblast-3_q12_0_all"  />
<polygon points="638,40 677,40 682,35 677,30 638,30 638,40 " style="fill:white; stroke-width:1; stroke:black; " description="&lt;b&gt;LOCUS_24390&lt;/b&gt;&lt;br&gt;formyltetrahydrofolate deformylase&lt;br&gt;Location: 1938600 - 1939503" locus_tag="LOCUS_24390" class="clusterblast-orf" id="knownclusterblast-3_q13_0_all"  />
<polygon points="699,40 708,40 713,35 708,30 699,30 699,40 " style="fill:white; stroke-width:1; stroke:black; " description="&lt;b&gt;LOCUS_24400&lt;/b&gt;&lt;br&gt;hypothetical protein&lt;br&gt;Location: 1939855 - 1940158" locus_tag="LOCUS_24400" class="clusterblast-orf" id="knownclusterblast-3_q14_0_all"  />
<polygon points="717,40 732,40 737,35 732,30 717,30 717,40 " style="fill:white; stroke-width:1; stroke:black; " description="&lt;b&gt;LOCUS_24410&lt;/b&gt;&lt;br&gt;hypothetical protein&lt;br&gt;Location: 1940239 - 1940644" locus_tag="LOCUS_24410" class="clusterblast-orf" id="knownclusterblast-3_q15_0_all"  />
<polygon points="737,40 755,40 760,35 755,30 737,30 737,40 " style="fill:white; stroke-width:1; stroke:black; " description="&lt;b&gt;LOCUS_24420&lt;/b&gt;&lt;br&gt;dihydrofolate reductase&lt;br&gt;Location: 1940647 - 1941127" locus_tag="LOCUS_24420" class="clusterblast-orf" id="knownclusterblast-3_q16_0_all"  />
<polygon points="765,40 775,40 780,35 775,30 765,30 765,40 " style="fill:white; stroke-width:1; stroke:black; " description="&lt;b&gt;LOCUS_24430&lt;/b&gt;&lt;br&gt;hypothetical protein&lt;br&gt;Location: 1941235 - 1941544" locus_tag="LOCUS_24430" class="clusterblast-orf" id="knownclusterblast-3_q17_0_all"  />
</g>
</svg>
