<svg xmlns="http://www.w3.org/2000/svg" xmlns:xlink="http://www.w3.org/1999/xlink" version="1.1" x="0" y="0" height="230" width="800" viewBox="0 0 800 230" preserveAspectRatio="none"  >
<g label="Query sequence" class="clusterblast-cluster"  >
<text x="5" y="20" class="clusterblast-acc"  >
Query sequence</text>
<line x1="10" y1="35" x2="778.0" y2="35" style="stroke-width:1; stroke:grey; "  />
<polygon points="47,40 49,40 54,35 49,30 47,30 47,40 " style="fill:white; stroke-width:1; stroke:black; " description="&lt;b&gt;LOCUS_37480&lt;/b&gt;&lt;br&gt;hypothetical protein&lt;br&gt;Location: 2920545 - 2920779" locus_tag="LOCUS_37480" class="clusterblast-orf" id="dummy-4_q0_0_all"  />
<polygon points="54,40 66,40 71,35 66,30 54,30 54,40 " style="fill:white; stroke-width:1; stroke:black; " description="&lt;b&gt;LOCUS_37490&lt;/b&gt;&lt;br&gt;hypothetical protein&lt;br&gt;Location: 2920775 - 2921354" locus_tag="LOCUS_37490" class="clusterblast-orf" id="dummy-4_q1_0_all"  />
<polygon points="72,40 87,40 92,35 87,30 72,30 72,40 " style="fill:white; stroke-width:1; stroke:black; " description="&lt;b&gt;LOCUS_37500&lt;/b&gt;&lt;br&gt;hypothetical protein&lt;br&gt;Location: 2921399 - 2922098" locus_tag="LOCUS_37500" class="clusterblast-orf" id="dummy-4_q2_0_all"  />
<polygon points="98,35 103,30 117,30 117,40 103,40 98,35 " style="fill:white; stroke-width:1; stroke:black; " description="&lt;b&gt;LOCUS_37510&lt;/b&gt;&lt;br&gt;NH(3)-dependent NAD(+) synthetase&lt;br&gt;Location: 2922281 - 2922965" locus_tag="LOCUS_37510" class="clusterblast-orf" id="dummy-4_q3_0_all"  />
<polygon points="118,35 123,30 138,30 138,40 123,40 118,35 " style="fill:white; stroke-width:1; stroke:black; " description="&lt;b&gt;LOCUS_37520&lt;/b&gt;&lt;br&gt;putative nicotinate-nucleotide adenylyltransferase&lt;br&gt;Location: 2922989 - 2923676" locus_tag="LOCUS_37520" class="clusterblast-orf" id="dummy-4_q4_0_all"  />
<polygon points="138,35 143,30 181,30 181,40 143,40 138,35 " style="fill:white; stroke-width:1; stroke:black; " description="&lt;b&gt;LOCUS_37530&lt;/b&gt;&lt;br&gt;nicotinate phosphoribosyltransferase&lt;br&gt;Location: 2923691 - 2925161" locus_tag="LOCUS_37530" class="clusterblast-orf" id="dummy-4_q5_0_all"  />
<polygon points="182,35 187,30 198,30 198,40 187,40 182,35 " style="fill:white; stroke-width:1; stroke:black; " description="&lt;b&gt;LOCUS_37540&lt;/b&gt;&lt;br&gt;isochorismatase&lt;br&gt;Location: 2925192 - 2925741" locus_tag="LOCUS_37540" class="clusterblast-orf" id="dummy-4_q6_0_all"  />
<polygon points="199,35 204,30 221,30 221,40 204,40 199,35 " style="fill:white; stroke-width:1; stroke:black; " description="&lt;b&gt;LOCUS_37550&lt;/b&gt;&lt;br&gt;ADP-ribose pyrophosphatase&lt;br&gt;Location: 2925789 - 2926560" locus_tag="LOCUS_37550" class="clusterblast-orf" id="dummy-4_q7_0_all"  />
<polygon points="226,35 231,30 237,30 237,40 231,40 226,35 " style="fill:white; stroke-width:1; stroke:black; " description="&lt;b&gt;LOCUS_37560&lt;/b&gt;&lt;br&gt;hypothetical protein&lt;br&gt;Location: 2926709 - 2927102" locus_tag="LOCUS_37560" class="clusterblast-orf" id="dummy-4_q8_0_all"  />
<polygon points="243,35 248,30 270,30 270,40 248,40 243,35 " style="fill:#d81515; stroke-width:1; stroke:black; " description="&lt;b&gt;LOCUS_37570&lt;/b&gt;&lt;br&gt;hypothetical protein&lt;br&gt;Location: 2927303 - 2928224" locus_tag="LOCUS_37570" class="clusterblast-orf" id="dummy-4_q9_0_all"  />
<polygon points="270,35 275,30 295,30 295,40 275,40 270,35 " style="fill:#d81515; stroke-width:1; stroke:black; " description="&lt;b&gt;LOCUS_37580&lt;/b&gt;&lt;br&gt;hypothetical protein&lt;br&gt;Location: 2928231 - 2929098" locus_tag="LOCUS_37580" class="clusterblast-orf" id="dummy-4_q10_0_all"  />
<polygon points="295,35 300,30 330,30 330,40 300,40 295,35 " style="fill:white; stroke-width:1; stroke:black; " description="&lt;b&gt;LOCUS_37590&lt;/b&gt;&lt;br&gt;hypothetical protein&lt;br&gt;Location: 2929114 - 2930296" locus_tag="LOCUS_37590" class="clusterblast-orf" id="dummy-4_q11_0_all"  />
<polygon points="329,35 334,30 343,30 343,40 334,40 329,35 " style="fill:#15d815; stroke-width:1; stroke:black; " description="&lt;b&gt;LOCUS_37600&lt;/b&gt;&lt;br&gt;hypothetical protein&lt;br&gt;Location: 2930292 - 2930760" locus_tag="LOCUS_37600" class="clusterblast-orf" id="dummy-4_q12_0_all"  />
<polygon points="344,35 349,30 352,30 352,40 349,40 344,35 " style="fill:#1515d8; stroke-width:1; stroke:black; " description="&lt;b&gt;LOCUS_37610&lt;/b&gt;&lt;br&gt;hypothetical protein&lt;br&gt;Location: 2930777 - 2931083" locus_tag="LOCUS_37610" class="clusterblast-orf" id="dummy-4_q13_0_all"  />
<polygon points="352,35 357,30 379,30 379,40 357,40 352,35 " style="fill:white; stroke-width:1; stroke:black; " description="&lt;b&gt;LOCUS_37620&lt;/b&gt;&lt;br&gt;hypothetical protein&lt;br&gt;Location: 2931072 - 2932011" locus_tag="LOCUS_37620" class="clusterblast-orf" id="dummy-4_q14_0_all"  />
<polygon points="387,35 392,30 393,30 393,40 392,40 387,35 " style="fill:white; stroke-width:1; stroke:black; " description="&lt;b&gt;LOCUS_37630&lt;/b&gt;&lt;br&gt;hypothetical protein&lt;br&gt;Location: 2932291 - 2932489" locus_tag="LOCUS_37630" class="clusterblast-orf" id="dummy-4_q15_0_all"  />
<polygon points="392,35 397,30 443,30 443,40 397,40 392,35 " style="fill:#d815d8; stroke-width:1; stroke:black; " description="&lt;b&gt;LOCUS_37640&lt;/b&gt;&lt;br&gt;asparagine synthetase B&lt;br&gt;Location: 2932452 - 2934228" locus_tag="LOCUS_37640" class="clusterblast-orf" id="dummy-4_q16_0_all"  />
<polygon points="447,35 452,30 462,30 462,40 452,40 447,35 " style="fill:white; stroke-width:1; stroke:black; " description="&lt;b&gt;LOCUS_37650&lt;/b&gt;&lt;br&gt;hypothetical protein&lt;br&gt;Location: 2934363 - 2934858" locus_tag="LOCUS_37650" class="clusterblast-orf" id="dummy-4_q17_0_all"  />
<polygon points="467,35 472,30 492,30 492,40 472,40 467,35 " style="fill:white; stroke-width:1; stroke:black; " description="&lt;b&gt;LOCUS_37660&lt;/b&gt;&lt;br&gt;hypothetical protein&lt;br&gt;Location: 2935040 - 2935922" locus_tag="LOCUS_37660" class="clusterblast-orf" id="dummy-4_q18_0_all"  />
<polygon points="493,35 498,30 527,30 527,40 498,40 493,35 " style="fill:white; stroke-width:1; stroke:black; " description="&lt;b&gt;LOCUS_37670&lt;/b&gt;&lt;br&gt;hypothetical protein&lt;br&gt;Location: 2935936 - 2937127" locus_tag="LOCUS_37670" class="clusterblast-orf" id="dummy-4_q19_0_all"  />
<polygon points="529,35 534,30 548,30 548,40 534,40 529,35 " style="fill:white; stroke-width:1; stroke:black; " description="&lt;b&gt;LOCUS_37680&lt;/b&gt;&lt;br&gt;hypothetical protein&lt;br&gt;Location: 2937175 - 2937835" locus_tag="LOCUS_37680" class="clusterblast-orf" id="dummy-4_q20_0_all"  />
<polygon points="552,35 557,30 563,30 563,40 557,40 552,35 " style="fill:white; stroke-width:1; stroke:black; " description="&lt;b&gt;LOCUS_37690&lt;/b&gt;&lt;br&gt;hypothetical protein&lt;br&gt;Location: 2937966 - 2938356" locus_tag="LOCUS_37690" class="clusterblast-orf" id="dummy-4_q21_0_all"  />
<polygon points="563,35 568,30 585,30 585,40 568,40 563,35 " style="fill:white; stroke-width:1; stroke:black; " description="&lt;b&gt;LOCUS_37700&lt;/b&gt;&lt;br&gt;glycosyl transferase&lt;br&gt;Location: 2938360 - 2939107" locus_tag="LOCUS_37700" class="clusterblast-orf" id="dummy-4_q22_0_all"  />
<polygon points="585,35 590,30 594,30 594,40 590,40 585,35 " style="fill:white; stroke-width:1; stroke:black; " description="&lt;b&gt;LOCUS_37710&lt;/b&gt;&lt;br&gt;transcriptional regulator&lt;br&gt;Location: 2939126 - 2939426" locus_tag="LOCUS_37710" class="clusterblast-orf" id="dummy-4_q23_0_all"  />
<polygon points="596,35 601,30 613,30 613,40 601,40 596,35 " style="fill:white; stroke-width:1; stroke:black; " description="&lt;b&gt;LOCUS_37720&lt;/b&gt;&lt;br&gt;hypothetical protein&lt;br&gt;Location: 2939505 - 2940072" locus_tag="LOCUS_37720" class="clusterblast-orf" id="dummy-4_q24_0_all"  />
<polygon points="614,35 619,30 624,30 624,40 619,40 614,35 " style="fill:white; stroke-width:1; stroke:black; " description="&lt;b&gt;LOCUS_37730&lt;/b&gt;&lt;br&gt;hypothetical protein&lt;br&gt;Location: 2940127 - 2940466" locus_tag="LOCUS_37730" class="clusterblast-orf" id="dummy-4_q25_0_all"  />
<polygon points="630,35 635,30 646,30 646,40 635,40 630,35 " style="fill:white; stroke-width:1; stroke:black; " description="&lt;b&gt;LOCUS_37740&lt;/b&gt;&lt;br&gt;putative acetyltransferase EpsM&lt;br&gt;Location: 2940674 - 2941235" locus_tag="LOCUS_37740" class="clusterblast-orf" id="dummy-4_q26_0_all"  />
<polygon points="649,35 654,30 666,30 666,40 654,40 649,35 " style="fill:#d8d815; stroke-width:1; stroke:black; " description="&lt;b&gt;LOCUS_37750&lt;/b&gt;&lt;br&gt;putative sugar transferase EpsL&lt;br&gt;Location: 2941320 - 2941920" locus_tag="LOCUS_37750" class="clusterblast-orf" id="dummy-4_q27_0_all"  />
<polygon points="666,35 671,30 672,30 672,40 671,40 666,35 " style="fill:white; stroke-width:1; stroke:black; " description="&lt;b&gt;LOCUS_37760&lt;/b&gt;&lt;br&gt;hypothetical protein&lt;br&gt;Location: 2941928 - 2942114" locus_tag="LOCUS_37760" class="clusterblast-orf" id="dummy-4_q28_0_all"  />
<polygon points="676,35 681,30 702,30 702,40 681,40 676,35 " style="fill:#15d8d8; stroke-width:1; stroke:black; " description="&lt;b&gt;LOCUS_37770&lt;/b&gt;&lt;br&gt;UDP-glucose 4-epimerase&lt;br&gt;Location: 2942261 - 2943170" locus_tag="LOCUS_37770" class="clusterblast-orf" id="dummy-4_q29_0_all"  />
<polygon points="703,35 708,30 732,30 732,40 708,40 703,35 " style="fill:white; stroke-width:1; stroke:black; " description="&lt;b&gt;LOCUS_37780&lt;/b&gt;&lt;br&gt;transmembrane protein EpsG&lt;br&gt;Location: 2943205 - 2944207" locus_tag="LOCUS_37780" class="clusterblast-orf" id="dummy-4_q30_0_all"  />
</g>
<g label="BGC0000760" description="BGC0000760_c1: emulsan (9% of genes show similarity), Saccharide" class="clusterblast-cluster"  >
<text x="5" y="70" class="clusterblast-acc"  >
<a xlink:href="https://mibig.secondarymetabolites.org/go/BGC0000760/1" target="_blank">BGC0000760</a>:                                                                          emulsan (9% of genes show similarity), Saccharide</text>
<line x1="10" y1="85" x2="778.0" y2="85" style="stroke-width:1; stroke:grey; "  />
</g>
<g id="a4_000"  >
<polygon points="0,90 21,90 26,85 21,80 0,80 0,90 " style="fill:white; stroke-width:1; stroke:black; " description="&lt;b&gt;CAB57213.1&lt;/b&gt;&lt;br&gt;putative phosphoglucomutase&lt;br&gt;Location: 26953 - 26036" locus_tag="CAB57213.1" class="clusterblast-orf" id="dummy-4_h4_2_0"  />
</g>
<g id="a4_001"  >
<polygon points="27,85 32,80 57,80 57,90 32,90 27,85 " style="fill:#15d8d8; stroke-width:1; stroke:black; " description="&lt;b&gt;CAB57212.1&lt;/b&gt;&lt;br&gt;putative UDP-glucose 4-epimerase&lt;br&gt;Location: 25988 - 24972&lt;br&gt;&lt;br&gt;&lt;b&gt;BlastP hit with LOCUS_37770&lt;/b&gt;&lt;br&gt;Percentage identity: 54&lt;br&gt;Percentage coverage: 97&lt;br&gt;BLAST bit score: 314&lt;br&gt;E-value: 2.5e-85" locus_tag="CAB57212.1" class="clusterblast-orf" id="dummy-4_h4_2_1"  />
</g>
<g id="a4_002"  >
<polygon points="57,85 62,80 105,80 105,90 62,90 57,85 " style="fill:white; stroke-width:1; stroke:black; " description="&lt;b&gt;CAB57211.1&lt;/b&gt;&lt;br&gt;putative phosphoglucose isomerase&lt;br&gt;Location: 24979 - 23306" locus_tag="CAB57211.1" class="clusterblast-orf" id="dummy-4_h4_2_2"  />
</g>
<g id="a4_003"  >
<polygon points="105,85 110,80 141,80 141,90 110,90 105,85 " style="fill:white; stroke-width:1; stroke:black; " description="&lt;b&gt;CAB57210.1&lt;/b&gt;&lt;br&gt;putative UDP-glucose dehydrogenase&lt;br&gt;Location: 23303 - 22053" locus_tag="CAB57210.1" class="clusterblast-orf" id="dummy-4_h4_2_3"  />
</g>
<g id="a4_004"  >
<polygon points="142,85 147,80 167,80 167,90 147,90 142,85 " style="fill:white; stroke-width:1; stroke:black; " description="&lt;b&gt;CAB57209.1&lt;/b&gt;&lt;br&gt;putative UTP-glucose-1-phosphate uridylyltransferase&lt;br&gt;Location: 22036 - 21161" locus_tag="CAB57209.1" class="clusterblast-orf" id="dummy-4_h4_2_4"  />
</g>
<g id="a4_005"  >
<polygon points="168,85 173,80 222,80 222,90 173,90 168,85 " style="fill:white; stroke-width:1; stroke:black; " description="&lt;b&gt;CAB57208.1&lt;/b&gt;&lt;br&gt;putative dTDP-glucose-4,6-dehydratase&lt;br&gt;Location: 21147 - 19273" locus_tag="CAB57208.1" class="clusterblast-orf" id="dummy-4_h4_2_5"  />
</g>
<g id="a4_006"  >
<polygon points="226,85 231,80 260,80 260,90 231,90 226,85 " style="fill:white; stroke-width:1; stroke:black; " description="&lt;b&gt;CAB57207.1&lt;/b&gt;&lt;br&gt;putative amino-transferase&lt;br&gt;Location: 19135 - 17960" locus_tag="CAB57207.1" class="clusterblast-orf" id="dummy-4_h4_2_6"  />
</g>
<g id="a4_007"  >
<polygon points="261,85 266,80 279,80 279,90 266,90 261,85 " style="fill:white; stroke-width:1; stroke:black; " description="&lt;b&gt;CAB57206.1&lt;/b&gt;&lt;br&gt;putative acetyltransferase&lt;br&gt;Location: 17928 - 17278" locus_tag="CAB57206.1" class="clusterblast-orf" id="dummy-4_h4_2_7"  />
</g>
<g id="a4_008"  >
<polygon points="279,85 284,80 297,80 297,90 284,90 279,85 " style="fill:#d8d815; stroke-width:1; stroke:black; " description="&lt;b&gt;CAB57205.1&lt;/b&gt;&lt;br&gt;putative UDP-galactose phosphate transferase&lt;br&gt;Location: 17281 - 16670&lt;br&gt;&lt;br&gt;&lt;b&gt;BlastP hit with LOCUS_37750&lt;/b&gt;&lt;br&gt;Percentage identity: 57&lt;br&gt;Percentage coverage: 99&lt;br&gt;BLAST bit score: 218&lt;br&gt;E-value: 7.2e-57" locus_tag="CAB57205.1" class="clusterblast-orf" id="dummy-4_h4_2_8"  />
</g>
<g id="a4_009"  >
<polygon points="297,85 302,80 332,80 332,90 302,90 297,85 " style="fill:white; stroke-width:1; stroke:black; " description="&lt;b&gt;CAB57204.1&lt;/b&gt;&lt;br&gt;putative glycosyltransferase&lt;br&gt;Location: 16668 - 15457" locus_tag="CAB57204.1" class="clusterblast-orf" id="dummy-4_h4_2_9"  />
</g>
<g id="a4_0010"  >
<polygon points="332,85 337,80 385,80 385,90 337,90 332,85 " style="fill:white; stroke-width:1; stroke:black; " description="&lt;b&gt;CAB57203.1&lt;/b&gt;&lt;br&gt;&lt;br&gt;Location: 15460 - 13646" locus_tag="CAB57203.1" class="clusterblast-orf" id="dummy-4_h4_2_10"  />
</g>
<g id="a4_0011"  >
<polygon points="385,85 390,80 446,80 446,90 390,90 385,85 " style="fill:white; stroke-width:1; stroke:black; " description="&lt;b&gt;CAB57202.1&lt;/b&gt;&lt;br&gt;unknown&lt;br&gt;Location: 13649 - 11511" locus_tag="CAB57202.1" class="clusterblast-orf" id="dummy-4_h4_2_11"  />
</g>
<g id="a4_0012"  >
<polygon points="446,85 451,80 474,80 474,90 451,90 446,85 " style="fill:white; stroke-width:1; stroke:black; " description="&lt;b&gt;CAB57201.1&lt;/b&gt;&lt;br&gt;putative glycosyl transferase&lt;br&gt;Location: 11511 - 10552" locus_tag="CAB57201.1" class="clusterblast-orf" id="dummy-4_h4_2_12"  />
</g>
<g id="a4_0013"  >
<polygon points="474,85 479,80 512,80 512,90 479,90 474,85 " style="fill:white; stroke-width:1; stroke:black; " description="&lt;b&gt;CAB57200.1&lt;/b&gt;&lt;br&gt;putative emulsan repeating unit polymerase&lt;br&gt;Location: 10551 - 9241" locus_tag="CAB57200.1" class="clusterblast-orf" id="dummy-4_h4_2_13"  />
</g>
<g id="a4_0014"  >
<polygon points="512,85 517,80 547,80 547,90 517,90 512,85 " style="fill:white; stroke-width:1; stroke:black; " description="&lt;b&gt;CAB57199.1&lt;/b&gt;&lt;br&gt;putative emulsan repeating unit flippase&lt;br&gt;Location: 9244 - 8039" locus_tag="CAB57199.1" class="clusterblast-orf" id="dummy-4_h4_2_14"  />
</g>
<g id="a4_0015"  >
<polygon points="547,85 552,80 563,80 563,90 552,90 547,85 " style="fill:white; stroke-width:1; stroke:black; " description="&lt;b&gt;CAB57198.1&lt;/b&gt;&lt;br&gt;putative galactoside acetyltransferase&lt;br&gt;Location: 8033 - 7479" locus_tag="CAB57198.1" class="clusterblast-orf" id="dummy-4_h4_2_15"  />
</g>
<g id="a4_0016"  >
<polygon points="563,85 568,80 599,80 599,90 568,90 563,85 " style="fill:white; stroke-width:1; stroke:black; " description="&lt;b&gt;CAB57197.1&lt;/b&gt;&lt;br&gt;putative NDP-N-acetyl-D-galactosaminuronic acid dehydrogenase&lt;br&gt;Location: 7478 - 6225" locus_tag="CAB57197.1" class="clusterblast-orf" id="dummy-4_h4_2_16"  />
</g>
<g id="a4_0017"  >
<polygon points="600,85 605,80 633,80 633,90 605,90 600,85 " style="fill:white; stroke-width:1; stroke:black; " description="&lt;b&gt;CAB57196.1&lt;/b&gt;&lt;br&gt;putative UDP-N-acetylglucosamine 2-epimerase&lt;br&gt;Location: 6192 - 5062" locus_tag="CAB57196.1" class="clusterblast-orf" id="dummy-4_h4_2_17"  />
</g>
<g id="a4_0018"  >
<polygon points="651,90 678,90 683,85 678,80 651,80 651,90 " style="fill:white; stroke-width:1; stroke:black; " description="&lt;b&gt;CAB57195.1&lt;/b&gt;&lt;br&gt;putative outer membrane protein&lt;br&gt;Location: 4445 - 3345" locus_tag="CAB57195.1" class="clusterblast-orf" id="dummy-4_h4_2_18"  />
</g>
<g id="a4_0019"  >
<polygon points="683,90 690,90 695,85 690,80 683,80 683,90 " style="fill:white; stroke-width:1; stroke:black; " description="&lt;b&gt;CAB57194.1&lt;/b&gt;&lt;br&gt;putative protein tyrosine phosphatase&lt;br&gt;Location: 3339 - 2911" locus_tag="CAB57194.1" class="clusterblast-orf" id="dummy-4_h4_2_19"  />
</g>
<g id="a4_0020"  >
<polygon points="696,90 754,90 759,85 754,80 696,80 696,90 " style="fill:white; stroke-width:1; stroke:black; " description="&lt;b&gt;CAB57193.1&lt;/b&gt;&lt;br&gt;protein tyrosine kinase&lt;br&gt;Location: 2891 - 711" locus_tag="CAB57193.1" class="clusterblast-orf" id="dummy-4_h4_2_20"  />
</g>
<g id="a4_0021"  >
<polygon points="764,90 775,90 780,85 775,80 764,80 764,90 " style="fill:white; stroke-width:1; stroke:black; " description="&lt;b&gt;CAB57192.1&lt;/b&gt;&lt;br&gt;putative macrophage infectivity potentiator&lt;br&gt;Location: 534 - 1" locus_tag="CAB57192.1" class="clusterblast-orf" id="dummy-4_h4_2_21"  />
</g>
</svg>
