<svg xmlns="http://www.w3.org/2000/svg" xmlns:xlink="http://www.w3.org/1999/xlink" version="1.1" x="0" y="0" height="230" width="800" viewBox="0 0 800 230" preserveAspectRatio="none"  >
<g label="Query sequence" class="clusterblast-cluster"  >
<text x="5" y="20" class="clusterblast-acc"  >
Query sequence</text>
<line x1="10" y1="35" x2="778.0" y2="35" style="stroke-width:1; stroke:grey; "  />
<polygon points="199,35 202,30 202,40 199,35 " style="fill:white; stroke-width:1; stroke:black; " description="&lt;b&gt;LOCUS_49490&lt;/b&gt;&lt;br&gt;hypothetical protein&lt;br&gt;Location: 3838682 - 3838976" locus_tag="LOCUS_49490" class="clusterblast-orf" id="dummy-7_q0_0_all"  />
<polygon points="206,40 210,35 206,30 206,40 " style="fill:white; stroke-width:1; stroke:black; " description="&lt;b&gt;LOCUS_49500&lt;/b&gt;&lt;br&gt;hypothetical protein&lt;br&gt;Location: 3839403 - 3839901" locus_tag="LOCUS_49500" class="clusterblast-orf" id="dummy-7_q1_0_all"  />
<polygon points="211,35 216,30 221,30 221,40 216,40 211,35 " style="fill:white; stroke-width:1; stroke:black; " description="&lt;b&gt;LOCUS_49510&lt;/b&gt;&lt;br&gt;chloramphenicol resistance protein&lt;br&gt;Location: 3839946 - 3841146" locus_tag="LOCUS_49510" class="clusterblast-orf" id="dummy-7_q2_0_all"  />
<polygon points="224,40 227,35 224,30 224,40 " style="fill:white; stroke-width:1; stroke:black; " description="&lt;b&gt;LOCUS_49520&lt;/b&gt;&lt;br&gt;transcriptional regulator&lt;br&gt;Location: 3841459 - 3841807" locus_tag="LOCUS_49520" class="clusterblast-orf" id="dummy-7_q3_0_all"  />
<polygon points="227,40 229,35 227,30 227,40 " style="fill:white; stroke-width:1; stroke:black; " description="&lt;b&gt;LOCUS_49530&lt;/b&gt;&lt;br&gt;hypothetical protein&lt;br&gt;Location: 3841842 - 3842040" locus_tag="LOCUS_49530" class="clusterblast-orf" id="dummy-7_q4_0_all"  />
<polygon points="230,35 234,30 234,40 230,35 " style="fill:white; stroke-width:1; stroke:black; " description="&lt;b&gt;LOCUS_49540&lt;/b&gt;&lt;br&gt;hypothetical protein&lt;br&gt;Location: 3842199 - 3842640" locus_tag="LOCUS_49540" class="clusterblast-orf" id="dummy-7_q5_0_all"  />
<polygon points="234,35 239,30 242,30 242,40 239,40 234,35 " style="fill:white; stroke-width:1; stroke:black; " description="&lt;b&gt;LOCUS_49550&lt;/b&gt;&lt;br&gt;hypothetical protein&lt;br&gt;Location: 3842644 - 3843562" locus_tag="LOCUS_49550" class="clusterblast-orf" id="dummy-7_q6_0_all"  />
<polygon points="248,35 253,30 253,30 253,40 253,40 248,35 " style="fill:white; stroke-width:1; stroke:black; " description="&lt;b&gt;LOCUS_49560&lt;/b&gt;&lt;br&gt;hypothetical protein&lt;br&gt;Location: 3844231 - 3844741" locus_tag="LOCUS_49560" class="clusterblast-orf" id="dummy-7_q7_0_all"  />
<polygon points="253,35 255,30 255,40 253,35 " style="fill:white; stroke-width:1; stroke:black; " description="&lt;b&gt;LOCUS_49570&lt;/b&gt;&lt;br&gt;hypothetical protein&lt;br&gt;Location: 3844727 - 3845006" locus_tag="LOCUS_49570" class="clusterblast-orf" id="dummy-7_q8_0_all"  />
<polygon points="255,35 260,30 274,30 274,40 260,40 255,35 " style="fill:white; stroke-width:1; stroke:black; " description="&lt;b&gt;LOCUS_49580&lt;/b&gt;&lt;br&gt;malate synthase G&lt;br&gt;Location: 3845030 - 3847211" locus_tag="LOCUS_49580" class="clusterblast-orf" id="dummy-7_q9_0_all"  />
<polygon points="275,35 280,30 287,30 287,40 280,40 275,35 " style="fill:white; stroke-width:1; stroke:black; " description="&lt;b&gt;LOCUS_49590&lt;/b&gt;&lt;br&gt;FAD-binding protein&lt;br&gt;Location: 3847232 - 3848699" locus_tag="LOCUS_49590" class="clusterblast-orf" id="dummy-7_q10_0_all"  />
<polygon points="288,35 293,30 299,30 299,40 293,40 288,35 " style="fill:white; stroke-width:1; stroke:black; " description="&lt;b&gt;LOCUS_49600&lt;/b&gt;&lt;br&gt;putative glycolate oxidase iron-sulfur subunit&lt;br&gt;Location: 3848790 - 3849972" locus_tag="LOCUS_49600" class="clusterblast-orf" id="dummy-7_q11_0_all"  />
<polygon points="299,35 304,30 311,30 311,40 304,40 299,35 " style="fill:white; stroke-width:1; stroke:black; " description="&lt;b&gt;LOCUS_49610&lt;/b&gt;&lt;br&gt;glycolate oxidase&lt;br&gt;Location: 3850057 - 3851380" locus_tag="LOCUS_49610" class="clusterblast-orf" id="dummy-7_q12_0_all"  />
<polygon points="311,35 316,30 317,30 317,40 316,40 311,35 " style="fill:white; stroke-width:1; stroke:black; " description="&lt;b&gt;LOCUS_49620&lt;/b&gt;&lt;br&gt;HTH-type transcriptional regulator LutR&lt;br&gt;Location: 3851416 - 3852112" locus_tag="LOCUS_49620" class="clusterblast-orf" id="dummy-7_q13_0_all"  />
<polygon points="319,35 324,30 328,30 328,40 324,40 319,35 " style="fill:white; stroke-width:1; stroke:black; " description="&lt;b&gt;LOCUS_49630&lt;/b&gt;&lt;br&gt;hypothetical protein&lt;br&gt;Location: 3852292 - 3853348" locus_tag="LOCUS_49630" class="clusterblast-orf" id="dummy-7_q14_0_all"  />
<polygon points="329,35 334,30 334,30 334,40 334,40 329,35 " style="fill:white; stroke-width:1; stroke:black; " description="&lt;b&gt;LOCUS_49640&lt;/b&gt;&lt;br&gt;hypothetical protein&lt;br&gt;Location: 3853485 - 3854007" locus_tag="LOCUS_49640" class="clusterblast-orf" id="dummy-7_q15_0_all"  />
<polygon points="336,35 341,30 342,30 342,40 341,40 336,35 " style="fill:white; stroke-width:1; stroke:black; " description="&lt;b&gt;LOCUS_49650&lt;/b&gt;&lt;br&gt;hypothetical protein&lt;br&gt;Location: 3854261 - 3854933" locus_tag="LOCUS_49650" class="clusterblast-orf" id="dummy-7_q16_0_all"  />
<polygon points="345,35 349,30 349,40 345,35 " style="fill:#d81515; stroke-width:1; stroke:black; " description="&lt;b&gt;LOCUS_49660&lt;/b&gt;&lt;br&gt;hypothetical protein&lt;br&gt;Location: 3855217 - 3855706" locus_tag="LOCUS_49660" class="clusterblast-orf" id="dummy-7_q17_0_all"  />
<polygon points="351,35 356,30 356,30 356,40 356,40 351,35 " style="fill:#4dd815; stroke-width:1; stroke:black; " description="&lt;b&gt;LOCUS_49670&lt;/b&gt;&lt;br&gt;hypothetical protein&lt;br&gt;Location: 3855962 - 3856574" locus_tag="LOCUS_49670" class="clusterblast-orf" id="dummy-7_q18_0_all"  />
<polygon points="356,35 361,30 370,30 370,40 361,40 356,35 " style="fill:#4dd815; stroke-width:1; stroke:black; " description="&lt;b&gt;LOCUS_49680&lt;/b&gt;&lt;br&gt;hypothetical protein&lt;br&gt;Location: 3856548 - 3858060" locus_tag="LOCUS_49680" class="clusterblast-orf" id="dummy-7_q19_0_all"  />
<polygon points="369,35 374,30 405,30 405,40 374,40 369,35 " style="fill:#4dd815; stroke-width:1; stroke:black; " description="&lt;b&gt;LOCUS_49690&lt;/b&gt;&lt;br&gt;hypothetical protein&lt;br&gt;Location: 3858022 - 3862063" locus_tag="LOCUS_49690" class="clusterblast-orf" id="dummy-7_q20_0_all"  />
<polygon points="405,35 410,30 414,30 414,40 410,40 405,35 " style="fill:#4dd815; stroke-width:1; stroke:black; " description="&lt;b&gt;LOCUS_49700&lt;/b&gt;&lt;br&gt;hypothetical protein&lt;br&gt;Location: 3862052 - 3863120" locus_tag="LOCUS_49700" class="clusterblast-orf" id="dummy-7_q21_0_all"  />
<polygon points="414,35 415,30 415,40 414,35 " style="fill:white; stroke-width:1; stroke:black; " description="&lt;b&gt;LOCUS_49710&lt;/b&gt;&lt;br&gt;hypothetical protein&lt;br&gt;Location: 3863139 - 3863277" locus_tag="LOCUS_49710" class="clusterblast-orf" id="dummy-7_q22_0_all"  />
<polygon points="417,35 418,30 418,40 417,35 " style="fill:#1585d8; stroke-width:1; stroke:black; " description="&lt;b&gt;LOCUS_49720&lt;/b&gt;&lt;br&gt;hypothetical protein&lt;br&gt;Location: 3863423 - 3863636" locus_tag="LOCUS_49720" class="clusterblast-orf" id="dummy-7_q23_0_all"  />
<polygon points="420,35 422,30 422,40 420,35 " style="fill:#1585d8; stroke-width:1; stroke:black; " description="&lt;b&gt;LOCUS_49730&lt;/b&gt;&lt;br&gt;hypothetical protein&lt;br&gt;Location: 3863762 - 3864047" locus_tag="LOCUS_49730" class="clusterblast-orf" id="dummy-7_q24_0_all"  />
<polygon points="422,35 427,30 435,30 435,40 427,40 422,35 " style="fill:#d815bc; stroke-width:1; stroke:black; " description="&lt;b&gt;LOCUS_49740&lt;/b&gt;&lt;br&gt;2,3-dihydroxybenzoate-AMP ligase&lt;br&gt;Location: 3864081 - 3865470" locus_tag="LOCUS_49740" class="clusterblast-orf" id="dummy-7_q25_0_all"  />
<polygon points="435,35 436,30 436,40 435,35 " style="fill:white; stroke-width:1; stroke:black; " description="&lt;b&gt;LOCUS_49750&lt;/b&gt;&lt;br&gt;hypothetical protein&lt;br&gt;Location: 3865477 - 3865618" locus_tag="LOCUS_49750" class="clusterblast-orf" id="dummy-7_q26_0_all"  />
<polygon points="437,35 442,30 442,30 442,40 442,40 437,35 " style="fill:#d8bc15; stroke-width:1; stroke:black; " description="&lt;b&gt;LOCUS_49760&lt;/b&gt;&lt;br&gt;hypothetical protein&lt;br&gt;Location: 3865708 - 3866296" locus_tag="LOCUS_49760" class="clusterblast-orf" id="dummy-7_q27_0_all"  />
<polygon points="442,35 447,30 448,30 448,40 447,40 442,35 " style="fill:#d8bc15; stroke-width:1; stroke:black; " description="&lt;b&gt;LOCUS_49770&lt;/b&gt;&lt;br&gt;hypothetical protein&lt;br&gt;Location: 3866288 - 3866945" locus_tag="LOCUS_49770" class="clusterblast-orf" id="dummy-7_q28_0_all"  />
<polygon points="448,35 452,30 452,40 448,35 " style="fill:#15d885; stroke-width:1; stroke:black; " description="&lt;b&gt;LOCUS_49780&lt;/b&gt;&lt;br&gt;hypothetical protein&lt;br&gt;Location: 3866982 - 3867477" locus_tag="LOCUS_49780" class="clusterblast-orf" id="dummy-7_q29_0_all"  />
<polygon points="452,35 455,30 455,40 452,35 " style="fill:#15d885; stroke-width:1; stroke:black; " description="&lt;b&gt;LOCUS_49790&lt;/b&gt;&lt;br&gt;hypothetical protein&lt;br&gt;Location: 3867508 - 3867769" locus_tag="LOCUS_49790" class="clusterblast-orf" id="dummy-7_q30_0_all"  />
<polygon points="456,35 460,30 460,40 456,35 " style="fill:#4d15d8; stroke-width:1; stroke:black; " description="&lt;b&gt;LOCUS_49800&lt;/b&gt;&lt;br&gt;hypothetical protein&lt;br&gt;Location: 3867901 - 3868336" locus_tag="LOCUS_49800" class="clusterblast-orf" id="dummy-7_q31_0_all"  />
<polygon points="460,35 463,30 463,40 460,35 " style="fill:#4d15d8; stroke-width:1; stroke:black; " description="&lt;b&gt;LOCUS_49810&lt;/b&gt;&lt;br&gt;hypothetical protein&lt;br&gt;Location: 3868363 - 3868714" locus_tag="LOCUS_49810" class="clusterblast-orf" id="dummy-7_q32_0_all"  />
<polygon points="466,40 468,35 466,30 466,40 " style="fill:white; stroke-width:1; stroke:black; " description="&lt;b&gt;LOCUS_49820&lt;/b&gt;&lt;br&gt;hypothetical protein&lt;br&gt;Location: 3869070 - 3869301" locus_tag="LOCUS_49820" class="clusterblast-orf" id="dummy-7_q33_0_all"  />
<polygon points="468,40 472,35 468,30 468,40 " style="fill:white; stroke-width:1; stroke:black; " description="&lt;b&gt;LOCUS_49830&lt;/b&gt;&lt;br&gt;hypothetical protein&lt;br&gt;Location: 3869313 - 3869679" locus_tag="LOCUS_49830" class="clusterblast-orf" id="dummy-7_q34_0_all"  />
<polygon points="473,40 475,35 473,30 473,40 " style="fill:white; stroke-width:1; stroke:black; " description="&lt;b&gt;LOCUS_49840&lt;/b&gt;&lt;br&gt;hypothetical protein&lt;br&gt;Location: 3869819 - 3870065" locus_tag="LOCUS_49840" class="clusterblast-orf" id="dummy-7_q35_0_all"  />
<polygon points="475,40 479,40 484,35 479,30 475,30 475,40 " style="fill:white; stroke-width:1; stroke:black; " description="&lt;b&gt;LOCUS_49850&lt;/b&gt;&lt;br&gt;ferrichrome ABC transporter permease&lt;br&gt;Location: 3870080 - 3871088" locus_tag="LOCUS_49850" class="clusterblast-orf" id="dummy-7_q36_0_all"  />
<polygon points="484,40 488,40 493,35 488,30 484,30 484,40 " style="fill:white; stroke-width:1; stroke:black; " description="&lt;b&gt;LOCUS_49860&lt;/b&gt;&lt;br&gt;iron ABC transporter permease&lt;br&gt;Location: 3871080 - 3872103" locus_tag="LOCUS_49860" class="clusterblast-orf" id="dummy-7_q37_0_all"  />
<polygon points="493,40 495,40 500,35 495,30 493,30 493,40 " style="fill:white; stroke-width:1; stroke:black; " description="&lt;b&gt;LOCUS_49870&lt;/b&gt;&lt;br&gt;ABC transporter ATP-binding protein&lt;br&gt;Location: 3872118 - 3872940" locus_tag="LOCUS_49870" class="clusterblast-orf" id="dummy-7_q38_0_all"  />
<polygon points="500,40 502,40 507,35 502,30 500,30 500,40 " style="fill:white; stroke-width:1; stroke:black; " description="&lt;b&gt;LOCUS_49880&lt;/b&gt;&lt;br&gt;IroE protein&lt;br&gt;Location: 3872954 - 3873740" locus_tag="LOCUS_49880" class="clusterblast-orf" id="dummy-7_q39_0_all"  />
<polygon points="512,35 515,30 515,40 512,35 " style="fill:white; stroke-width:1; stroke:black; " description="&lt;b&gt;LOCUS_49890&lt;/b&gt;&lt;br&gt;hypothetical protein&lt;br&gt;Location: 3874297 - 3874636" locus_tag="LOCUS_49890" class="clusterblast-orf" id="dummy-7_q40_0_all"  />
<polygon points="515,35 520,30 523,30 523,40 520,40 515,35 " style="fill:white; stroke-width:1; stroke:black; " description="&lt;b&gt;LOCUS_49900&lt;/b&gt;&lt;br&gt;hypothetical protein&lt;br&gt;Location: 3874671 - 3875592" locus_tag="LOCUS_49900" class="clusterblast-orf" id="dummy-7_q41_0_all"  />
<polygon points="527,40 528,35 527,30 527,40 " style="fill:white; stroke-width:1; stroke:black; " description="&lt;b&gt;LOCUS_49910&lt;/b&gt;&lt;br&gt;hypothetical protein&lt;br&gt;Location: 3875957 - 3876173" locus_tag="LOCUS_49910" class="clusterblast-orf" id="dummy-7_q42_0_all"  />
<polygon points="528,40 531,40 536,35 531,30 528,30 528,40 " style="fill:white; stroke-width:1; stroke:black; " description="&lt;b&gt;LOCUS_49920&lt;/b&gt;&lt;br&gt;hypothetical protein&lt;br&gt;Location: 3876144 - 3877029" locus_tag="LOCUS_49920" class="clusterblast-orf" id="dummy-7_q43_0_all"  />
<polygon points="538,35 540,30 540,40 538,35 " style="fill:white; stroke-width:1; stroke:black; " description="&lt;b&gt;LOCUS_49930&lt;/b&gt;&lt;br&gt;hypothetical protein&lt;br&gt;Location: 3877289 - 3877520" locus_tag="LOCUS_49930" class="clusterblast-orf" id="dummy-7_q44_0_all"  />
<polygon points="541,35 544,30 544,40 541,35 " style="fill:white; stroke-width:1; stroke:black; " description="&lt;b&gt;LOCUS_49940&lt;/b&gt;&lt;br&gt;hypothetical protein&lt;br&gt;Location: 3877558 - 3877981" locus_tag="LOCUS_49940" class="clusterblast-orf" id="dummy-7_q45_0_all"  />
<polygon points="548,35 550,30 550,40 548,35 " style="fill:white; stroke-width:1; stroke:black; " description="&lt;b&gt;LOCUS_49950&lt;/b&gt;&lt;br&gt;hypothetical protein&lt;br&gt;Location: 3878424 - 3878589" locus_tag="LOCUS_49950" class="clusterblast-orf" id="dummy-7_q46_0_all"  />
<polygon points="550,35 555,30 559,30 559,40 555,40 550,35 " style="fill:white; stroke-width:1; stroke:black; " description="&lt;b&gt;LOCUS_49960&lt;/b&gt;&lt;br&gt;membrane protein&lt;br&gt;Location: 3878679 - 3879663" locus_tag="LOCUS_49960" class="clusterblast-orf" id="dummy-7_q47_0_all"  />
<polygon points="560,35 565,30 566,30 566,40 565,40 560,35 " style="fill:white; stroke-width:1; stroke:black; " description="&lt;b&gt;LOCUS_49970&lt;/b&gt;&lt;br&gt;GntR family transcriptional regulator&lt;br&gt;Location: 3879791 - 3880427" locus_tag="LOCUS_49970" class="clusterblast-orf" id="dummy-7_q48_0_all"  />
<polygon points="567,35 572,30 574,30 574,40 572,40 567,35 " style="fill:white; stroke-width:1; stroke:black; " description="&lt;b&gt;LOCUS_49980&lt;/b&gt;&lt;br&gt;blue-light photoreceptor&lt;br&gt;Location: 3880574 - 3881357" locus_tag="LOCUS_49980" class="clusterblast-orf" id="dummy-7_q49_0_all"  />
<polygon points="575,35 580,30 580,30 580,40 580,40 575,35 " style="fill:white; stroke-width:1; stroke:black; " description="&lt;b&gt;LOCUS_49990&lt;/b&gt;&lt;br&gt;membrane protein&lt;br&gt;Location: 3881519 - 3882008" locus_tag="LOCUS_49990" class="clusterblast-orf" id="dummy-7_q50_0_all"  />
</g>
<g label="BGC0000379" description="BGC0000379_c1: glycinocin A (4% of genes show similarity), NRP" class="clusterblast-cluster"  >
<text x="5" y="70" class="clusterblast-acc"  >
<a xlink:href="https://mibig.secondarymetabolites.org/go/BGC0000379/1" target="_blank">BGC0000379</a>:                                                                     glycinocin A (4% of genes show similarity), NRP</text>
<line x1="10" y1="85" x2="778.0" y2="85" style="stroke-width:1; stroke:grey; "  />
</g>
<g id="a7_000"  >
<polygon points="0,85 5,80 5,80 5,90 5,90 0,85 " style="fill:white; stroke-width:1; stroke:black; " description="&lt;b&gt;AEG64695.1&lt;/b&gt;&lt;br&gt;response regulator&lt;br&gt;Location: 88912 - 88235" locus_tag="AEG64695.1" class="clusterblast-orf" id="dummy-7_h7_6_0"  />
</g>
<g id="a7_001"  >
<polygon points="8,85 13,80 17,80 17,90 13,90 8,85 " style="fill:white; stroke-width:1; stroke:black; " description="&lt;b&gt;AEG64694.1&lt;/b&gt;&lt;br&gt;hypothetical protein&lt;br&gt;Location: 87937 - 86903" locus_tag="AEG64694.1" class="clusterblast-orf" id="dummy-7_h7_6_1"  />
</g>
<g id="a7_002"  >
<polygon points="19,85 24,80 25,80 25,90 24,90 19,85 " style="fill:white; stroke-width:1; stroke:black; " description="&lt;b&gt;AEG64693.1&lt;/b&gt;&lt;br&gt;two component system response regulator&lt;br&gt;Location: 86636 - 85953" locus_tag="AEG64693.1" class="clusterblast-orf" id="dummy-7_h7_6_2"  />
</g>
<g id="a7_003"  >
<polygon points="25,85 30,80 40,80 40,90 30,90 25,85 " style="fill:white; stroke-width:1; stroke:black; " description="&lt;b&gt;AEG64692.1&lt;/b&gt;&lt;br&gt;two component system histidine kinase&lt;br&gt;Location: 85956 - 84295" locus_tag="AEG64692.1" class="clusterblast-orf" id="dummy-7_h7_6_3"  />
</g>
<g id="a7_004"  >
<polygon points="41,90 45,90 50,85 45,80 41,80 41,90 " style="fill:white; stroke-width:1; stroke:black; " description="&lt;b&gt;AEF16038.1&lt;/b&gt;&lt;br&gt;hypothetical protein&lt;br&gt;Location: 84137 - 83181" locus_tag="AEF16038.1" class="clusterblast-orf" id="dummy-7_h7_6_4"  />
</g>
<g id="a7_005"  >
<polygon points="50,90 50,90 55,85 50,80 50,80 50,90 " style="fill:white; stroke-width:1; stroke:black; " description="&lt;b&gt;AEF16037.1&lt;/b&gt;&lt;br&gt;integral membrane protein&lt;br&gt;Location: 83184 - 82645" locus_tag="AEF16037.1" class="clusterblast-orf" id="dummy-7_h7_6_5"  />
</g>
<g id="a7_006"  >
<polygon points="55,90 63,90 68,85 63,80 55,80 55,90 " style="fill:white; stroke-width:1; stroke:black; " description="&lt;b&gt;AEF16036.1&lt;/b&gt;&lt;br&gt;integral membrane protein&lt;br&gt;Location: 82637 - 81132" locus_tag="AEF16036.1" class="clusterblast-orf" id="dummy-7_h7_6_6"  />
</g>
<g id="a7_007"  >
<polygon points="71,90 76,90 81,85 76,80 71,80 71,90 " style="fill:white; stroke-width:1; stroke:black; " description="&lt;b&gt;AEF16035.1&lt;/b&gt;&lt;br&gt;integral membrane protein&lt;br&gt;Location: 80737 - 79616" locus_tag="AEF16035.1" class="clusterblast-orf" id="dummy-7_h7_6_7"  />
</g>
<g id="a7_008"  >
<polygon points="82,90 93,90 98,85 93,80 82,80 82,90 " style="fill:white; stroke-width:1; stroke:black; " description="&lt;b&gt;AEF16034.1&lt;/b&gt;&lt;br&gt;VanW family protein&lt;br&gt;Location: 79493 - 77739" locus_tag="AEF16034.1" class="clusterblast-orf" id="dummy-7_h7_6_8"  />
</g>
<g id="a7_009"  >
<polygon points="98,90 100,90 105,85 100,80 98,80 98,90 " style="fill:white; stroke-width:1; stroke:black; " description="&lt;b&gt;AEF16033.1&lt;/b&gt;&lt;br&gt;hypothetical protein&lt;br&gt;Location: 77711 - 76908" locus_tag="AEF16033.1" class="clusterblast-orf" id="dummy-7_h7_6_9"  />
</g>
<g id="a7_0010"  >
<polygon points="105,90 111,90 116,85 111,80 105,80 105,90 " style="fill:white; stroke-width:1; stroke:black; " description="&lt;b&gt;AEF16032.1&lt;/b&gt;&lt;br&gt;regulatory protein D&lt;br&gt;Location: 76899 - 75613" locus_tag="AEF16032.1" class="clusterblast-orf" id="dummy-7_h7_6_10"  />
</g>
<g id="a7_0011"  >
<polygon points="116,90 117,90 122,85 117,80 116,80 116,90 " style="fill:white; stroke-width:1; stroke:black; " description="&lt;b&gt;AEF16031.1&lt;/b&gt;&lt;br&gt;regulatory protein C&lt;br&gt;Location: 75622 - 74978" locus_tag="AEF16031.1" class="clusterblast-orf" id="dummy-7_h7_6_11"  />
</g>
<g id="a7_0012"  >
<polygon points="124,85 129,80 133,80 133,90 129,90 124,85 " style="fill:white; stroke-width:1; stroke:black; " description="&lt;b&gt;AEF16030.1&lt;/b&gt;&lt;br&gt;lysine cyclodeaminase&lt;br&gt;Location: 74780 - 73752" locus_tag="AEF16030.1" class="clusterblast-orf" id="dummy-7_h7_6_12"  />
</g>
<g id="a7_0013"  >
<polygon points="135,90 150,90 155,85 150,80 135,80 135,90 " style="fill:white; stroke-width:1; stroke:black; " description="&lt;b&gt;AEF16029.1&lt;/b&gt;&lt;br&gt;putative drug exporter&lt;br&gt;Location: 73497 - 71176" locus_tag="AEF16029.1" class="clusterblast-orf" id="dummy-7_h7_6_13"  />
</g>
<g id="a7_0014"  >
<polygon points="156,85 161,80 163,80 163,90 161,90 156,85 " style="fill:white; stroke-width:1; stroke:black; " description="&lt;b&gt;AEF16028.1&lt;/b&gt;&lt;br&gt;LipE-like protein&lt;br&gt;Location: 71071 - 70265" locus_tag="AEF16028.1" class="clusterblast-orf" id="dummy-7_h7_6_14"  />
</g>
<g id="a7_0015"  >
<polygon points="164,85 166,80 166,90 164,85 " style="fill:white; stroke-width:1; stroke:black; " description="&lt;b&gt;AEG64691.1&lt;/b&gt;&lt;br&gt;MbtH-like protein&lt;br&gt;Location: 70174 - 69950" locus_tag="AEG64691.1" class="clusterblast-orf" id="dummy-7_h7_6_15"  />
</g>
<g id="a7_0016"  >
<polygon points="166,85 171,80 230,80 230,90 171,90 166,85 " style="fill:white; stroke-width:1; stroke:black; " description="&lt;b&gt;AEG64698.1&lt;/b&gt;&lt;br&gt;LpmD&lt;br&gt;Location: 69918 - 62701" locus_tag="AEG64698.1" class="clusterblast-orf" id="dummy-7_h7_6_16"  />
</g>
<g id="a7_0017"  >
<polygon points="230,85 235,80 408,80 408,90 235,90 230,85 " style="fill:#4dd815; stroke-width:1; stroke:black; " description="&lt;b&gt;AEG64697.1&lt;/b&gt;&lt;br&gt;LpmC&lt;br&gt;Location: 62701 - 42386&lt;br&gt;&lt;br&gt;&lt;b&gt;BlastP hit with LOCUS_49680&lt;/b&gt;&lt;br&gt;Percentage identity: 57&lt;br&gt;Percentage coverage: 88&lt;br&gt;BLAST bit score: 501&lt;br&gt;E-value: 1.4e-141&lt;br&gt;&lt;br&gt;&lt;b&gt;BlastP hit with LOCUS_49690&lt;/b&gt;&lt;br&gt;Percentage identity: 47&lt;br&gt;Percentage coverage: 95&lt;br&gt;BLAST bit score: 1112&lt;br&gt;E-value: 0.0" locus_tag="AEG64697.1" class="clusterblast-orf" id="dummy-7_h7_6_17"  />
</g>
<g id="a7_0018"  >
<polygon points="409,85 414,80 493,80 493,90 414,90 409,85 " style="fill:#4dd815; stroke-width:1; stroke:black; " description="&lt;b&gt;AEG64696.1&lt;/b&gt;&lt;br&gt;LpmB&lt;br&gt;Location: 42275 - 32712&lt;br&gt;&lt;br&gt;&lt;b&gt;BlastP hit with LOCUS_49680&lt;/b&gt;&lt;br&gt;Percentage identity: 46&lt;br&gt;Percentage coverage: 90&lt;br&gt;BLAST bit score: 353&lt;br&gt;E-value: 4.7e-97" locus_tag="AEG64696.1" class="clusterblast-orf" id="dummy-7_h7_6_18"  />
</g>
<g id="a7_0019"  >
<polygon points="494,85 497,80 497,90 494,85 " style="fill:white; stroke-width:1; stroke:black; " description="&lt;b&gt;AEF16024.1&lt;/b&gt;&lt;br&gt;acyl carrier protein&lt;br&gt;Location: 32542 - 32261" locus_tag="AEF16024.1" class="clusterblast-orf" id="dummy-7_h7_6_19"  />
</g>
<g id="a7_0020"  >
<polygon points="497,85 502,80 504,80 504,90 502,90 497,85 " style="fill:white; stroke-width:1; stroke:black; " description="&lt;b&gt;AEF16023.1&lt;/b&gt;&lt;br&gt;hypothetical protein&lt;br&gt;Location: 32240 - 31434" locus_tag="AEF16023.1" class="clusterblast-orf" id="dummy-7_h7_6_20"  />
</g>
<g id="a7_0021"  >
<polygon points="504,85 509,80 519,80 519,90 509,90 504,85 " style="fill:white; stroke-width:1; stroke:black; " description="&lt;b&gt;AEG64690.1&lt;/b&gt;&lt;br&gt;acyl-CoA dehydrogenase&lt;br&gt;Location: 31437 - 29698" locus_tag="AEG64690.1" class="clusterblast-orf" id="dummy-7_h7_6_21"  />
</g>
<g id="a7_0022"  >
<polygon points="519,85 524,80 535,80 535,90 524,90 519,85 " style="fill:white; stroke-width:1; stroke:black; " description="&lt;b&gt;AEF16021.1&lt;/b&gt;&lt;br&gt;acyl-CoA synthase&lt;br&gt;Location: 29701 - 27878" locus_tag="AEF16021.1" class="clusterblast-orf" id="dummy-7_h7_6_22"  />
</g>
<g id="a7_0023"  >
<polygon points="538,90 540,90 545,85 540,80 538,80 538,90 " style="fill:white; stroke-width:1; stroke:black; " description="&lt;b&gt;AEF16020.1&lt;/b&gt;&lt;br&gt;ABC transporter protein&lt;br&gt;Location: 27579 - 26737" locus_tag="AEF16020.1" class="clusterblast-orf" id="dummy-7_h7_6_23"  />
</g>
<g id="a7_0024"  >
<polygon points="546,90 549,90 554,85 549,80 546,80 546,90 " style="fill:white; stroke-width:1; stroke:black; " description="&lt;b&gt;AEF16019.1&lt;/b&gt;&lt;br&gt;regulatory protein B&lt;br&gt;Location: 26695 - 25748" locus_tag="AEF16019.1" class="clusterblast-orf" id="dummy-7_h7_6_24"  />
</g>
<g id="a7_0025"  >
<polygon points="555,85 560,80 580,80 580,90 560,90 555,85 " style="fill:white; stroke-width:1; stroke:black; " description="&lt;b&gt;AEG64689.1&lt;/b&gt;&lt;br&gt;LpmA&lt;br&gt;Location: 25616 - 22788" locus_tag="AEG64689.1" class="clusterblast-orf" id="dummy-7_h7_6_25"  />
</g>
<g id="a7_0026"  >
<polygon points="580,85 585,80 591,80 591,90 585,90 580,85 " style="fill:white; stroke-width:1; stroke:black; " description="&lt;b&gt;AEG64688.1&lt;/b&gt;&lt;br&gt;diaminobutyric acid synthase C&lt;br&gt;Location: 22791 - 21517" locus_tag="AEG64688.1" class="clusterblast-orf" id="dummy-7_h7_6_26"  />
</g>
<g id="a7_0027"  >
<polygon points="591,85 596,80 603,80 603,90 596,90 591,85 " style="fill:white; stroke-width:1; stroke:black; " description="&lt;b&gt;AEG64687.1&lt;/b&gt;&lt;br&gt;diaminobutyric acid synthase B&lt;br&gt;Location: 21520 - 20102" locus_tag="AEG64687.1" class="clusterblast-orf" id="dummy-7_h7_6_27"  />
</g>
<g id="a7_0028"  >
<polygon points="604,85 609,80 614,80 614,90 609,90 604,85 " style="fill:white; stroke-width:1; stroke:black; " description="&lt;b&gt;AEG64686.1&lt;/b&gt;&lt;br&gt;diaminobutyric acid synthase A&lt;br&gt;Location: 20018 - 18942" locus_tag="AEG64686.1" class="clusterblast-orf" id="dummy-7_h7_6_28"  />
</g>
<g id="a7_0029"  >
<polygon points="614,85 619,80 624,80 624,90 619,90 614,85 " style="fill:white; stroke-width:1; stroke:black; " description="&lt;b&gt;AEG64685.1&lt;/b&gt;&lt;br&gt;Daunorubicin resistance ABC transporter ATPase subunit&lt;br&gt;Location: 18837 - 17743" locus_tag="AEG64685.1" class="clusterblast-orf" id="dummy-7_h7_6_29"  />
</g>
<g id="a7_0030"  >
<polygon points="624,85 629,80 632,80 632,90 629,90 624,85 " style="fill:white; stroke-width:1; stroke:black; " description="&lt;b&gt;AEG64684.1&lt;/b&gt;&lt;br&gt;regulatory protein A&lt;br&gt;Location: 17719 - 16883" locus_tag="AEG64684.1" class="clusterblast-orf" id="dummy-7_h7_6_30"  />
</g>
<g id="a7_0031"  >
<polygon points="635,85 640,80 641,80 641,90 640,90 635,85 " style="fill:white; stroke-width:1; stroke:black; " description="&lt;b&gt;AEG64683.1&lt;/b&gt;&lt;br&gt;HAD superfamily (subfamily IIIB) phosphatase&lt;br&gt;Location: 16465 - 15806" locus_tag="AEG64683.1" class="clusterblast-orf" id="dummy-7_h7_6_31"  />
</g>
<g id="a7_0032"  >
<polygon points="645,90 648,90 653,85 648,80 645,80 645,90 " style="fill:white; stroke-width:1; stroke:black; " description="&lt;b&gt;AEG64682.1&lt;/b&gt;&lt;br&gt;LysR-type transcriptional regulator&lt;br&gt;Location: 15320 - 14403" locus_tag="AEG64682.1" class="clusterblast-orf" id="dummy-7_h7_6_32"  />
</g>
<g id="a7_0033"  >
<polygon points="655,90 657,90 662,85 657,80 655,80 655,90 " style="fill:white; stroke-width:1; stroke:black; " description="&lt;b&gt;AEG64681.1&lt;/b&gt;&lt;br&gt;2-deoxy-D-gluconate 3-dehydrogenase&lt;br&gt;Location: 14228 - 13386" locus_tag="AEG64681.1" class="clusterblast-orf" id="dummy-7_h7_6_33"  />
</g>
<g id="a7_0034"  >
<polygon points="662,90 669,90 674,85 669,80 662,80 662,90 " style="fill:white; stroke-width:1; stroke:black; " description="&lt;b&gt;AEG64680.1&lt;/b&gt;&lt;br&gt;NADH dehydrogenase&lt;br&gt;Location: 13379 - 12039" locus_tag="AEG64680.1" class="clusterblast-orf" id="dummy-7_h7_6_34"  />
</g>
<g id="a7_0035"  >
<polygon points="674,90 682,90 687,85 682,80 674,80 674,90 " style="fill:white; stroke-width:1; stroke:black; " description="&lt;b&gt;AEG64679.1&lt;/b&gt;&lt;br&gt;cytochrome bd-I oxidase subunit I&lt;br&gt;Location: 12010 - 10562" locus_tag="AEG64679.1" class="clusterblast-orf" id="dummy-7_h7_6_35"  />
</g>
<g id="a7_0036"  >
<polygon points="687,90 691,90 696,85 691,80 687,80 687,90 " style="fill:white; stroke-width:1; stroke:black; " description="&lt;b&gt;AEG64678.1&lt;/b&gt;&lt;br&gt;cytochrome d ubiquinol oxidase subunit II&lt;br&gt;Location: 10562 - 9522" locus_tag="AEG64678.1" class="clusterblast-orf" id="dummy-7_h7_6_36"  />
</g>
<g id="a7_0037"  >
<polygon points="696,85 701,80 710,80 710,90 701,90 696,85 " style="fill:white; stroke-width:1; stroke:black; " description="&lt;b&gt;AEG64677.1&lt;/b&gt;&lt;br&gt;putative choline dehydrogenase&lt;br&gt;Location: 9516 - 7936" locus_tag="AEG64677.1" class="clusterblast-orf" id="dummy-7_h7_6_37"  />
</g>
<g id="a7_0038"  >
<polygon points="711,85 716,80 719,80 719,90 716,90 711,85 " style="fill:white; stroke-width:1; stroke:black; " description="&lt;b&gt;AEG64676.1&lt;/b&gt;&lt;br&gt;cyclase&lt;br&gt;Location: 7854 - 6910" locus_tag="AEG64676.1" class="clusterblast-orf" id="dummy-7_h7_6_38"  />
</g>
<g id="a7_0039"  >
<polygon points="719,85 724,80 735,80 735,90 724,90 719,85 " style="fill:white; stroke-width:1; stroke:black; " description="&lt;b&gt;AEG64675.1&lt;/b&gt;&lt;br&gt;glycosyl hydrolase&lt;br&gt;Location: 6905 - 5088" locus_tag="AEG64675.1" class="clusterblast-orf" id="dummy-7_h7_6_39"  />
</g>
<g id="a7_0040"  >
<polygon points="737,90 740,90 745,85 740,80 737,80 737,90 " style="fill:white; stroke-width:1; stroke:black; " description="&lt;b&gt;AEG64674.1&lt;/b&gt;&lt;br&gt;integral membrane protein&lt;br&gt;Location: 4926 - 3976" locus_tag="AEG64674.1" class="clusterblast-orf" id="dummy-7_h7_6_40"  />
</g>
<g id="a7_0041"  >
<polygon points="745,90 756,90 761,85 756,80 745,80 745,90 " style="fill:white; stroke-width:1; stroke:black; " description="&lt;b&gt;AEG64673.1&lt;/b&gt;&lt;br&gt;sodium/hydrogen exchanger&lt;br&gt;Location: 3959 - 2193" locus_tag="AEG64673.1" class="clusterblast-orf" id="dummy-7_h7_6_41"  />
</g>
<g id="a7_0042"  >
<polygon points="763,90 775,90 780,85 775,80 763,80 763,90 " style="fill:white; stroke-width:1; stroke:black; " description="&lt;b&gt;AEG64672.1&lt;/b&gt;&lt;br&gt;ABC transporter-like protein&lt;br&gt;Location: 1925 - 36" locus_tag="AEG64672.1" class="clusterblast-orf" id="dummy-7_h7_6_42"  />
</g>
</svg>
