<svg xmlns="http://www.w3.org/2000/svg" xmlns:xlink="http://www.w3.org/1999/xlink" version="1.1" x="0" y="0" height="50" width="800" viewBox="0 0 800 50" preserveAspectRatio="none"  >
<g label="Query sequence" class="clusterblast-cluster"  >
<text x="5" y="20" class="clusterblast-acc"  >
Query sequence</text>
<line x1="10" y1="35" x2="778.0" y2="35" style="stroke-width:1; stroke:grey; "  />
<polygon points="0,35 5,30 16,30 16,40 5,40 0,35 " style="fill:white; stroke-width:1; stroke:black; " description="&lt;b&gt;LOCUS_41750&lt;/b&gt;&lt;br&gt;D-aminopeptidase&lt;br&gt;Location: 3242542 - 3243367" locus_tag="LOCUS_41750" class="clusterblast-orf" id="knownclusterblast-6_q0_0_all"  />
<polygon points="22,40 43,40 48,35 43,30 22,30 22,40 " style="fill:white; stroke-width:1; stroke:black; " description="&lt;b&gt;LOCUS_41760&lt;/b&gt;&lt;br&gt;purine permease&lt;br&gt;Location: 3243684 - 3244983" locus_tag="LOCUS_41760" class="clusterblast-orf" id="knownclusterblast-6_q1_0_all"  />
<polygon points="49,35 54,30 54,30 54,40 54,40 49,35 " style="fill:white; stroke-width:1; stroke:black; " description="&lt;b&gt;LOCUS_41770&lt;/b&gt;&lt;br&gt;hypothetical protein&lt;br&gt;Location: 3245021 - 3245282" locus_tag="LOCUS_41770" class="clusterblast-orf" id="knownclusterblast-6_q2_0_all"  />
<polygon points="54,35 59,30 83,30 83,40 59,40 54,35 " style="fill:white; stroke-width:1; stroke:black; " description="&lt;b&gt;LOCUS_41780&lt;/b&gt;&lt;br&gt;hypothetical protein&lt;br&gt;Location: 3245269 - 3246748" locus_tag="LOCUS_41780" class="clusterblast-orf" id="knownclusterblast-6_q3_0_all"  />
<polygon points="81,35 86,30 132,30 132,40 86,40 81,35 " style="fill:white; stroke-width:1; stroke:black; " description="&lt;b&gt;LOCUS_41790&lt;/b&gt;&lt;br&gt;hypothetical protein&lt;br&gt;Location: 3246659 - 3249206" locus_tag="LOCUS_41790" class="clusterblast-orf" id="knownclusterblast-6_q4_0_all"  />
<polygon points="136,40 139,40 144,35 139,30 136,30 136,40 " style="fill:white; stroke-width:1; stroke:black; " description="&lt;b&gt;LOCUS_41800&lt;/b&gt;&lt;br&gt;hypothetical protein&lt;br&gt;Location: 3249428 - 3249803" locus_tag="LOCUS_41800" class="clusterblast-orf" id="knownclusterblast-6_q5_0_all"  />
<polygon points="145,35 148,30 148,40 145,35 " style="fill:white; stroke-width:1; stroke:black; " description="&lt;b&gt;LOCUS_41810&lt;/b&gt;&lt;br&gt;hypothetical protein&lt;br&gt;Location: 3249857 - 3250010" locus_tag="LOCUS_41810" class="clusterblast-orf" id="knownclusterblast-6_q6_0_all"  />
<polygon points="150,35 152,30 152,40 150,35 " style="fill:white; stroke-width:1; stroke:black; " description="&lt;b&gt;LOCUS_41820&lt;/b&gt;&lt;br&gt;hypothetical protein&lt;br&gt;Location: 3250093 - 3250237" locus_tag="LOCUS_41820" class="clusterblast-orf" id="knownclusterblast-6_q7_0_all"  />
<polygon points="154,35 159,30 160,30 160,40 159,40 154,35 " style="fill:white; stroke-width:1; stroke:black; " description="&lt;b&gt;LOCUS_41830&lt;/b&gt;&lt;br&gt;hypothetical protein&lt;br&gt;Location: 3250335 - 3250635" locus_tag="LOCUS_41830" class="clusterblast-orf" id="knownclusterblast-6_q8_0_all"  />
<polygon points="162,35 167,30 179,30 179,40 167,40 162,35 " style="fill:white; stroke-width:1; stroke:black; " description="&lt;b&gt;LOCUS_41840&lt;/b&gt;&lt;br&gt;hypothetical protein&lt;br&gt;Location: 3250712 - 3251567" locus_tag="LOCUS_41840" class="clusterblast-orf" id="knownclusterblast-6_q9_0_all"  />
<polygon points="185,40 204,40 209,35 204,30 185,30 185,40 " style="fill:white; stroke-width:1; stroke:black; " description="&lt;b&gt;LOCUS_41850&lt;/b&gt;&lt;br&gt;putative transporter YutK&lt;br&gt;Location: 3251888 - 3253106" locus_tag="LOCUS_41850" class="clusterblast-orf" id="knownclusterblast-6_q10_0_all"  />
<polygon points="210,35 215,30 216,30 216,40 215,40 210,35 " style="fill:white; stroke-width:1; stroke:black; " description="&lt;b&gt;LOCUS_41860&lt;/b&gt;&lt;br&gt;hypothetical protein&lt;br&gt;Location: 3253139 - 3253412" locus_tag="LOCUS_41860" class="clusterblast-orf" id="knownclusterblast-6_q11_0_all"  />
<polygon points="220,35 225,30 225,30 225,40 225,40 220,35 " style="fill:white; stroke-width:1; stroke:black; " description="&lt;b&gt;LOCUS_41870&lt;/b&gt;&lt;br&gt;hypothetical protein&lt;br&gt;Location: 3253614 - 3253887" locus_tag="LOCUS_41870" class="clusterblast-orf" id="knownclusterblast-6_q12_0_all"  />
<polygon points="226,35 230,30 230,40 226,35 " style="fill:white; stroke-width:1; stroke:black; " description="&lt;b&gt;LOCUS_41880&lt;/b&gt;&lt;br&gt;hypothetical protein&lt;br&gt;Location: 3253942 - 3254125" locus_tag="LOCUS_41880" class="clusterblast-orf" id="knownclusterblast-6_q13_0_all"  />
<polygon points="230,35 234,30 234,40 230,35 " style="fill:white; stroke-width:1; stroke:black; " description="&lt;b&gt;LOCUS_41890&lt;/b&gt;&lt;br&gt;hypothetical protein&lt;br&gt;Location: 3254152 - 3254335" locus_tag="LOCUS_41890" class="clusterblast-orf" id="knownclusterblast-6_q14_0_all"  />
<polygon points="233,35 238,30 243,30 243,40 238,40 233,35 " style="fill:white; stroke-width:1; stroke:black; " description="&lt;b&gt;LOCUS_41900&lt;/b&gt;&lt;br&gt;hypothetical protein&lt;br&gt;Location: 3254315 - 3254807" locus_tag="LOCUS_41900" class="clusterblast-orf" id="knownclusterblast-6_q15_0_all"  />
<polygon points="248,40 250,40 255,35 250,30 248,30 248,40 " style="fill:white; stroke-width:1; stroke:black; " description="&lt;b&gt;LOCUS_41910&lt;/b&gt;&lt;br&gt;ribonuclease H&lt;br&gt;Location: 3255026 - 3255410" locus_tag="LOCUS_41910" class="clusterblast-orf" id="knownclusterblast-6_q16_0_all"  />
<polygon points="255,35 260,30 261,30 261,40 260,40 255,35 " style="fill:white; stroke-width:1; stroke:black; " description="&lt;b&gt;LOCUS_41920&lt;/b&gt;&lt;br&gt;hypothetical protein&lt;br&gt;Location: 3255419 - 3255695" locus_tag="LOCUS_41920" class="clusterblast-orf" id="knownclusterblast-6_q17_0_all"  />
<polygon points="262,35 267,30 271,30 271,40 267,40 262,35 " style="fill:white; stroke-width:1; stroke:black; " description="&lt;b&gt;LOCUS_41930&lt;/b&gt;&lt;br&gt;membrane protein&lt;br&gt;Location: 3255759 - 3256218" locus_tag="LOCUS_41930" class="clusterblast-orf" id="knownclusterblast-6_q18_0_all"  />
<polygon points="273,35 278,30 280,30 280,40 278,40 273,35 " style="fill:white; stroke-width:1; stroke:black; " description="&lt;b&gt;LOCUS_41940&lt;/b&gt;&lt;br&gt;hypothetical protein&lt;br&gt;Location: 3256314 - 3256644" locus_tag="LOCUS_41940" class="clusterblast-orf" id="knownclusterblast-6_q19_0_all"  />
<polygon points="286,35 288,30 288,40 286,35 " style="fill:white; stroke-width:1; stroke:black; " description="&lt;b&gt;LOCUS_41950&lt;/b&gt;&lt;br&gt;hypothetical protein&lt;br&gt;Location: 3256951 - 3257080" locus_tag="LOCUS_41950" class="clusterblast-orf" id="knownclusterblast-6_q20_0_all"  />
<polygon points="289,35 294,30 304,30 304,40 294,40 289,35 " style="fill:white; stroke-width:1; stroke:black; " description="&lt;b&gt;LOCUS_41960&lt;/b&gt;&lt;br&gt;hypothetical protein&lt;br&gt;Location: 3257093 - 3257861" locus_tag="LOCUS_41960" class="clusterblast-orf" id="knownclusterblast-6_q21_0_all"  />
<polygon points="304,35 309,30 343,30 343,40 309,40 304,35 " style="fill:white; stroke-width:1; stroke:black; " description="&lt;b&gt;LOCUS_41970&lt;/b&gt;&lt;br&gt;hypothetical protein&lt;br&gt;Location: 3257847 - 3259839" locus_tag="LOCUS_41970" class="clusterblast-orf" id="knownclusterblast-6_q22_0_all"  />
<polygon points="343,35 348,30 371,30 371,40 348,40 343,35 " style="fill:white; stroke-width:1; stroke:black; " description="&lt;b&gt;LOCUS_41980&lt;/b&gt;&lt;br&gt;hypothetical protein&lt;br&gt;Location: 3259832 - 3261221" locus_tag="LOCUS_41980" class="clusterblast-orf" id="knownclusterblast-6_q23_0_all"  />
<polygon points="371,35 376,30 376,30 376,40 376,40 371,35 " style="fill:white; stroke-width:1; stroke:black; " description="&lt;b&gt;LOCUS_41990&lt;/b&gt;&lt;br&gt;hypothetical protein&lt;br&gt;Location: 3261225 - 3261477" locus_tag="LOCUS_41990" class="clusterblast-orf" id="knownclusterblast-6_q24_0_all"  />
<polygon points="383,35 388,30 394,30 394,40 388,40 383,35 " style="fill:white; stroke-width:1; stroke:black; " description="&lt;b&gt;LOCUS_42000&lt;/b&gt;&lt;br&gt;hypothetical protein&lt;br&gt;Location: 3261850 - 3262417" locus_tag="LOCUS_42000" class="clusterblast-orf" id="knownclusterblast-6_q25_0_all"  />
<polygon points="395,35 400,30 416,30 416,40 400,40 395,35 " style="fill:white; stroke-width:1; stroke:black; " description="&lt;b&gt;LOCUS_42010&lt;/b&gt;&lt;br&gt;putative chalcone synthase&lt;br&gt;Location: 3262452 - 3263508" locus_tag="LOCUS_42010" class="clusterblast-orf" id="knownclusterblast-6_q26_0_all"  />
<polygon points="420,35 425,30 431,30 431,40 425,40 420,35 " style="fill:white; stroke-width:1; stroke:black; " description="&lt;b&gt;LOCUS_42020&lt;/b&gt;&lt;br&gt;N-acetyltransferase&lt;br&gt;Location: 3263705 - 3264245" locus_tag="LOCUS_42020" class="clusterblast-orf" id="knownclusterblast-6_q27_0_all"  />
<polygon points="436,35 441,30 462,30 462,40 441,40 436,35 " style="fill:white; stroke-width:1; stroke:black; " description="&lt;b&gt;LOCUS_42030&lt;/b&gt;&lt;br&gt;xanthine permease&lt;br&gt;Location: 3264538 - 3265849" locus_tag="LOCUS_42030" class="clusterblast-orf" id="knownclusterblast-6_q28_0_all"  />
<polygon points="462,35 467,30 474,30 474,40 467,40 462,35 " style="fill:white; stroke-width:1; stroke:black; " description="&lt;b&gt;LOCUS_42040&lt;/b&gt;&lt;br&gt;xanthine phosphoribosyltransferase&lt;br&gt;Location: 3265850 - 3266444" locus_tag="LOCUS_42040" class="clusterblast-orf" id="knownclusterblast-6_q29_0_all"  />
<polygon points="481,35 486,30 511,30 511,40 486,40 481,35 " style="fill:white; stroke-width:1; stroke:black; " description="&lt;b&gt;LOCUS_42050&lt;/b&gt;&lt;br&gt;carboxypeptidase M32&lt;br&gt;Location: 3266778 - 3268296" locus_tag="LOCUS_42050" class="clusterblast-orf" id="knownclusterblast-6_q30_0_all"  />
<polygon points="515,35 520,30 552,30 552,40 520,40 515,35 " style="fill:white; stroke-width:1; stroke:black; " description="&lt;b&gt;LOCUS_42060&lt;/b&gt;&lt;br&gt;ATP-dependent helicase&lt;br&gt;Location: 3268497 - 3270378" locus_tag="LOCUS_42060" class="clusterblast-orf" id="knownclusterblast-6_q31_0_all"  />
<polygon points="556,35 560,30 560,40 556,35 " style="fill:white; stroke-width:1; stroke:black; " description="&lt;b&gt;LOCUS_42070&lt;/b&gt;&lt;br&gt;hypothetical protein&lt;br&gt;Location: 3270586 - 3270772" locus_tag="LOCUS_42070" class="clusterblast-orf" id="knownclusterblast-6_q32_0_all"  />
<polygon points="575,35 580,30 584,30 584,40 580,40 575,35 " style="fill:white; stroke-width:1; stroke:black; " description="&lt;b&gt;LOCUS_42080&lt;/b&gt;&lt;br&gt;hypothetical protein&lt;br&gt;Location: 3271509 - 3271962" locus_tag="LOCUS_42080" class="clusterblast-orf" id="knownclusterblast-6_q33_0_all"  />
<polygon points="584,35 589,30 598,30 598,40 589,40 584,35 " style="fill:white; stroke-width:1; stroke:black; " description="&lt;b&gt;LOCUS_42090&lt;/b&gt;&lt;br&gt;hypothetical protein&lt;br&gt;Location: 3271968 - 3272655" locus_tag="LOCUS_42090" class="clusterblast-orf" id="knownclusterblast-6_q34_0_all"  />
<polygon points="601,35 606,30 634,30 634,40 606,40 601,35 " style="fill:white; stroke-width:1; stroke:black; " description="&lt;b&gt;LOCUS_42100&lt;/b&gt;&lt;br&gt;alpha-glucosidase&lt;br&gt;Location: 3272819 - 3274484" locus_tag="LOCUS_42100" class="clusterblast-orf" id="knownclusterblast-6_q35_0_all"  />
<polygon points="637,35 642,30 649,30 649,40 642,40 637,35 " style="fill:white; stroke-width:1; stroke:black; " description="&lt;b&gt;LOCUS_42110&lt;/b&gt;&lt;br&gt;DNA-binding response regulator&lt;br&gt;Location: 3274620 - 3275247" locus_tag="LOCUS_42110" class="clusterblast-orf" id="knownclusterblast-6_q36_0_all"  />
<polygon points="649,35 654,30 670,30 670,40 654,40 649,35 " style="fill:white; stroke-width:1; stroke:black; " description="&lt;b&gt;LOCUS_42120&lt;/b&gt;&lt;br&gt;sensor histidine kinase&lt;br&gt;Location: 3275269 - 3276298" locus_tag="LOCUS_42120" class="clusterblast-orf" id="knownclusterblast-6_q37_0_all"  />
<polygon points="670,35 675,30 684,30 684,40 675,40 670,35 " style="fill:white; stroke-width:1; stroke:black; " description="&lt;b&gt;LOCUS_42130&lt;/b&gt;&lt;br&gt;hypothetical protein&lt;br&gt;Location: 3276294 - 3277011" locus_tag="LOCUS_42130" class="clusterblast-orf" id="knownclusterblast-6_q38_0_all"  />
<polygon points="686,35 691,30 699,30 699,40 691,40 686,35 " style="fill:white; stroke-width:1; stroke:black; " description="&lt;b&gt;LOCUS_42140&lt;/b&gt;&lt;br&gt;phage shock protein A&lt;br&gt;Location: 3277134 - 3277758" locus_tag="LOCUS_42140" class="clusterblast-orf" id="knownclusterblast-6_q39_0_all"  />
<polygon points="699,35 704,30 706,30 706,40 704,40 699,35 " style="fill:white; stroke-width:1; stroke:black; " description="&lt;b&gt;LOCUS_42150&lt;/b&gt;&lt;br&gt;hypothetical protein&lt;br&gt;Location: 3277770 - 3278112" locus_tag="LOCUS_42150" class="clusterblast-orf" id="knownclusterblast-6_q40_0_all"  />
<polygon points="719,35 724,30 726,30 726,40 724,40 719,35 " style="fill:white; stroke-width:1; stroke:black; " description="&lt;b&gt;LOCUS_42160&lt;/b&gt;&lt;br&gt;cell cycle protein GpsB&lt;br&gt;Location: 3278767 - 3279103" locus_tag="LOCUS_42160" class="clusterblast-orf" id="knownclusterblast-6_q41_0_all"  />
<polygon points="728,35 733,30 735,30 735,40 733,40 728,35 " style="fill:white; stroke-width:1; stroke:black; " description="&lt;b&gt;LOCUS_42170&lt;/b&gt;&lt;br&gt;hypothetical protein&lt;br&gt;Location: 3279206 - 3279593" locus_tag="LOCUS_42170" class="clusterblast-orf" id="knownclusterblast-6_q42_0_all"  />
<polygon points="736,35 739,30 739,40 736,35 " style="fill:white; stroke-width:1; stroke:black; " description="&lt;b&gt;LOCUS_42180&lt;/b&gt;&lt;br&gt;hypothetical protein&lt;br&gt;Location: 3279606 - 3279759" locus_tag="LOCUS_42180" class="clusterblast-orf" id="knownclusterblast-6_q43_0_all"  />
<polygon points="740,35 745,30 748,30 748,40 745,40 740,35 " style="fill:white; stroke-width:1; stroke:black; " description="&lt;b&gt;LOCUS_42190&lt;/b&gt;&lt;br&gt;hypothetical protein&lt;br&gt;Location: 3279831 - 3280218" locus_tag="LOCUS_42190" class="clusterblast-orf" id="knownclusterblast-6_q44_0_all"  />
<polygon points="755,35 760,30 770,30 770,40 760,40 755,35 " style="fill:white; stroke-width:1; stroke:black; " description="&lt;b&gt;LOCUS_42200&lt;/b&gt;&lt;br&gt;hypothetical protein&lt;br&gt;Location: 3280570 - 3281320" locus_tag="LOCUS_42200" class="clusterblast-orf" id="knownclusterblast-6_q45_0_all"  />
<polygon points="769,35 774,30 780,30 780,40 774,40 769,35 " style="fill:white; stroke-width:1; stroke:black; " description="&lt;b&gt;LOCUS_42210&lt;/b&gt;&lt;br&gt;hypothetical protein&lt;br&gt;Location: 3281304 - 3281829" locus_tag="LOCUS_42210" class="clusterblast-orf" id="knownclusterblast-6_q46_0_all"  />
</g>
</svg>
