<svg xmlns="http://www.w3.org/2000/svg" xmlns:xlink="http://www.w3.org/1999/xlink" version="1.1" x="0" y="0" height="50" width="800" viewBox="0 0 800 50" preserveAspectRatio="none"  >
<g label="Query sequence" class="clusterblast-cluster"  >
<text x="5" y="20" class="clusterblast-acc"  >
Query sequence</text>
<line x1="10" y1="35" x2="778.0" y2="35" style="stroke-width:1; stroke:grey; "  />
<polygon points="0,35 5,30 28,30 28,40 5,40 0,35 " style="fill:white; stroke-width:1; stroke:black; " description="&lt;b&gt;LOCUS_37860&lt;/b&gt;&lt;br&gt;capsular polysaccharide biosynthesis protein&lt;br&gt;Location: 2950160 - 2950895" locus_tag="LOCUS_37860" class="clusterblast-orf" id="knownclusterblast-5_q0_0_all"  />
<polygon points="36,35 41,30 56,30 56,40 41,40 36,35 " style="fill:white; stroke-width:1; stroke:black; " description="&lt;b&gt;LOCUS_37870&lt;/b&gt;&lt;br&gt;hypothetical protein&lt;br&gt;Location: 2951111 - 2951624" locus_tag="LOCUS_37870" class="clusterblast-orf" id="knownclusterblast-5_q1_0_all"  />
<polygon points="71,35 76,30 83,30 83,40 76,40 71,35 " style="fill:white; stroke-width:1; stroke:black; " description="&lt;b&gt;LOCUS_37880&lt;/b&gt;&lt;br&gt;transcriptional regulator&lt;br&gt;Location: 2952027 - 2952357" locus_tag="LOCUS_37880" class="clusterblast-orf" id="knownclusterblast-5_q2_0_all"  />
<polygon points="88,35 93,30 95,30 95,40 93,40 88,35 " style="fill:white; stroke-width:1; stroke:black; " description="&lt;b&gt;LOCUS_37890&lt;/b&gt;&lt;br&gt;hypothetical protein&lt;br&gt;Location: 2952474 - 2952660" locus_tag="LOCUS_37890" class="clusterblast-orf" id="knownclusterblast-5_q3_0_all"  />
<polygon points="100,35 105,30 132,30 132,40 105,40 100,35 " style="fill:white; stroke-width:1; stroke:black; " description="&lt;b&gt;LOCUS_37900&lt;/b&gt;&lt;br&gt;hypothetical protein&lt;br&gt;Location: 2952804 - 2953638" locus_tag="LOCUS_37900" class="clusterblast-orf" id="knownclusterblast-5_q4_0_all"  />
<polygon points="138,40 167,40 172,35 167,30 138,30 138,40 " style="fill:white; stroke-width:1; stroke:black; " description="&lt;b&gt;LOCUS_37910&lt;/b&gt;&lt;br&gt;hypothetical protein&lt;br&gt;Location: 2953787 - 2954696" locus_tag="LOCUS_37910" class="clusterblast-orf" id="knownclusterblast-5_q5_0_all"  />
<polygon points="180,35 185,30 206,30 206,40 185,40 180,35 " style="fill:white; stroke-width:1; stroke:black; " description="&lt;b&gt;LOCUS_37920&lt;/b&gt;&lt;br&gt;hypothetical protein&lt;br&gt;Location: 2954897 - 2955569" locus_tag="LOCUS_37920" class="clusterblast-orf" id="knownclusterblast-5_q6_0_all"  />
<polygon points="203,35 208,30 223,30 223,40 208,40 203,35 " style="fill:white; stroke-width:1; stroke:black; " description="&lt;b&gt;LOCUS_37930&lt;/b&gt;&lt;br&gt;hypothetical protein&lt;br&gt;Location: 2955501 - 2956023" locus_tag="LOCUS_37930" class="clusterblast-orf" id="knownclusterblast-5_q7_0_all"  />
<polygon points="224,35 229,30 236,30 236,40 229,40 224,35 " style="fill:white; stroke-width:1; stroke:black; " description="&lt;b&gt;LOCUS_37940&lt;/b&gt;&lt;br&gt;hypothetical protein&lt;br&gt;Location: 2956047 - 2956368" locus_tag="LOCUS_37940" class="clusterblast-orf" id="knownclusterblast-5_q8_0_all"  />
<polygon points="244,40 273,40 278,35 273,30 244,30 244,40 " style="fill:white; stroke-width:1; stroke:black; " description="&lt;b&gt;LOCUS_37950&lt;/b&gt;&lt;br&gt;isomerase&lt;br&gt;Location: 2956583 - 2957465" locus_tag="LOCUS_37950" class="clusterblast-orf" id="knownclusterblast-5_q9_0_all"  />
<polygon points="280,35 285,30 291,30 291,40 285,40 280,35 " style="fill:white; stroke-width:1; stroke:black; " description="&lt;b&gt;LOCUS_37960&lt;/b&gt;&lt;br&gt;hypothetical protein&lt;br&gt;Location: 2957517 - 2957802" locus_tag="LOCUS_37960" class="clusterblast-orf" id="knownclusterblast-5_q10_0_all"  />
<polygon points="295,35 300,30 309,30 309,40 300,40 295,35 " style="fill:white; stroke-width:1; stroke:black; " description="&lt;b&gt;LOCUS_37970&lt;/b&gt;&lt;br&gt;hypothetical protein&lt;br&gt;Location: 2957907 - 2958291" locus_tag="LOCUS_37970" class="clusterblast-orf" id="knownclusterblast-5_q11_0_all"  />
<polygon points="312,35 317,30 335,30 335,40 317,40 312,35 " style="fill:white; stroke-width:1; stroke:black; " description="&lt;b&gt;LOCUS_37980&lt;/b&gt;&lt;br&gt;hypothetical protein&lt;br&gt;Location: 2958358 - 2958961" locus_tag="LOCUS_37980" class="clusterblast-orf" id="knownclusterblast-5_q12_0_all"  />
<polygon points="340,40 353,40 358,35 353,30 340,30 340,40 " style="fill:white; stroke-width:1; stroke:black; " description="&lt;b&gt;LOCUS_37990&lt;/b&gt;&lt;br&gt;hypothetical protein&lt;br&gt;Location: 2959109 - 2959571" locus_tag="LOCUS_37990" class="clusterblast-orf" id="knownclusterblast-5_q13_0_all"  />
<polygon points="364,40 367,40 372,35 367,30 364,30 364,40 " style="fill:white; stroke-width:1; stroke:black; " description="&lt;b&gt;LOCUS_38000&lt;/b&gt;&lt;br&gt;hypothetical protein&lt;br&gt;Location: 2959716 - 2959947" locus_tag="LOCUS_38000" class="clusterblast-orf" id="knownclusterblast-5_q14_0_all"  />
<polygon points="377,40 406,40 411,35 406,30 377,30 377,40 " style="fill:white; stroke-width:1; stroke:black; " description="&lt;b&gt;LOCUS_38010&lt;/b&gt;&lt;br&gt;hypothetical protein&lt;br&gt;Location: 2960075 - 2960969" locus_tag="LOCUS_38010" class="clusterblast-orf" id="knownclusterblast-5_q15_0_all"  />
<polygon points="413,35 418,30 435,30 435,40 418,40 413,35 " style="fill:white; stroke-width:1; stroke:black; " description="&lt;b&gt;LOCUS_38020&lt;/b&gt;&lt;br&gt;hypothetical protein&lt;br&gt;Location: 2961020 - 2961599" locus_tag="LOCUS_38020" class="clusterblast-orf" id="knownclusterblast-5_q16_0_all"  />
<polygon points="443,35 448,30 463,30 463,40 448,40 443,35 " style="fill:white; stroke-width:1; stroke:black; " description="&lt;b&gt;LOCUS_38030&lt;/b&gt;&lt;br&gt;N-acetyltransferase&lt;br&gt;Location: 2961807 - 2962332" locus_tag="LOCUS_38030" class="clusterblast-orf" id="knownclusterblast-5_q17_0_all"  />
<polygon points="464,35 469,30 495,30 495,40 469,40 464,35 " style="fill:white; stroke-width:1; stroke:black; " description="&lt;b&gt;LOCUS_38040&lt;/b&gt;&lt;br&gt;hypothetical protein&lt;br&gt;Location: 2962352 - 2963183" locus_tag="LOCUS_38040" class="clusterblast-orf" id="knownclusterblast-5_q18_0_all"  />
<polygon points="500,40 544,40 549,35 544,30 500,30 500,40 " style="fill:white; stroke-width:1; stroke:black; " description="&lt;b&gt;LOCUS_38050&lt;/b&gt;&lt;br&gt;hypothetical protein&lt;br&gt;Location: 2963316 - 2964585" locus_tag="LOCUS_38050" class="clusterblast-orf" id="knownclusterblast-5_q19_0_all"  />
<polygon points="547,40 557,40 562,35 557,30 547,30 547,40 " style="fill:white; stroke-width:1; stroke:black; " description="&lt;b&gt;LOCUS_38060&lt;/b&gt;&lt;br&gt;hypothetical protein&lt;br&gt;Location: 2964532 - 2964925" locus_tag="LOCUS_38060" class="clusterblast-orf" id="knownclusterblast-5_q20_0_all"  />
<polygon points="562,40 614,40 619,35 614,30 562,30 562,40 " style="fill:white; stroke-width:1; stroke:black; " description="&lt;b&gt;LOCUS_38070&lt;/b&gt;&lt;br&gt;hypothetical protein&lt;br&gt;Location: 2964924 - 2966427" locus_tag="LOCUS_38070" class="clusterblast-orf" id="knownclusterblast-5_q21_0_all"  />
<polygon points="633,40 642,40 647,35 642,30 633,30 633,40 " style="fill:white; stroke-width:1; stroke:black; " description="&lt;b&gt;LOCUS_38080&lt;/b&gt;&lt;br&gt;SET domain-containing protein-lysine N-methyltransferase&lt;br&gt;Location: 2966787 - 2967171" locus_tag="LOCUS_38080" class="clusterblast-orf" id="knownclusterblast-5_q22_0_all"  />
<polygon points="648,35 653,30 663,30 663,40 653,40 648,35 " style="fill:white; stroke-width:1; stroke:black; " description="&lt;b&gt;LOCUS_38090&lt;/b&gt;&lt;br&gt;hypothetical protein&lt;br&gt;Location: 2967205 - 2967595" locus_tag="LOCUS_38090" class="clusterblast-orf" id="knownclusterblast-5_q23_0_all"  />
<polygon points="673,35 678,30 735,30 735,40 678,40 673,35 " style="fill:white; stroke-width:1; stroke:black; " description="&lt;b&gt;LOCUS_38100&lt;/b&gt;&lt;br&gt;hypothetical protein&lt;br&gt;Location: 2967841 - 2969488" locus_tag="LOCUS_38100" class="clusterblast-orf" id="knownclusterblast-5_q24_0_all"  />
<polygon points="738,35 743,30 746,30 746,40 743,40 738,35 " style="fill:white; stroke-width:1; stroke:black; " description="&lt;b&gt;LOCUS_38110&lt;/b&gt;&lt;br&gt;hypothetical protein&lt;br&gt;Location: 2969555 - 2969759" locus_tag="LOCUS_38110" class="clusterblast-orf" id="knownclusterblast-5_q25_0_all"  />
<polygon points="746,35 751,30 780,30 780,40 751,40 746,35 " style="fill:white; stroke-width:1; stroke:black; " description="&lt;b&gt;LOCUS_38120&lt;/b&gt;&lt;br&gt;hypothetical protein&lt;br&gt;Location: 2969770 - 2970658" locus_tag="LOCUS_38120" class="clusterblast-orf" id="knownclusterblast-5_q26_0_all"  />
</g>
</svg>
