<svg xmlns="http://www.w3.org/2000/svg" xmlns:xlink="http://www.w3.org/1999/xlink" version="1.1" x="0" y="0" height="100" width="800" viewBox="0 0 800 100" preserveAspectRatio="none"  >
<g label="Query sequence" class="clusterblast-cluster"  >
<text x="5" y="20" class="clusterblast-acc"  >
Query sequence</text>
<line x1="10" y1="35" x2="778.0" y2="35" style="stroke-width:1; stroke:grey; "  />
<polygon points="0,40 0,40 5,35 0,30 0,30 0,40 " style="fill:white; stroke-width:1; stroke:black; " description="&lt;b&gt;LOCUS_23010&lt;/b&gt;&lt;br&gt;hypothetical protein&lt;br&gt;Location: 1812953 - 1813385" locus_tag="LOCUS_23010" class="clusterblast-orf" id="knownclusterblast-2_q0_0_all"  />
<polygon points="7,40 9,40 14,35 9,30 7,30 7,40 " style="fill:white; stroke-width:1; stroke:black; " description="&lt;b&gt;LOCUS_23020&lt;/b&gt;&lt;br&gt;spore coat protein E&lt;br&gt;Location: 1813586 - 1814132" locus_tag="LOCUS_23020" class="clusterblast-orf" id="knownclusterblast-2_q1_0_all"  />
<polygon points="16,40 39,40 44,35 39,30 16,30 16,40 " style="fill:white; stroke-width:1; stroke:black; " description="&lt;b&gt;LOCUS_23030&lt;/b&gt;&lt;br&gt;DNA mismatch repair protein MutS&lt;br&gt;Location: 1814268 - 1816551" locus_tag="LOCUS_23030" class="clusterblast-orf" id="knownclusterblast-2_q2_0_all"  />
<polygon points="44,40 44,40 49,35 44,30 44,30 44,40 " style="fill:white; stroke-width:1; stroke:black; " description="&lt;b&gt;LOCUS_23040&lt;/b&gt;&lt;br&gt;hypothetical protein&lt;br&gt;Location: 1816492 - 1816924" locus_tag="LOCUS_23040" class="clusterblast-orf" id="knownclusterblast-2_q3_0_all"  />
<polygon points="49,40 68,40 73,35 68,30 49,30 49,40 " style="fill:white; stroke-width:1; stroke:black; " description="&lt;b&gt;LOCUS_23050&lt;/b&gt;&lt;br&gt;DNA mismatch repair protein MutL&lt;br&gt;Location: 1816943 - 1818845" locus_tag="LOCUS_23050" class="clusterblast-orf" id="knownclusterblast-2_q4_0_all"  />
<polygon points="76,40 79,35 76,30 76,40 " style="fill:white; stroke-width:1; stroke:black; " description="&lt;b&gt;LOCUS_23060&lt;/b&gt;&lt;br&gt;hypothetical protein&lt;br&gt;Location: 1819087 - 1819324" locus_tag="LOCUS_23060" class="clusterblast-orf" id="knownclusterblast-2_q5_0_all"  />
<polygon points="79,35 81,30 81,40 79,35 " style="fill:white; stroke-width:1; stroke:black; " description="&lt;b&gt;LOCUS_23070&lt;/b&gt;&lt;br&gt;hypothetical protein&lt;br&gt;Location: 1819320 - 1819518" locus_tag="LOCUS_23070" class="clusterblast-orf" id="knownclusterblast-2_q6_0_all"  />
<polygon points="89,40 91,35 89,30 89,40 " style="fill:white; stroke-width:1; stroke:black; " description="&lt;b&gt;LOCUS_23080&lt;/b&gt;&lt;br&gt;hypothetical protein&lt;br&gt;Location: 1820130 - 1820316" locus_tag="LOCUS_23080" class="clusterblast-orf" id="knownclusterblast-2_q7_0_all"  />
<polygon points="92,40 94,40 99,35 94,30 92,30 92,40 " style="fill:white; stroke-width:1; stroke:black; " description="&lt;b&gt;LOCUS_23090&lt;/b&gt;&lt;br&gt;hypothetical protein&lt;br&gt;Location: 1820399 - 1820963" locus_tag="LOCUS_23090" class="clusterblast-orf" id="knownclusterblast-2_q8_0_all"  />
<polygon points="100,40 103,35 100,30 100,40 " style="fill:white; stroke-width:1; stroke:black; " description="&lt;b&gt;LOCUS_23100&lt;/b&gt;&lt;br&gt;RNA-binding protein Hfq&lt;br&gt;Location: 1820997 - 1821222" locus_tag="LOCUS_23100" class="clusterblast-orf" id="knownclusterblast-2_q9_0_all"  />
<polygon points="106,40 112,40 117,35 112,30 106,30 106,40 " style="fill:white; stroke-width:1; stroke:black; " description="&lt;b&gt;LOCUS_23110&lt;/b&gt;&lt;br&gt;stage V sporulation protein K&lt;br&gt;Location: 1821477 - 1822413" locus_tag="LOCUS_23110" class="clusterblast-orf" id="knownclusterblast-2_q10_0_all"  />
<polygon points="118,35 123,30 125,30 125,40 123,40 118,35 " style="fill:white; stroke-width:1; stroke:black; " description="&lt;b&gt;LOCUS_23120&lt;/b&gt;&lt;br&gt;UPF0126 membrane protein YvgT&lt;br&gt;Location: 1822443 - 1823055" locus_tag="LOCUS_23120" class="clusterblast-orf" id="knownclusterblast-2_q11_0_all"  />
<polygon points="128,40 139,40 144,35 139,30 128,30 128,40 " style="fill:white; stroke-width:1; stroke:black; " description="&lt;b&gt;LOCUS_23130&lt;/b&gt;&lt;br&gt;GTPase HflX&lt;br&gt;Location: 1823302 - 1824565" locus_tag="LOCUS_23130" class="clusterblast-orf" id="knownclusterblast-2_q12_0_all"  />
<polygon points="144,40 146,40 151,35 146,30 144,30 144,40 " style="fill:white; stroke-width:1; stroke:black; " description="&lt;b&gt;LOCUS_23140&lt;/b&gt;&lt;br&gt;hypothetical protein&lt;br&gt;Location: 1824577 - 1825087" locus_tag="LOCUS_23140" class="clusterblast-orf" id="knownclusterblast-2_q13_0_all"  />
<polygon points="151,40 155,40 160,35 155,30 151,30 151,40 " style="fill:white; stroke-width:1; stroke:black; " description="&lt;b&gt;LOCUS_23150&lt;/b&gt;&lt;br&gt;hypothetical protein&lt;br&gt;Location: 1825083 - 1825845" locus_tag="LOCUS_23150" class="clusterblast-orf" id="knownclusterblast-2_q14_0_all"  />
<polygon points="162,40 163,40 168,35 163,30 162,30 162,40 " style="fill:white; stroke-width:1; stroke:black; " description="&lt;b&gt;LOCUS_23160&lt;/b&gt;&lt;br&gt;HTH-type transcriptional regulator GlnR&lt;br&gt;Location: 1826037 - 1826460" locus_tag="LOCUS_23160" class="clusterblast-orf" id="knownclusterblast-2_q15_0_all"  />
<polygon points="169,40 180,40 185,35 180,30 169,30 169,40 " style="fill:white; stroke-width:1; stroke:black; " description="&lt;b&gt;LOCUS_23170&lt;/b&gt;&lt;br&gt;glutamine synthetase&lt;br&gt;Location: 1826541 - 1827876" locus_tag="LOCUS_23170" class="clusterblast-orf" id="knownclusterblast-2_q16_0_all"  />
<polygon points="191,40 195,35 191,30 191,40 " style="fill:white; stroke-width:1; stroke:black; " description="&lt;b&gt;LOCUS_23180&lt;/b&gt;&lt;br&gt;hypothetical protein&lt;br&gt;Location: 1828341 - 1828626" locus_tag="LOCUS_23180" class="clusterblast-orf" id="knownclusterblast-2_q17_0_all"  />
<polygon points="196,35 199,30 199,40 196,35 " style="fill:white; stroke-width:1; stroke:black; " description="&lt;b&gt;LOCUS_23190&lt;/b&gt;&lt;br&gt;hypothetical protein&lt;br&gt;Location: 1828723 - 1828978" locus_tag="LOCUS_23190" class="clusterblast-orf" id="knownclusterblast-2_q18_0_all"  />
<polygon points="204,35 209,30 213,30 213,40 209,40 204,35 " style="fill:white; stroke-width:1; stroke:black; " description="&lt;b&gt;LOCUS_23200&lt;/b&gt;&lt;br&gt;integrase&lt;br&gt;Location: 1829342 - 1830074" locus_tag="LOCUS_23200" class="clusterblast-orf" id="knownclusterblast-2_q19_0_all"  />
<polygon points="214,35 217,30 217,40 214,35 " style="fill:white; stroke-width:1; stroke:black; " description="&lt;b&gt;LOCUS_23210&lt;/b&gt;&lt;br&gt;transposase&lt;br&gt;Location: 1830178 - 1830463" locus_tag="LOCUS_23210" class="clusterblast-orf" id="knownclusterblast-2_q20_0_all"  />
<polygon points="218,40 223,40 228,35 223,30 218,30 218,40 " style="fill:white; stroke-width:1; stroke:black; " description="&lt;b&gt;LOCUS_23220&lt;/b&gt;&lt;br&gt;hypothetical protein&lt;br&gt;Location: 1830545 - 1831349" locus_tag="LOCUS_23220" class="clusterblast-orf" id="knownclusterblast-2_q21_0_all"  />
<polygon points="246,40 269,40 274,35 269,30 246,30 246,40 " style="fill:white; stroke-width:1; stroke:black; " description="&lt;b&gt;LOCUS_23230&lt;/b&gt;&lt;br&gt;hypothetical protein&lt;br&gt;Location: 1832728 - 1835008" locus_tag="LOCUS_23230" class="clusterblast-orf" id="knownclusterblast-2_q22_0_all"  />
<polygon points="274,40 335,40 340,35 335,30 274,30 274,40 " style="fill:white; stroke-width:1; stroke:black; " description="&lt;b&gt;LOCUS_23240&lt;/b&gt;&lt;br&gt;hypothetical protein&lt;br&gt;Location: 1834988 - 1840331" locus_tag="LOCUS_23240" class="clusterblast-orf" id="knownclusterblast-2_q23_0_all"  />
<polygon points="342,40 367,40 372,35 367,30 342,30 342,40 " style="fill:white; stroke-width:1; stroke:black; " description="&lt;b&gt;LOCUS_23250&lt;/b&gt;&lt;br&gt;hypothetical protein&lt;br&gt;Location: 1840510 - 1842895" locus_tag="LOCUS_23250" class="clusterblast-orf" id="knownclusterblast-2_q24_0_all"  />
<polygon points="375,40 393,40 398,35 393,30 375,30 375,40 " style="fill:white; stroke-width:1; stroke:black; " description="&lt;b&gt;LOCUS_23260&lt;/b&gt;&lt;br&gt;hypothetical protein&lt;br&gt;Location: 1843085 - 1844948" locus_tag="LOCUS_23260" class="clusterblast-orf" id="knownclusterblast-2_q25_0_all"  />
<polygon points="397,40 435,40 440,35 435,30 397,30 397,40 " style="fill:white; stroke-width:1; stroke:black; " description="&lt;b&gt;LOCUS_23270&lt;/b&gt;&lt;br&gt;surfactin synthase subunit 3&lt;br&gt;Location: 1844898 - 1848381" locus_tag="LOCUS_23270" class="clusterblast-orf" id="knownclusterblast-2_q26_0_all"  />
<polygon points="441,40 449,40 454,35 449,30 441,30 441,40 " style="fill:white; stroke-width:1; stroke:black; " description="&lt;b&gt;LOCUS_23280&lt;/b&gt;&lt;br&gt;hypothetical protein&lt;br&gt;Location: 1848418 - 1849486" locus_tag="LOCUS_23280" class="clusterblast-orf" id="knownclusterblast-2_q27_0_all"  />
<polygon points="455,40 460,40 465,35 460,30 455,30 455,40 " style="fill:white; stroke-width:1; stroke:black; " description="&lt;b&gt;LOCUS_23290&lt;/b&gt;&lt;br&gt;hypothetical protein&lt;br&gt;Location: 1849535 - 1850372" locus_tag="LOCUS_23290" class="clusterblast-orf" id="knownclusterblast-2_q28_0_all"  />
<polygon points="465,40 500,40 505,35 500,30 465,30 465,40 " style="fill:white; stroke-width:1; stroke:black; " description="&lt;b&gt;LOCUS_23300&lt;/b&gt;&lt;br&gt;hypothetical protein&lt;br&gt;Location: 1850352 - 1853598" locus_tag="LOCUS_23300" class="clusterblast-orf" id="knownclusterblast-2_q29_0_all"  />
<polygon points="506,40 530,40 535,35 530,30 506,30 506,40 " style="fill:white; stroke-width:1; stroke:black; " description="&lt;b&gt;LOCUS_23310&lt;/b&gt;&lt;br&gt;hypothetical protein&lt;br&gt;Location: 1853662 - 1855951" locus_tag="LOCUS_23310" class="clusterblast-orf" id="knownclusterblast-2_q30_0_all"  />
<polygon points="536,40 552,40 557,35 552,30 536,30 536,40 " style="fill:white; stroke-width:1; stroke:black; " description="&lt;b&gt;LOCUS_23320&lt;/b&gt;&lt;br&gt;ABC transporter permease&lt;br&gt;Location: 1856044 - 1857733" locus_tag="LOCUS_23320" class="clusterblast-orf" id="knownclusterblast-2_q31_0_all"  />
<polygon points="557,40 560,40 565,35 560,30 557,30 557,40 " style="fill:white; stroke-width:1; stroke:black; " description="&lt;b&gt;LOCUS_23330&lt;/b&gt;&lt;br&gt;4'-phosphopantetheinyl transferase&lt;br&gt;Location: 1857768 - 1858422" locus_tag="LOCUS_23330" class="clusterblast-orf" id="knownclusterblast-2_q32_0_all"  />
<polygon points="567,40 570,40 575,35 570,30 567,30 567,40 " style="fill:white; stroke-width:1; stroke:black; " description="&lt;b&gt;LOCUS_23340&lt;/b&gt;&lt;br&gt;hypothetical protein&lt;br&gt;Location: 1858570 - 1859224" locus_tag="LOCUS_23340" class="clusterblast-orf" id="knownclusterblast-2_q33_0_all"  />
<polygon points="578,40 585,40 590,35 585,30 578,30 578,40 " style="fill:#d81515; stroke-width:1; stroke:black; " description="&lt;b&gt;LOCUS_23350&lt;/b&gt;&lt;br&gt;bacitracin ABC transporter ATP-binding protein&lt;br&gt;Location: 1859480 - 1860404" locus_tag="LOCUS_23350" class="clusterblast-orf" id="knownclusterblast-2_q34_0_all"  />
<polygon points="592,40 595,40 600,35 595,30 592,30 592,40 " style="fill:white; stroke-width:1; stroke:black; " description="&lt;b&gt;LOCUS_23360&lt;/b&gt;&lt;br&gt;bacitracin ABC transporter permease&lt;br&gt;Location: 1860538 - 1861243" locus_tag="LOCUS_23360" class="clusterblast-orf" id="knownclusterblast-2_q35_0_all"  />
<polygon points="601,40 606,40 611,35 606,30 601,30 601,40 " style="fill:white; stroke-width:1; stroke:black; " description="&lt;b&gt;LOCUS_23370&lt;/b&gt;&lt;br&gt;hypothetical protein&lt;br&gt;Location: 1861288 - 1862107" locus_tag="LOCUS_23370" class="clusterblast-orf" id="knownclusterblast-2_q36_0_all"  />
<polygon points="614,40 618,35 614,30 614,40 " style="fill:white; stroke-width:1; stroke:black; " description="&lt;b&gt;LOCUS_23380&lt;/b&gt;&lt;br&gt;transition state regulator Abh&lt;br&gt;Location: 1862364 - 1862646" locus_tag="LOCUS_23380" class="clusterblast-orf" id="knownclusterblast-2_q37_0_all"  />
<polygon points="623,40 626,40 631,35 626,30 623,30 623,40 " style="fill:white; stroke-width:1; stroke:black; " description="&lt;b&gt;LOCUS_23390&lt;/b&gt;&lt;br&gt;hypothetical protein&lt;br&gt;Location: 1863040 - 1863721" locus_tag="LOCUS_23390" class="clusterblast-orf" id="knownclusterblast-2_q38_0_all"  />
<polygon points="631,40 635,35 631,30 631,40 " style="fill:white; stroke-width:1; stroke:black; " description="&lt;b&gt;LOCUS_23400&lt;/b&gt;&lt;br&gt;hypothetical protein&lt;br&gt;Location: 1863671 - 1863986" locus_tag="LOCUS_23400" class="clusterblast-orf" id="knownclusterblast-2_q39_0_all"  />
<polygon points="636,40 640,40 645,35 640,30 636,30 636,40 " style="fill:#15d8d8; stroke-width:1; stroke:black; " description="&lt;b&gt;LOCUS_23410&lt;/b&gt;&lt;br&gt;DNA-binding response regulator&lt;br&gt;Location: 1864098 - 1864812" locus_tag="LOCUS_23410" class="clusterblast-orf" id="knownclusterblast-2_q40_0_all"  />
<polygon points="645,40 651,40 656,35 651,30 645,30 645,40 " style="fill:white; stroke-width:1; stroke:black; " description="&lt;b&gt;LOCUS_23420&lt;/b&gt;&lt;br&gt;two-component sensor histidine kinase&lt;br&gt;Location: 1864813 - 1865749" locus_tag="LOCUS_23420" class="clusterblast-orf" id="knownclusterblast-2_q41_0_all"  />
<polygon points="658,35 663,30 665,30 665,40 663,40 658,35 " style="fill:white; stroke-width:1; stroke:black; " description="&lt;b&gt;LOCUS_23430&lt;/b&gt;&lt;br&gt;hypothetical protein&lt;br&gt;Location: 1865912 - 1866401" locus_tag="LOCUS_23430" class="clusterblast-orf" id="knownclusterblast-2_q42_0_all"  />
<polygon points="664,35 668,30 668,40 664,35 " style="fill:white; stroke-width:1; stroke:black; " description="&lt;b&gt;LOCUS_23440&lt;/b&gt;&lt;br&gt;hypothetical protein&lt;br&gt;Location: 1866393 - 1866690" locus_tag="LOCUS_23440" class="clusterblast-orf" id="knownclusterblast-2_q43_0_all"  />
<polygon points="672,35 677,30 686,30 686,40 677,40 672,35 " style="fill:white; stroke-width:1; stroke:black; " description="&lt;b&gt;LOCUS_23450&lt;/b&gt;&lt;br&gt;hypothetical protein&lt;br&gt;Location: 1867034 - 1868096" locus_tag="LOCUS_23450" class="clusterblast-orf" id="knownclusterblast-2_q44_0_all"  />
<polygon points="691,40 693,35 691,30 691,40 " style="fill:white; stroke-width:1; stroke:black; " description="&lt;b&gt;LOCUS_23460&lt;/b&gt;&lt;br&gt;hypothetical protein&lt;br&gt;Location: 1868541 - 1868700" locus_tag="LOCUS_23460" class="clusterblast-orf" id="knownclusterblast-2_q45_0_all"  />
<polygon points="694,35 699,30 699,30 699,40 699,40 694,35 " style="fill:white; stroke-width:1; stroke:black; " description="&lt;b&gt;LOCUS_23470&lt;/b&gt;&lt;br&gt;hypothetical protein&lt;br&gt;Location: 1868737 - 1869184" locus_tag="LOCUS_23470" class="clusterblast-orf" id="knownclusterblast-2_q46_0_all"  />
<polygon points="700,35 705,30 711,30 711,40 705,40 700,35 " style="fill:white; stroke-width:1; stroke:black; " description="&lt;b&gt;LOCUS_23480&lt;/b&gt;&lt;br&gt;hypothetical protein&lt;br&gt;Location: 1869271 - 1870135" locus_tag="LOCUS_23480" class="clusterblast-orf" id="knownclusterblast-2_q47_0_all"  />
<polygon points="711,35 716,30 719,30 719,40 716,40 711,35 " style="fill:white; stroke-width:1; stroke:black; " description="&lt;b&gt;LOCUS_23490&lt;/b&gt;&lt;br&gt;hypothetical protein&lt;br&gt;Location: 1870152 - 1870803" locus_tag="LOCUS_23490" class="clusterblast-orf" id="knownclusterblast-2_q48_0_all"  />
<polygon points="720,35 722,30 722,40 720,35 " style="fill:white; stroke-width:1; stroke:black; " description="&lt;b&gt;LOCUS_23500&lt;/b&gt;&lt;br&gt;hypothetical protein&lt;br&gt;Location: 1870894 - 1871038" locus_tag="LOCUS_23500" class="clusterblast-orf" id="knownclusterblast-2_q49_0_all"  />
<polygon points="722,35 727,30 732,30 732,40 727,40 722,35 " style="fill:white; stroke-width:1; stroke:black; " description="&lt;b&gt;LOCUS_23510&lt;/b&gt;&lt;br&gt;hypothetical protein&lt;br&gt;Location: 1871021 - 1871858" locus_tag="LOCUS_23510" class="clusterblast-orf" id="knownclusterblast-2_q50_0_all"  />
<polygon points="734,40 736,35 734,30 734,40 " style="fill:white; stroke-width:1; stroke:black; " description="&lt;b&gt;LOCUS_23520&lt;/b&gt;&lt;br&gt;hypothetical protein&lt;br&gt;Location: 1871951 - 1872149" locus_tag="LOCUS_23520" class="clusterblast-orf" id="knownclusterblast-2_q51_0_all"  />
<polygon points="744,40 750,40 755,35 750,30 744,30 744,40 " style="fill:white; stroke-width:1; stroke:black; " description="&lt;b&gt;LOCUS_23530&lt;/b&gt;&lt;br&gt;acetyltransferase&lt;br&gt;Location: 1872756 - 1873680" locus_tag="LOCUS_23530" class="clusterblast-orf" id="knownclusterblast-2_q52_0_all"  />
<polygon points="763,40 767,35 763,30 763,40 " style="fill:white; stroke-width:1; stroke:black; " description="&lt;b&gt;LOCUS_23540&lt;/b&gt;&lt;br&gt;hypothetical protein&lt;br&gt;Location: 1874323 - 1874608" locus_tag="LOCUS_23540" class="clusterblast-orf" id="knownclusterblast-2_q53_0_all"  />
<polygon points="777,40 780,35 777,30 777,40 " style="fill:white; stroke-width:1; stroke:black; " description="&lt;b&gt;LOCUS_23550&lt;/b&gt;&lt;br&gt;hypothetical protein&lt;br&gt;Location: 1875429 - 1875648" locus_tag="LOCUS_23550" class="clusterblast-orf" id="knownclusterblast-2_q54_0_all"  />
</g>
<g label="BGC0000310" description="BGC0000310_c1: bacitracin (22% of genes show similarity), NRP" class="clusterblast-cluster"  >
<text x="5" y="70" class="clusterblast-acc"  >
<a xlink:href="https://mibig.secondarymetabolites.org/go/BGC0000310/1" target="_blank">BGC0000310</a>:                                                                       bacitracin (22% of genes show similarity), NRP</text>
<line x1="10" y1="85" x2="778.0" y2="85" style="stroke-width:1; stroke:grey; "  />
</g>
<g id="a2_000"  >
<polygon points="89,90 93,90 98,85 93,80 89,80 89,90 " style="fill:white; stroke-width:1; stroke:black; " description="&lt;b&gt;AAD21211.1&lt;/b&gt;&lt;br&gt;BacT&lt;br&gt;Location: 411 - 1115" locus_tag="AAD21211.1" class="clusterblast-orf" id="knownclusterblast-2_all_2_1_0"  />
</g>
<g id="a2_001"  >
<polygon points="102,90 293,90 298,85 293,80 102,80 102,90 " style="fill:white; stroke-width:1; stroke:black; " description="&lt;b&gt;AAC06346.1&lt;/b&gt;&lt;br&gt;bacitracin synthetase 1&lt;br&gt;Location: 1451 - 17218" locus_tag="AAC06346.1" class="clusterblast-orf" id="knownclusterblast-2_all_2_1_1"  />
</g>
<g id="a2_002"  >
<polygon points="300,90 392,90 397,85 392,80 300,80 300,90 " style="fill:white; stroke-width:1; stroke:black; " description="&lt;b&gt;AAC06347.1&lt;/b&gt;&lt;br&gt;bacitracin synthetase 2&lt;br&gt;Location: 17330 - 25153" locus_tag="AAC06347.1" class="clusterblast-orf" id="knownclusterblast-2_all_2_1_2"  />
</g>
<g id="a2_003"  >
<polygon points="398,90 631,90 636,85 631,80 398,80 398,90 " style="fill:white; stroke-width:1; stroke:black; " description="&lt;b&gt;AAC06348.1&lt;/b&gt;&lt;br&gt;bacitracin synthetase 3&lt;br&gt;Location: 25258 - 44337" locus_tag="AAC06348.1" class="clusterblast-orf" id="knownclusterblast-2_all_2_1_3"  />
</g>
<g id="a2_004"  >
<polygon points="638,90 642,90 647,85 642,80 638,80 638,90 " style="fill:#15d8d8; stroke-width:1; stroke:black; " description="&lt;b&gt;AAD21216.2&lt;/b&gt;&lt;br&gt;BacR&lt;br&gt;Location: 44497 - 45213&lt;br&gt;&lt;br&gt;&lt;b&gt;BlastP hit with LOCUS_23410&lt;/b&gt;&lt;br&gt;Percentage identity: 46&lt;br&gt;Percentage coverage: 97&lt;br&gt;BLAST bit score: 213&lt;br&gt;E-value: 4.7e-55" locus_tag="AAD21216.2" class="clusterblast-orf" id="knownclusterblast-2_all_2_1_4"  />
</g>
<g id="a2_005"  >
<polygon points="646,90 654,90 659,85 654,80 646,80 646,90 " style="fill:white; stroke-width:1; stroke:black; " description="&lt;b&gt;AAD21212.2&lt;/b&gt;&lt;br&gt;BacS&lt;br&gt;Location: 45191 - 46237" locus_tag="AAD21212.2" class="clusterblast-orf" id="knownclusterblast-2_all_2_1_5"  />
</g>
<g id="a2_006"  >
<polygon points="660,90 667,90 672,85 667,80 660,80 660,90 " style="fill:#d81515; stroke-width:1; stroke:black; " description="&lt;b&gt;AAD21213.1&lt;/b&gt;&lt;br&gt;BcrA&lt;br&gt;Location: 46313 - 47233&lt;br&gt;&lt;br&gt;&lt;b&gt;BlastP hit with LOCUS_23350&lt;/b&gt;&lt;br&gt;Percentage identity: 47&lt;br&gt;Percentage coverage: 98&lt;br&gt;BLAST bit score: 282&lt;br&gt;E-value: 8.2e-76" locus_tag="AAD21213.1" class="clusterblast-orf" id="knownclusterblast-2_all_2_1_6"  />
</g>
<g id="a2_007"  >
<polygon points="673,90 676,90 681,85 676,80 673,80 673,90 " style="fill:white; stroke-width:1; stroke:black; " description="&lt;b&gt;AAD21214.1&lt;/b&gt;&lt;br&gt;BcrB&lt;br&gt;Location: 47334 - 47960" locus_tag="AAD21214.1" class="clusterblast-orf" id="knownclusterblast-2_all_2_1_7"  />
</g>
<g id="a2_008"  >
<polygon points="682,90 685,90 690,85 685,80 682,80 682,90 " style="fill:white; stroke-width:1; stroke:black; " description="&lt;b&gt;AAD21215.1&lt;/b&gt;&lt;br&gt;BcrC&lt;br&gt;Location: 48081 - 48692" locus_tag="AAD21215.1" class="clusterblast-orf" id="knownclusterblast-2_all_2_1_8"  />
</g>
</svg>
