<svg xmlns="http://www.w3.org/2000/svg" xmlns:xlink="http://www.w3.org/1999/xlink" version="1.1" x="0" y="0" height="100" width="800" viewBox="0 0 800 100" preserveAspectRatio="none"  >
<g label="Query sequence" class="clusterblast-cluster"  >
<text x="5" y="20" class="clusterblast-acc"  >
Query sequence</text>
<line x1="10" y1="35" x2="778.0" y2="35" style="stroke-width:1; stroke:grey; "  />
<polygon points="0,40 9,40 14,35 9,30 0,30 0,40 " style="fill:white; stroke-width:1; stroke:black; " description="&lt;b&gt;LOCUS_51450&lt;/b&gt;&lt;br&gt;hypothetical protein&lt;br&gt;Location: 3991506 - 3991869" locus_tag="LOCUS_51450" class="clusterblast-orf" id="knownclusterblast-8_q0_0_all"  />
<polygon points="14,35 19,30 54,30 54,40 19,40 14,35 " style="fill:white; stroke-width:1; stroke:black; " description="&lt;b&gt;LOCUS_51460&lt;/b&gt;&lt;br&gt;hypothetical protein&lt;br&gt;Location: 3991879 - 3992899" locus_tag="LOCUS_51460" class="clusterblast-orf" id="knownclusterblast-8_q1_0_all"  />
<polygon points="50,35 55,30 79,30 79,40 55,40 50,35 " style="fill:white; stroke-width:1; stroke:black; " description="&lt;b&gt;LOCUS_51470&lt;/b&gt;&lt;br&gt;hypothetical protein&lt;br&gt;Location: 3992805 - 3993540" locus_tag="LOCUS_51470" class="clusterblast-orf" id="knownclusterblast-8_q2_0_all"  />
<polygon points="81,35 86,30 111,30 111,40 86,40 81,35 " style="fill:white; stroke-width:1; stroke:black; " description="&lt;b&gt;LOCUS_51480&lt;/b&gt;&lt;br&gt;hypothetical protein&lt;br&gt;Location: 3993608 - 3994367" locus_tag="LOCUS_51480" class="clusterblast-orf" id="knownclusterblast-8_q3_0_all"  />
<polygon points="110,35 115,30 128,30 128,40 115,40 110,35 " style="fill:white; stroke-width:1; stroke:black; " description="&lt;b&gt;LOCUS_51490&lt;/b&gt;&lt;br&gt;hypothetical protein&lt;br&gt;Location: 3994363 - 3994813" locus_tag="LOCUS_51490" class="clusterblast-orf" id="knownclusterblast-8_q4_0_all"  />
<polygon points="129,35 134,30 139,30 139,40 134,40 129,35 " style="fill:white; stroke-width:1; stroke:black; " description="&lt;b&gt;LOCUS_51500&lt;/b&gt;&lt;br&gt;hypothetical protein&lt;br&gt;Location: 3994850 - 3995102" locus_tag="LOCUS_51500" class="clusterblast-orf" id="knownclusterblast-8_q5_0_all"  />
<polygon points="140,35 145,30 156,30 156,40 145,40 140,35 " style="fill:white; stroke-width:1; stroke:black; " description="&lt;b&gt;LOCUS_51510&lt;/b&gt;&lt;br&gt;hypothetical protein&lt;br&gt;Location: 3995121 - 3995553" locus_tag="LOCUS_51510" class="clusterblast-orf" id="knownclusterblast-8_q6_0_all"  />
<polygon points="157,35 162,30 164,30 164,40 162,40 157,35 " style="fill:white; stroke-width:1; stroke:black; " description="&lt;b&gt;LOCUS_51520&lt;/b&gt;&lt;br&gt;hypothetical protein&lt;br&gt;Location: 3995558 - 3995741" locus_tag="LOCUS_51520" class="clusterblast-orf" id="knownclusterblast-8_q7_0_all"  />
<polygon points="166,35 171,30 189,30 189,40 171,40 166,35 " style="fill:white; stroke-width:1; stroke:black; " description="&lt;b&gt;LOCUS_51530&lt;/b&gt;&lt;br&gt;hypothetical protein&lt;br&gt;Location: 3995809 - 3996403" locus_tag="LOCUS_51530" class="clusterblast-orf" id="knownclusterblast-8_q8_0_all"  />
<polygon points="200,35 205,30 239,30 239,40 205,40 200,35 " style="fill:white; stroke-width:1; stroke:black; " description="&lt;b&gt;LOCUS_51540&lt;/b&gt;&lt;br&gt;LacI family transcriptional regulator&lt;br&gt;Location: 3996679 - 3997699" locus_tag="LOCUS_51540" class="clusterblast-orf" id="knownclusterblast-8_q9_0_all"  />
<polygon points="248,35 253,30 299,30 299,40 253,40 248,35 " style="fill:white; stroke-width:1; stroke:black; " description="&lt;b&gt;LOCUS_51550&lt;/b&gt;&lt;br&gt;hypothetical protein&lt;br&gt;Location: 3997915 - 3999235" locus_tag="LOCUS_51550" class="clusterblast-orf" id="knownclusterblast-8_q10_0_all"  />
<polygon points="304,35 309,30 338,30 338,40 309,40 304,35 " style="fill:white; stroke-width:1; stroke:black; " description="&lt;b&gt;LOCUS_51560&lt;/b&gt;&lt;br&gt;hypothetical protein&lt;br&gt;Location: 3999367 - 4000243" locus_tag="LOCUS_51560" class="clusterblast-orf" id="knownclusterblast-8_q11_0_all"  />
<polygon points="334,35 339,30 358,30 358,40 339,40 334,35 " style="fill:white; stroke-width:1; stroke:black; " description="&lt;b&gt;LOCUS_51570&lt;/b&gt;&lt;br&gt;hypothetical protein&lt;br&gt;Location: 4000154 - 4000766" locus_tag="LOCUS_51570" class="clusterblast-orf" id="knownclusterblast-8_q12_0_all"  />
<polygon points="359,35 364,30 372,30 372,40 364,40 359,35 " style="fill:white; stroke-width:1; stroke:black; " description="&lt;b&gt;LOCUS_51580&lt;/b&gt;&lt;br&gt;nitrogen regulatory protein P-II&lt;br&gt;Location: 4000792 - 4001134" locus_tag="LOCUS_51580" class="clusterblast-orf" id="knownclusterblast-8_q13_0_all"  />
<polygon points="382,35 387,30 414,30 414,40 387,40 382,35 " style="fill:#d81515; stroke-width:1; stroke:black; " description="&lt;b&gt;LOCUS_51590&lt;/b&gt;&lt;br&gt;dehydrosqualene synthase&lt;br&gt;Location: 4001377 - 4002214" locus_tag="LOCUS_51590" class="clusterblast-orf" id="knownclusterblast-8_q14_0_all"  />
<polygon points="417,35 422,30 473,30 473,40 422,40 417,35 " style="fill:#15d815; stroke-width:1; stroke:black; " description="&lt;b&gt;LOCUS_51600&lt;/b&gt;&lt;br&gt;dehydrosqualene desaturase&lt;br&gt;Location: 4002285 - 4003740" locus_tag="LOCUS_51600" class="clusterblast-orf" id="knownclusterblast-8_q15_0_all"  />
<polygon points="473,35 478,30 532,30 532,40 478,40 473,35 " style="fill:#1515d8; stroke-width:1; stroke:black; " description="&lt;b&gt;LOCUS_51610&lt;/b&gt;&lt;br&gt;phytoene desaturase&lt;br&gt;Location: 4003736 - 4005266" locus_tag="LOCUS_51610" class="clusterblast-orf" id="knownclusterblast-8_q16_0_all"  />
<polygon points="543,35 548,30 588,30 588,40 548,40 543,35 " style="fill:white; stroke-width:1; stroke:black; " description="&lt;b&gt;LOCUS_51620&lt;/b&gt;&lt;br&gt;hypothetical protein&lt;br&gt;Location: 4005551 - 4006724" locus_tag="LOCUS_51620" class="clusterblast-orf" id="knownclusterblast-8_q17_0_all"  />
<polygon points="591,35 596,30 615,30 615,40 596,40 591,35 " style="fill:white; stroke-width:1; stroke:black; " description="&lt;b&gt;LOCUS_51630&lt;/b&gt;&lt;br&gt;hypothetical protein&lt;br&gt;Location: 4006784 - 4007402" locus_tag="LOCUS_51630" class="clusterblast-orf" id="knownclusterblast-8_q18_0_all"  />
<polygon points="621,40 624,40 629,35 624,30 621,30 621,40 " style="fill:white; stroke-width:1; stroke:black; " description="&lt;b&gt;LOCUS_51640&lt;/b&gt;&lt;br&gt;hypothetical protein&lt;br&gt;Location: 4007574 - 4007784" locus_tag="LOCUS_51640" class="clusterblast-orf" id="knownclusterblast-8_q19_0_all"  />
<polygon points="630,40 638,40 643,35 638,30 630,30 630,40 " style="fill:white; stroke-width:1; stroke:black; " description="&lt;b&gt;LOCUS_51650&lt;/b&gt;&lt;br&gt;hypothetical protein&lt;br&gt;Location: 4007794 - 4008136" locus_tag="LOCUS_51650" class="clusterblast-orf" id="knownclusterblast-8_q20_0_all"  />
<polygon points="662,35 667,30 675,30 675,40 667,40 662,35 " style="fill:white; stroke-width:1; stroke:black; " description="&lt;b&gt;LOCUS_51660&lt;/b&gt;&lt;br&gt;UPF0344 protein&lt;br&gt;Location: 4008619 - 4008961" locus_tag="LOCUS_51660" class="clusterblast-orf" id="knownclusterblast-8_q21_0_all"  />
<polygon points="683,40 686,40 691,35 686,30 683,30 683,40 " style="fill:white; stroke-width:1; stroke:black; " description="&lt;b&gt;LOCUS_51670&lt;/b&gt;&lt;br&gt;putative spore germination protein GerPA&lt;br&gt;Location: 4009164 - 4009386" locus_tag="LOCUS_51670" class="clusterblast-orf" id="knownclusterblast-8_q22_0_all"  />
<polygon points="692,40 698,40 703,35 698,30 692,30 692,40 " style="fill:white; stroke-width:1; stroke:black; " description="&lt;b&gt;LOCUS_51680&lt;/b&gt;&lt;br&gt;hypothetical protein&lt;br&gt;Location: 4009412 - 4009679" locus_tag="LOCUS_51680" class="clusterblast-orf" id="knownclusterblast-8_q23_0_all"  />
<polygon points="706,40 726,40 731,35 726,30 706,30 706,40 " style="fill:white; stroke-width:1; stroke:black; " description="&lt;b&gt;LOCUS_51690&lt;/b&gt;&lt;br&gt;putative spore germination protein GerPC&lt;br&gt;Location: 4009772 - 4010423" locus_tag="LOCUS_51690" class="clusterblast-orf" id="knownclusterblast-8_q24_0_all"  />
<polygon points="731,40 733,40 738,35 733,30 731,30 731,40 " style="fill:white; stroke-width:1; stroke:black; " description="&lt;b&gt;LOCUS_51700&lt;/b&gt;&lt;br&gt;putative spore germination protein GerPD&lt;br&gt;Location: 4010419 - 4010596" locus_tag="LOCUS_51700" class="clusterblast-orf" id="knownclusterblast-8_q25_0_all"  />
<polygon points="739,40 751,40 756,35 751,30 739,30 739,40 " style="fill:white; stroke-width:1; stroke:black; " description="&lt;b&gt;LOCUS_51710&lt;/b&gt;&lt;br&gt;putative spore germination protein GerPE&lt;br&gt;Location: 4010609 - 4011065" locus_tag="LOCUS_51710" class="clusterblast-orf" id="knownclusterblast-8_q26_0_all"  />
<polygon points="759,40 762,40 767,35 762,30 759,30 759,40 " style="fill:white; stroke-width:1; stroke:black; " description="&lt;b&gt;LOCUS_51720&lt;/b&gt;&lt;br&gt;putative spore germination protein GerPF&lt;br&gt;Location: 4011125 - 4011344" locus_tag="LOCUS_51720" class="clusterblast-orf" id="knownclusterblast-8_q27_0_all"  />
<polygon points="768,35 773,30 780,30 780,40 773,40 768,35 " style="fill:white; stroke-width:1; stroke:black; " description="&lt;b&gt;LOCUS_51730&lt;/b&gt;&lt;br&gt;hypothetical protein&lt;br&gt;Location: 4011372 - 4011678" locus_tag="LOCUS_51730" class="clusterblast-orf" id="knownclusterblast-8_q28_0_all"  />
</g>
<g label="BGC0000645" description="BGC0000645_c1: carotenoid (50% of genes show similarity), Terpene" class="clusterblast-cluster"  >
<text x="5" y="70" class="clusterblast-acc"  >
<a xlink:href="https://mibig.secondarymetabolites.org/go/BGC0000645/1" target="_blank">BGC0000645</a>:                                                                       carotenoid (50% of genes show similarity), Terpene</text>
<line x1="10" y1="85" x2="778.0" y2="85" style="stroke-width:1; stroke:grey; "  />
</g>
<g id="a8_000"  >
<polygon points="245,90 265,90 270,85 265,80 245,80 245,90 " style="fill:white; stroke-width:1; stroke:black; " description="&lt;b&gt;ACM07429.1&lt;/b&gt;&lt;br&gt;putative phospholipid/glycerol acyltransferase&lt;br&gt;Location: 7475 - 6819" locus_tag="ACM07429.1" class="clusterblast-orf" id="knownclusterblast-8_all_8_1_0"  />
</g>
<g id="a8_001"  >
<polygon points="271,90 309,90 314,85 309,80 271,80 271,90 " style="fill:white; stroke-width:1; stroke:black; " description="&lt;b&gt;ACM07428.1&lt;/b&gt;&lt;br&gt;putative glycosyl transferase family 2 protein&lt;br&gt;Location: 6800 - 5691" locus_tag="ACM07428.1" class="clusterblast-orf" id="knownclusterblast-8_all_8_1_1"  />
</g>
<g id="a8_002"  >
<polygon points="309,90 365,90 370,85 365,80 309,80 309,90 " style="fill:white; stroke-width:1; stroke:black; " description="&lt;b&gt;ACM07427.1&lt;/b&gt;&lt;br&gt;CrtNb&lt;br&gt;Location: 5808 - 4231" locus_tag="ACM07427.1" class="clusterblast-orf" id="knownclusterblast-8_all_8_1_2"  />
</g>
<g id="a8_003"  >
<polygon points="387,85 392,80 419,80 419,90 392,90 387,85 " style="fill:#d81515; stroke-width:1; stroke:black; " description="&lt;b&gt;ACM07426.1&lt;/b&gt;&lt;br&gt;CrtM&lt;br&gt;Location: 3802 - 2966&lt;br&gt;&lt;br&gt;&lt;b&gt;BlastP hit with LOCUS_51590&lt;/b&gt;&lt;br&gt;Percentage identity: 51&lt;br&gt;Percentage coverage: 99&lt;br&gt;BLAST bit score: 289&lt;br&gt;E-value: 7.9e-78" locus_tag="ACM07426.1" class="clusterblast-orf" id="knownclusterblast-8_all_8_1_3"  />
</g>
<g id="a8_004"  >
<polygon points="419,85 424,80 477,80 477,90 424,90 419,85 " style="fill:#15d815; stroke-width:1; stroke:black; " description="&lt;b&gt;ACM07425.1&lt;/b&gt;&lt;br&gt;CrtNc&lt;br&gt;Location: 2963 - 1482&lt;br&gt;&lt;br&gt;&lt;b&gt;BlastP hit with LOCUS_51600&lt;/b&gt;&lt;br&gt;Percentage identity: 54&lt;br&gt;Percentage coverage: 99&lt;br&gt;BLAST bit score: 535&lt;br&gt;E-value: 8.5e-152" locus_tag="ACM07425.1" class="clusterblast-orf" id="knownclusterblast-8_all_8_1_4"  />
</g>
<g id="a8_005"  >
<polygon points="477,85 482,80 534,80 534,90 482,90 477,85 " style="fill:#1515d8; stroke-width:1; stroke:black; " description="&lt;b&gt;ACM07424.1&lt;/b&gt;&lt;br&gt;CrtNa&lt;br&gt;Location: 1485 - 1&lt;br&gt;&lt;br&gt;&lt;b&gt;BlastP hit with LOCUS_51610&lt;/b&gt;&lt;br&gt;Percentage identity: 64&lt;br&gt;Percentage coverage: 95&lt;br&gt;BLAST bit score: 646&lt;br&gt;E-value: 4.7e-185" locus_tag="ACM07424.1" class="clusterblast-orf" id="knownclusterblast-8_all_8_1_5"  />
</g>
</svg>
