<svg xmlns="http://www.w3.org/2000/svg" xmlns:xlink="http://www.w3.org/1999/xlink" version="1.1" x="0" y="0" height="230" width="800" viewBox="0 0 800 230" preserveAspectRatio="none"  >
<g label="Query sequence" class="clusterblast-cluster"  >
<text x="5" y="20" class="clusterblast-acc"  >
Query sequence</text>
<line x1="10" y1="35" x2="778.0" y2="35" style="stroke-width:1; stroke:grey; "  />
<polygon points="0,35 5,30 5,30 5,40 5,40 0,35 " style="fill:white; stroke-width:1; stroke:black; " description="&lt;b&gt;LOCUS_49490&lt;/b&gt;&lt;br&gt;hypothetical protein&lt;br&gt;Location: 3838682 - 3838976" locus_tag="LOCUS_49490" class="clusterblast-orf" id="dummy-7_q0_0_all"  />
<polygon points="13,40 17,40 22,35 17,30 13,30 13,40 " style="fill:white; stroke-width:1; stroke:black; " description="&lt;b&gt;LOCUS_49500&lt;/b&gt;&lt;br&gt;hypothetical protein&lt;br&gt;Location: 3839403 - 3839901" locus_tag="LOCUS_49500" class="clusterblast-orf" id="dummy-7_q1_0_all"  />
<polygon points="22,35 27,30 44,30 44,40 27,40 22,35 " style="fill:white; stroke-width:1; stroke:black; " description="&lt;b&gt;LOCUS_49510&lt;/b&gt;&lt;br&gt;chloramphenicol resistance protein&lt;br&gt;Location: 3839946 - 3841146" locus_tag="LOCUS_49510" class="clusterblast-orf" id="dummy-7_q2_0_all"  />
<polygon points="50,40 51,40 56,35 51,30 50,30 50,40 " style="fill:white; stroke-width:1; stroke:black; " description="&lt;b&gt;LOCUS_49520&lt;/b&gt;&lt;br&gt;transcriptional regulator&lt;br&gt;Location: 3841459 - 3841807" locus_tag="LOCUS_49520" class="clusterblast-orf" id="dummy-7_q3_0_all"  />
<polygon points="57,40 60,35 57,30 57,40 " style="fill:white; stroke-width:1; stroke:black; " description="&lt;b&gt;LOCUS_49530&lt;/b&gt;&lt;br&gt;hypothetical protein&lt;br&gt;Location: 3841842 - 3842040" locus_tag="LOCUS_49530" class="clusterblast-orf" id="dummy-7_q4_0_all"  />
<polygon points="63,35 68,30 71,30 71,40 68,40 63,35 " style="fill:white; stroke-width:1; stroke:black; " description="&lt;b&gt;LOCUS_49540&lt;/b&gt;&lt;br&gt;hypothetical protein&lt;br&gt;Location: 3842199 - 3842640" locus_tag="LOCUS_49540" class="clusterblast-orf" id="dummy-7_q5_0_all"  />
<polygon points="71,35 76,30 88,30 88,40 76,40 71,35 " style="fill:white; stroke-width:1; stroke:black; " description="&lt;b&gt;LOCUS_49550&lt;/b&gt;&lt;br&gt;hypothetical protein&lt;br&gt;Location: 3842644 - 3843562" locus_tag="LOCUS_49550" class="clusterblast-orf" id="dummy-7_q6_0_all"  />
<polygon points="100,35 105,30 109,30 109,40 105,40 100,35 " style="fill:white; stroke-width:1; stroke:black; " description="&lt;b&gt;LOCUS_49560&lt;/b&gt;&lt;br&gt;hypothetical protein&lt;br&gt;Location: 3844231 - 3844741" locus_tag="LOCUS_49560" class="clusterblast-orf" id="dummy-7_q7_0_all"  />
<polygon points="109,35 114,30 114,30 114,40 114,40 109,35 " style="fill:white; stroke-width:1; stroke:black; " description="&lt;b&gt;LOCUS_49570&lt;/b&gt;&lt;br&gt;hypothetical protein&lt;br&gt;Location: 3844727 - 3845006" locus_tag="LOCUS_49570" class="clusterblast-orf" id="dummy-7_q8_0_all"  />
<polygon points="114,35 119,30 153,30 153,40 119,40 114,35 " style="fill:white; stroke-width:1; stroke:black; " description="&lt;b&gt;LOCUS_49580&lt;/b&gt;&lt;br&gt;malate synthase G&lt;br&gt;Location: 3845030 - 3847211" locus_tag="LOCUS_49580" class="clusterblast-orf" id="dummy-7_q9_0_all"  />
<polygon points="154,35 159,30 180,30 180,40 159,40 154,35 " style="fill:white; stroke-width:1; stroke:black; " description="&lt;b&gt;LOCUS_49590&lt;/b&gt;&lt;br&gt;FAD-binding protein&lt;br&gt;Location: 3847232 - 3848699" locus_tag="LOCUS_49590" class="clusterblast-orf" id="dummy-7_q10_0_all"  />
<polygon points="182,35 187,30 203,30 203,40 187,40 182,35 " style="fill:white; stroke-width:1; stroke:black; " description="&lt;b&gt;LOCUS_49600&lt;/b&gt;&lt;br&gt;putative glycolate oxidase iron-sulfur subunit&lt;br&gt;Location: 3848790 - 3849972" locus_tag="LOCUS_49600" class="clusterblast-orf" id="dummy-7_q11_0_all"  />
<polygon points="204,35 209,30 228,30 228,40 209,40 204,35 " style="fill:white; stroke-width:1; stroke:black; " description="&lt;b&gt;LOCUS_49610&lt;/b&gt;&lt;br&gt;glycolate oxidase&lt;br&gt;Location: 3850057 - 3851380" locus_tag="LOCUS_49610" class="clusterblast-orf" id="dummy-7_q12_0_all"  />
<polygon points="229,35 234,30 241,30 241,40 234,40 229,35 " style="fill:white; stroke-width:1; stroke:black; " description="&lt;b&gt;LOCUS_49620&lt;/b&gt;&lt;br&gt;HTH-type transcriptional regulator LutR&lt;br&gt;Location: 3851416 - 3852112" locus_tag="LOCUS_49620" class="clusterblast-orf" id="dummy-7_q13_0_all"  />
<polygon points="245,35 250,30 264,30 264,40 250,40 245,35 " style="fill:white; stroke-width:1; stroke:black; " description="&lt;b&gt;LOCUS_49630&lt;/b&gt;&lt;br&gt;hypothetical protein&lt;br&gt;Location: 3852292 - 3853348" locus_tag="LOCUS_49630" class="clusterblast-orf" id="dummy-7_q14_0_all"  />
<polygon points="266,35 271,30 276,30 276,40 271,40 266,35 " style="fill:white; stroke-width:1; stroke:black; " description="&lt;b&gt;LOCUS_49640&lt;/b&gt;&lt;br&gt;hypothetical protein&lt;br&gt;Location: 3853485 - 3854007" locus_tag="LOCUS_49640" class="clusterblast-orf" id="dummy-7_q15_0_all"  />
<polygon points="280,35 285,30 292,30 292,40 285,40 280,35 " style="fill:white; stroke-width:1; stroke:black; " description="&lt;b&gt;LOCUS_49650&lt;/b&gt;&lt;br&gt;hypothetical protein&lt;br&gt;Location: 3854261 - 3854933" locus_tag="LOCUS_49650" class="clusterblast-orf" id="dummy-7_q16_0_all"  />
<polygon points="297,35 302,30 306,30 306,40 302,40 297,35 " style="fill:#d81515; stroke-width:1; stroke:black; " description="&lt;b&gt;LOCUS_49660&lt;/b&gt;&lt;br&gt;hypothetical protein&lt;br&gt;Location: 3855217 - 3855706" locus_tag="LOCUS_49660" class="clusterblast-orf" id="dummy-7_q17_0_all"  />
<polygon points="311,35 316,30 322,30 322,40 316,40 311,35 " style="fill:#4dd815; stroke-width:1; stroke:black; " description="&lt;b&gt;LOCUS_49670&lt;/b&gt;&lt;br&gt;hypothetical protein&lt;br&gt;Location: 3855962 - 3856574" locus_tag="LOCUS_49670" class="clusterblast-orf" id="dummy-7_q18_0_all"  />
<polygon points="321,35 326,30 349,30 349,40 326,40 321,35 " style="fill:#4dd815; stroke-width:1; stroke:black; " description="&lt;b&gt;LOCUS_49680&lt;/b&gt;&lt;br&gt;hypothetical protein&lt;br&gt;Location: 3856548 - 3858060" locus_tag="LOCUS_49680" class="clusterblast-orf" id="dummy-7_q19_0_all"  />
<polygon points="348,35 353,30 421,30 421,40 353,40 348,35 " style="fill:#4dd815; stroke-width:1; stroke:black; " description="&lt;b&gt;LOCUS_49690&lt;/b&gt;&lt;br&gt;hypothetical protein&lt;br&gt;Location: 3858022 - 3862063" locus_tag="LOCUS_49690" class="clusterblast-orf" id="dummy-7_q20_0_all"  />
<polygon points="420,35 425,30 440,30 440,40 425,40 420,35 " style="fill:#4dd815; stroke-width:1; stroke:black; " description="&lt;b&gt;LOCUS_49700&lt;/b&gt;&lt;br&gt;hypothetical protein&lt;br&gt;Location: 3862052 - 3863120" locus_tag="LOCUS_49700" class="clusterblast-orf" id="dummy-7_q21_0_all"  />
<polygon points="440,35 442,30 442,40 440,35 " style="fill:white; stroke-width:1; stroke:black; " description="&lt;b&gt;LOCUS_49710&lt;/b&gt;&lt;br&gt;hypothetical protein&lt;br&gt;Location: 3863139 - 3863277" locus_tag="LOCUS_49710" class="clusterblast-orf" id="dummy-7_q22_0_all"  />
<polygon points="445,35 449,30 449,40 445,35 " style="fill:#1585d8; stroke-width:1; stroke:black; " description="&lt;b&gt;LOCUS_49720&lt;/b&gt;&lt;br&gt;hypothetical protein&lt;br&gt;Location: 3863423 - 3863636" locus_tag="LOCUS_49720" class="clusterblast-orf" id="dummy-7_q23_0_all"  />
<polygon points="451,35 456,30 456,30 456,40 456,40 451,35 " style="fill:#1585d8; stroke-width:1; stroke:black; " description="&lt;b&gt;LOCUS_49730&lt;/b&gt;&lt;br&gt;hypothetical protein&lt;br&gt;Location: 3863762 - 3864047" locus_tag="LOCUS_49730" class="clusterblast-orf" id="dummy-7_q24_0_all"  />
<polygon points="457,35 462,30 482,30 482,40 462,40 457,35 " style="fill:#d815bc; stroke-width:1; stroke:black; " description="&lt;b&gt;LOCUS_49740&lt;/b&gt;&lt;br&gt;2,3-dihydroxybenzoate-AMP ligase&lt;br&gt;Location: 3864081 - 3865470" locus_tag="LOCUS_49740" class="clusterblast-orf" id="dummy-7_q25_0_all"  />
<polygon points="482,35 485,30 485,40 482,35 " style="fill:white; stroke-width:1; stroke:black; " description="&lt;b&gt;LOCUS_49750&lt;/b&gt;&lt;br&gt;hypothetical protein&lt;br&gt;Location: 3865477 - 3865618" locus_tag="LOCUS_49750" class="clusterblast-orf" id="dummy-7_q26_0_all"  />
<polygon points="486,35 491,30 497,30 497,40 491,40 486,35 " style="fill:#d8bc15; stroke-width:1; stroke:black; " description="&lt;b&gt;LOCUS_49760&lt;/b&gt;&lt;br&gt;hypothetical protein&lt;br&gt;Location: 3865708 - 3866296" locus_tag="LOCUS_49760" class="clusterblast-orf" id="dummy-7_q27_0_all"  />
<polygon points="497,35 502,30 509,30 509,40 502,40 497,35 " style="fill:#d8bc15; stroke-width:1; stroke:black; " description="&lt;b&gt;LOCUS_49770&lt;/b&gt;&lt;br&gt;hypothetical protein&lt;br&gt;Location: 3866288 - 3866945" locus_tag="LOCUS_49770" class="clusterblast-orf" id="dummy-7_q28_0_all"  />
<polygon points="509,35 514,30 518,30 518,40 514,40 509,35 " style="fill:#15d885; stroke-width:1; stroke:black; " description="&lt;b&gt;LOCUS_49780&lt;/b&gt;&lt;br&gt;hypothetical protein&lt;br&gt;Location: 3866982 - 3867477" locus_tag="LOCUS_49780" class="clusterblast-orf" id="dummy-7_q29_0_all"  />
<polygon points="519,35 523,30 523,40 519,35 " style="fill:#15d885; stroke-width:1; stroke:black; " description="&lt;b&gt;LOCUS_49790&lt;/b&gt;&lt;br&gt;hypothetical protein&lt;br&gt;Location: 3867508 - 3867769" locus_tag="LOCUS_49790" class="clusterblast-orf" id="dummy-7_q30_0_all"  />
<polygon points="526,35 531,30 534,30 534,40 531,40 526,35 " style="fill:#4d15d8; stroke-width:1; stroke:black; " description="&lt;b&gt;LOCUS_49800&lt;/b&gt;&lt;br&gt;hypothetical protein&lt;br&gt;Location: 3867901 - 3868336" locus_tag="LOCUS_49800" class="clusterblast-orf" id="dummy-7_q31_0_all"  />
<polygon points="534,35 539,30 540,30 540,40 539,40 534,35 " style="fill:#4d15d8; stroke-width:1; stroke:black; " description="&lt;b&gt;LOCUS_49810&lt;/b&gt;&lt;br&gt;hypothetical protein&lt;br&gt;Location: 3868363 - 3868714" locus_tag="LOCUS_49810" class="clusterblast-orf" id="dummy-7_q32_0_all"  />
<polygon points="547,40 551,35 547,30 547,40 " style="fill:white; stroke-width:1; stroke:black; " description="&lt;b&gt;LOCUS_49820&lt;/b&gt;&lt;br&gt;hypothetical protein&lt;br&gt;Location: 3869070 - 3869301" locus_tag="LOCUS_49820" class="clusterblast-orf" id="dummy-7_q33_0_all"  />
<polygon points="551,40 553,40 558,35 553,30 551,30 551,40 " style="fill:white; stroke-width:1; stroke:black; " description="&lt;b&gt;LOCUS_49830&lt;/b&gt;&lt;br&gt;hypothetical protein&lt;br&gt;Location: 3869313 - 3869679" locus_tag="LOCUS_49830" class="clusterblast-orf" id="dummy-7_q34_0_all"  />
<polygon points="560,40 560,40 565,35 560,30 560,30 560,40 " style="fill:white; stroke-width:1; stroke:black; " description="&lt;b&gt;LOCUS_49840&lt;/b&gt;&lt;br&gt;hypothetical protein&lt;br&gt;Location: 3869819 - 3870065" locus_tag="LOCUS_49840" class="clusterblast-orf" id="dummy-7_q35_0_all"  />
<polygon points="565,40 578,40 583,35 578,30 565,30 565,40 " style="fill:white; stroke-width:1; stroke:black; " description="&lt;b&gt;LOCUS_49850&lt;/b&gt;&lt;br&gt;ferrichrome ABC transporter permease&lt;br&gt;Location: 3870080 - 3871088" locus_tag="LOCUS_49850" class="clusterblast-orf" id="dummy-7_q36_0_all"  />
<polygon points="583,40 596,40 601,35 596,30 583,30 583,40 " style="fill:white; stroke-width:1; stroke:black; " description="&lt;b&gt;LOCUS_49860&lt;/b&gt;&lt;br&gt;iron ABC transporter permease&lt;br&gt;Location: 3871080 - 3872103" locus_tag="LOCUS_49860" class="clusterblast-orf" id="dummy-7_q37_0_all"  />
<polygon points="602,40 611,40 616,35 611,30 602,30 602,40 " style="fill:white; stroke-width:1; stroke:black; " description="&lt;b&gt;LOCUS_49870&lt;/b&gt;&lt;br&gt;ABC transporter ATP-binding protein&lt;br&gt;Location: 3872118 - 3872940" locus_tag="LOCUS_49870" class="clusterblast-orf" id="dummy-7_q38_0_all"  />
<polygon points="617,40 626,40 631,35 626,30 617,30 617,40 " style="fill:white; stroke-width:1; stroke:black; " description="&lt;b&gt;LOCUS_49880&lt;/b&gt;&lt;br&gt;IroE protein&lt;br&gt;Location: 3872954 - 3873740" locus_tag="LOCUS_49880" class="clusterblast-orf" id="dummy-7_q39_0_all"  />
<polygon points="641,35 646,30 647,30 647,40 646,40 641,35 " style="fill:white; stroke-width:1; stroke:black; " description="&lt;b&gt;LOCUS_49890&lt;/b&gt;&lt;br&gt;hypothetical protein&lt;br&gt;Location: 3874297 - 3874636" locus_tag="LOCUS_49890" class="clusterblast-orf" id="dummy-7_q40_0_all"  />
<polygon points="648,35 653,30 664,30 664,40 653,40 648,35 " style="fill:white; stroke-width:1; stroke:black; " description="&lt;b&gt;LOCUS_49900&lt;/b&gt;&lt;br&gt;hypothetical protein&lt;br&gt;Location: 3874671 - 3875592" locus_tag="LOCUS_49900" class="clusterblast-orf" id="dummy-7_q41_0_all"  />
<polygon points="671,40 675,35 671,30 671,40 " style="fill:white; stroke-width:1; stroke:black; " description="&lt;b&gt;LOCUS_49910&lt;/b&gt;&lt;br&gt;hypothetical protein&lt;br&gt;Location: 3875957 - 3876173" locus_tag="LOCUS_49910" class="clusterblast-orf" id="dummy-7_q42_0_all"  />
<polygon points="674,40 685,40 690,35 685,30 674,30 674,40 " style="fill:white; stroke-width:1; stroke:black; " description="&lt;b&gt;LOCUS_49920&lt;/b&gt;&lt;br&gt;hypothetical protein&lt;br&gt;Location: 3876144 - 3877029" locus_tag="LOCUS_49920" class="clusterblast-orf" id="dummy-7_q43_0_all"  />
<polygon points="695,35 699,30 699,40 695,35 " style="fill:white; stroke-width:1; stroke:black; " description="&lt;b&gt;LOCUS_49930&lt;/b&gt;&lt;br&gt;hypothetical protein&lt;br&gt;Location: 3877289 - 3877520" locus_tag="LOCUS_49930" class="clusterblast-orf" id="dummy-7_q44_0_all"  />
<polygon points="700,35 705,30 707,30 707,40 705,40 700,35 " style="fill:white; stroke-width:1; stroke:black; " description="&lt;b&gt;LOCUS_49940&lt;/b&gt;&lt;br&gt;hypothetical protein&lt;br&gt;Location: 3877558 - 3877981" locus_tag="LOCUS_49940" class="clusterblast-orf" id="dummy-7_q45_0_all"  />
<polygon points="715,35 718,30 718,40 715,35 " style="fill:white; stroke-width:1; stroke:black; " description="&lt;b&gt;LOCUS_49950&lt;/b&gt;&lt;br&gt;hypothetical protein&lt;br&gt;Location: 3878424 - 3878589" locus_tag="LOCUS_49950" class="clusterblast-orf" id="dummy-7_q46_0_all"  />
<polygon points="720,35 725,30 737,30 737,40 725,40 720,35 " style="fill:white; stroke-width:1; stroke:black; " description="&lt;b&gt;LOCUS_49960&lt;/b&gt;&lt;br&gt;membrane protein&lt;br&gt;Location: 3878679 - 3879663" locus_tag="LOCUS_49960" class="clusterblast-orf" id="dummy-7_q47_0_all"  />
<polygon points="740,35 745,30 751,30 751,40 745,40 740,35 " style="fill:white; stroke-width:1; stroke:black; " description="&lt;b&gt;LOCUS_49970&lt;/b&gt;&lt;br&gt;GntR family transcriptional regulator&lt;br&gt;Location: 3879791 - 3880427" locus_tag="LOCUS_49970" class="clusterblast-orf" id="dummy-7_q48_0_all"  />
<polygon points="754,35 759,30 768,30 768,40 759,40 754,35 " style="fill:white; stroke-width:1; stroke:black; " description="&lt;b&gt;LOCUS_49980&lt;/b&gt;&lt;br&gt;blue-light photoreceptor&lt;br&gt;Location: 3880574 - 3881357" locus_tag="LOCUS_49980" class="clusterblast-orf" id="dummy-7_q49_0_all"  />
<polygon points="771,35 776,30 780,30 780,40 776,40 771,35 " style="fill:white; stroke-width:1; stroke:black; " description="&lt;b&gt;LOCUS_49990&lt;/b&gt;&lt;br&gt;membrane protein&lt;br&gt;Location: 3881519 - 3882008" locus_tag="LOCUS_49990" class="clusterblast-orf" id="dummy-7_q50_0_all"  />
</g>
<g label="BGC0000401" description="BGC0000401_c1: paenibactin (100% of genes show similarity), NRP" class="clusterblast-cluster"  >
<text x="5" y="70" class="clusterblast-acc"  >
<a xlink:href="https://mibig.secondarymetabolites.org/go/BGC0000401/1" target="_blank">BGC0000401</a>:                                                                      paenibactin (100% of genes show similarity), NRP</text>
<line x1="10" y1="85" x2="778.0" y2="85" style="stroke-width:1; stroke:grey; "  />
</g>
<g id="a7_000"  >
<polygon points="274,85 279,80 402,80 402,90 279,90 274,85 " style="fill:#4dd815; stroke-width:1; stroke:black; " description="&lt;b&gt;AEI70245.1&lt;/b&gt;&lt;br&gt;nonribosomal peptide synthetase NRPS&lt;br&gt;Location: 12882 - 5773&lt;br&gt;&lt;br&gt;&lt;b&gt;BlastP hit with LOCUS_49670&lt;/b&gt;&lt;br&gt;Percentage identity: 64&lt;br&gt;Percentage coverage: 98&lt;br&gt;BLAST bit score: 270&lt;br&gt;E-value: 2.1e-72&lt;br&gt;&lt;br&gt;&lt;b&gt;BlastP hit with LOCUS_49680&lt;/b&gt;&lt;br&gt;Percentage identity: 69&lt;br&gt;Percentage coverage: 99&lt;br&gt;BLAST bit score: 702&lt;br&gt;E-value: 5.4e-202&lt;br&gt;&lt;br&gt;&lt;b&gt;BlastP hit with LOCUS_49690&lt;/b&gt;&lt;br&gt;Percentage identity: 54&lt;br&gt;Percentage coverage: 99&lt;br&gt;BLAST bit score: 1407&lt;br&gt;E-value: 0.0&lt;br&gt;&lt;br&gt;&lt;b&gt;BlastP hit with LOCUS_49700&lt;/b&gt;&lt;br&gt;Percentage identity: 47&lt;br&gt;Percentage coverage: 90&lt;br&gt;BLAST bit score: 290&lt;br&gt;E-value: 2.7e-78" locus_tag="AEI70245.1" class="clusterblast-orf" id="dummy-7_h7_2_0"  />
</g>
<g id="a7_001"  >
<polygon points="403,85 408,80 421,80 421,90 408,90 403,85 " style="fill:#1585d8; stroke-width:1; stroke:black; " description="&lt;b&gt;AEI70244.1&lt;/b&gt;&lt;br&gt;isochorismatase&lt;br&gt;Location: 5671 - 4709&lt;br&gt;&lt;br&gt;&lt;b&gt;BlastP hit with LOCUS_49720&lt;/b&gt;&lt;br&gt;Percentage identity: 59&lt;br&gt;Percentage coverage: 73&lt;br&gt;BLAST bit score: 72&lt;br&gt;E-value: 3.8e-13&lt;br&gt;&lt;br&gt;&lt;b&gt;BlastP hit with LOCUS_49730&lt;/b&gt;&lt;br&gt;Percentage identity: 61&lt;br&gt;Percentage coverage: 100&lt;br&gt;BLAST bit score: 124&lt;br&gt;E-value: 6.7e-29" locus_tag="AEI70244.1" class="clusterblast-orf" id="dummy-7_h7_2_1"  />
</g>
<g id="a7_002"  >
<polygon points="421,85 426,80 450,80 450,90 426,90 421,85 " style="fill:#d815bc; stroke-width:1; stroke:black; " description="&lt;b&gt;AEI70243.1&lt;/b&gt;&lt;br&gt;2,3-dihydroxybenzoate-AMP ligase&lt;br&gt;Location: 4687 - 3053&lt;br&gt;&lt;br&gt;&lt;b&gt;BlastP hit with LOCUS_49740&lt;/b&gt;&lt;br&gt;Percentage identity: 69&lt;br&gt;Percentage coverage: 98&lt;br&gt;BLAST bit score: 649&lt;br&gt;E-value: 2.9e-186" locus_tag="AEI70243.1" class="clusterblast-orf" id="dummy-7_h7_2_2"  />
</g>
<g id="a7_003"  >
<polygon points="450,85 455,80 473,80 473,90 455,90 450,85 " style="fill:#d8bc15; stroke-width:1; stroke:black; " description="&lt;b&gt;AEI70242.1&lt;/b&gt;&lt;br&gt;isochorismate synthase&lt;br&gt;Location: 3056 - 1788&lt;br&gt;&lt;br&gt;&lt;b&gt;BlastP hit with LOCUS_49760&lt;/b&gt;&lt;br&gt;Percentage identity: 67&lt;br&gt;Percentage coverage: 95&lt;br&gt;BLAST bit score: 265&lt;br&gt;E-value: 8.6e-71" locus_tag="AEI70242.1" class="clusterblast-orf" id="dummy-7_h7_2_3"  />
</g>
<g id="a7_004"  >
<polygon points="474,85 479,80 488,80 488,90 479,90 474,85 " style="fill:#15d885; stroke-width:1; stroke:black; " description="&lt;b&gt;AEI70241.1&lt;/b&gt;&lt;br&gt;2,3-dihydro-2,3-dihydroxybenzoate dehydrogenase&lt;br&gt;Location: 1767 - 982&lt;br&gt;&lt;br&gt;&lt;b&gt;BlastP hit with LOCUS_49780&lt;/b&gt;&lt;br&gt;Percentage identity: 64&lt;br&gt;Percentage coverage: 99&lt;br&gt;BLAST bit score: 215&lt;br&gt;E-value: 6.6e-56&lt;br&gt;&lt;br&gt;&lt;b&gt;BlastP hit with LOCUS_49790&lt;/b&gt;&lt;br&gt;Percentage identity: 46&lt;br&gt;Percentage coverage: 92&lt;br&gt;BLAST bit score: 68&lt;br&gt;E-value: 6.8e-12" locus_tag="AEI70241.1" class="clusterblast-orf" id="dummy-7_h7_2_4"  />
</g>
<g id="a7_005"  >
<polygon points="489,85 494,80 505,80 505,90 494,90 489,85 " style="fill:#4d15d8; stroke-width:1; stroke:black; " description="&lt;b&gt;AEI70240.1&lt;/b&gt;&lt;br&gt;paebacillibactin esterase&lt;br&gt;Location: 915 - 1&lt;br&gt;&lt;br&gt;&lt;b&gt;BlastP hit with LOCUS_49800&lt;/b&gt;&lt;br&gt;Percentage identity: 50&lt;br&gt;Percentage coverage: 100&lt;br&gt;BLAST bit score: 145&lt;br&gt;E-value: 5.6e-35&lt;br&gt;&lt;br&gt;&lt;b&gt;BlastP hit with LOCUS_49810&lt;/b&gt;&lt;br&gt;Percentage identity: 59&lt;br&gt;Percentage coverage: 89&lt;br&gt;BLAST bit score: 123&lt;br&gt;E-value: 3.1e-28" locus_tag="AEI70240.1" class="clusterblast-orf" id="dummy-7_h7_2_5"  />
</g>
</svg>
