<svg xmlns="http://www.w3.org/2000/svg" xmlns:xlink="http://www.w3.org/1999/xlink" version="1.1" x="0" y="0" height="230" width="800" viewBox="0 0 800 230" preserveAspectRatio="none"  >
<g label="Query sequence" class="clusterblast-cluster"  >
<text x="5" y="20" class="clusterblast-acc"  >
Query sequence</text>
<line x1="10" y1="35" x2="778.0" y2="35" style="stroke-width:1; stroke:grey; "  />
<polygon points="186,35 188,30 188,40 186,35 " style="fill:white; stroke-width:1; stroke:black; " description="&lt;b&gt;LOCUS_49490&lt;/b&gt;&lt;br&gt;hypothetical protein&lt;br&gt;Location: 3838682 - 3838976" locus_tag="LOCUS_49490" class="clusterblast-orf" id="dummy-7_q0_0_all"  />
<polygon points="192,40 192,40 197,35 192,30 192,30 192,40 " style="fill:white; stroke-width:1; stroke:black; " description="&lt;b&gt;LOCUS_49500&lt;/b&gt;&lt;br&gt;hypothetical protein&lt;br&gt;Location: 3839403 - 3839901" locus_tag="LOCUS_49500" class="clusterblast-orf" id="dummy-7_q1_0_all"  />
<polygon points="198,35 203,30 209,30 209,40 203,40 198,35 " style="fill:white; stroke-width:1; stroke:black; " description="&lt;b&gt;LOCUS_49510&lt;/b&gt;&lt;br&gt;chloramphenicol resistance protein&lt;br&gt;Location: 3839946 - 3841146" locus_tag="LOCUS_49510" class="clusterblast-orf" id="dummy-7_q2_0_all"  />
<polygon points="212,40 215,35 212,30 212,40 " style="fill:white; stroke-width:1; stroke:black; " description="&lt;b&gt;LOCUS_49520&lt;/b&gt;&lt;br&gt;transcriptional regulator&lt;br&gt;Location: 3841459 - 3841807" locus_tag="LOCUS_49520" class="clusterblast-orf" id="dummy-7_q3_0_all"  />
<polygon points="215,40 217,35 215,30 215,40 " style="fill:white; stroke-width:1; stroke:black; " description="&lt;b&gt;LOCUS_49530&lt;/b&gt;&lt;br&gt;hypothetical protein&lt;br&gt;Location: 3841842 - 3842040" locus_tag="LOCUS_49530" class="clusterblast-orf" id="dummy-7_q4_0_all"  />
<polygon points="219,35 223,30 223,40 219,35 " style="fill:white; stroke-width:1; stroke:black; " description="&lt;b&gt;LOCUS_49540&lt;/b&gt;&lt;br&gt;hypothetical protein&lt;br&gt;Location: 3842199 - 3842640" locus_tag="LOCUS_49540" class="clusterblast-orf" id="dummy-7_q5_0_all"  />
<polygon points="223,35 228,30 232,30 232,40 228,40 223,35 " style="fill:white; stroke-width:1; stroke:black; " description="&lt;b&gt;LOCUS_49550&lt;/b&gt;&lt;br&gt;hypothetical protein&lt;br&gt;Location: 3842644 - 3843562" locus_tag="LOCUS_49550" class="clusterblast-orf" id="dummy-7_q6_0_all"  />
<polygon points="238,35 243,30 243,30 243,40 243,40 238,35 " style="fill:white; stroke-width:1; stroke:black; " description="&lt;b&gt;LOCUS_49560&lt;/b&gt;&lt;br&gt;hypothetical protein&lt;br&gt;Location: 3844231 - 3844741" locus_tag="LOCUS_49560" class="clusterblast-orf" id="dummy-7_q7_0_all"  />
<polygon points="243,35 245,30 245,40 243,35 " style="fill:white; stroke-width:1; stroke:black; " description="&lt;b&gt;LOCUS_49570&lt;/b&gt;&lt;br&gt;hypothetical protein&lt;br&gt;Location: 3844727 - 3845006" locus_tag="LOCUS_49570" class="clusterblast-orf" id="dummy-7_q8_0_all"  />
<polygon points="245,35 250,30 266,30 266,40 250,40 245,35 " style="fill:white; stroke-width:1; stroke:black; " description="&lt;b&gt;LOCUS_49580&lt;/b&gt;&lt;br&gt;malate synthase G&lt;br&gt;Location: 3845030 - 3847211" locus_tag="LOCUS_49580" class="clusterblast-orf" id="dummy-7_q9_0_all"  />
<polygon points="266,35 271,30 280,30 280,40 271,40 266,35 " style="fill:white; stroke-width:1; stroke:black; " description="&lt;b&gt;LOCUS_49590&lt;/b&gt;&lt;br&gt;FAD-binding protein&lt;br&gt;Location: 3847232 - 3848699" locus_tag="LOCUS_49590" class="clusterblast-orf" id="dummy-7_q10_0_all"  />
<polygon points="281,35 286,30 292,30 292,40 286,40 281,35 " style="fill:white; stroke-width:1; stroke:black; " description="&lt;b&gt;LOCUS_49600&lt;/b&gt;&lt;br&gt;putative glycolate oxidase iron-sulfur subunit&lt;br&gt;Location: 3848790 - 3849972" locus_tag="LOCUS_49600" class="clusterblast-orf" id="dummy-7_q11_0_all"  />
<polygon points="293,35 298,30 305,30 305,40 298,40 293,35 " style="fill:white; stroke-width:1; stroke:black; " description="&lt;b&gt;LOCUS_49610&lt;/b&gt;&lt;br&gt;glycolate oxidase&lt;br&gt;Location: 3850057 - 3851380" locus_tag="LOCUS_49610" class="clusterblast-orf" id="dummy-7_q12_0_all"  />
<polygon points="306,35 311,30 312,30 312,40 311,40 306,35 " style="fill:white; stroke-width:1; stroke:black; " description="&lt;b&gt;LOCUS_49620&lt;/b&gt;&lt;br&gt;HTH-type transcriptional regulator LutR&lt;br&gt;Location: 3851416 - 3852112" locus_tag="LOCUS_49620" class="clusterblast-orf" id="dummy-7_q13_0_all"  />
<polygon points="314,35 319,30 324,30 324,40 319,40 314,35 " style="fill:white; stroke-width:1; stroke:black; " description="&lt;b&gt;LOCUS_49630&lt;/b&gt;&lt;br&gt;hypothetical protein&lt;br&gt;Location: 3852292 - 3853348" locus_tag="LOCUS_49630" class="clusterblast-orf" id="dummy-7_q14_0_all"  />
<polygon points="325,35 330,30 330,30 330,40 330,40 325,35 " style="fill:white; stroke-width:1; stroke:black; " description="&lt;b&gt;LOCUS_49640&lt;/b&gt;&lt;br&gt;hypothetical protein&lt;br&gt;Location: 3853485 - 3854007" locus_tag="LOCUS_49640" class="clusterblast-orf" id="dummy-7_q15_0_all"  />
<polygon points="332,35 337,30 339,30 339,40 337,40 332,35 " style="fill:white; stroke-width:1; stroke:black; " description="&lt;b&gt;LOCUS_49650&lt;/b&gt;&lt;br&gt;hypothetical protein&lt;br&gt;Location: 3854261 - 3854933" locus_tag="LOCUS_49650" class="clusterblast-orf" id="dummy-7_q16_0_all"  />
<polygon points="341,35 346,30 346,30 346,40 346,40 341,35 " style="fill:#d81515; stroke-width:1; stroke:black; " description="&lt;b&gt;LOCUS_49660&lt;/b&gt;&lt;br&gt;hypothetical protein&lt;br&gt;Location: 3855217 - 3855706" locus_tag="LOCUS_49660" class="clusterblast-orf" id="dummy-7_q17_0_all"  />
<polygon points="348,35 353,30 354,30 354,40 353,40 348,35 " style="fill:#4dd815; stroke-width:1; stroke:black; " description="&lt;b&gt;LOCUS_49670&lt;/b&gt;&lt;br&gt;hypothetical protein&lt;br&gt;Location: 3855962 - 3856574" locus_tag="LOCUS_49670" class="clusterblast-orf" id="dummy-7_q18_0_all"  />
<polygon points="354,35 359,30 368,30 368,40 359,40 354,35 " style="fill:#4dd815; stroke-width:1; stroke:black; " description="&lt;b&gt;LOCUS_49680&lt;/b&gt;&lt;br&gt;hypothetical protein&lt;br&gt;Location: 3856548 - 3858060" locus_tag="LOCUS_49680" class="clusterblast-orf" id="dummy-7_q19_0_all"  />
<polygon points="368,35 373,30 406,30 406,40 373,40 368,35 " style="fill:#4dd815; stroke-width:1; stroke:black; " description="&lt;b&gt;LOCUS_49690&lt;/b&gt;&lt;br&gt;hypothetical protein&lt;br&gt;Location: 3858022 - 3862063" locus_tag="LOCUS_49690" class="clusterblast-orf" id="dummy-7_q20_0_all"  />
<polygon points="406,35 411,30 416,30 416,40 411,40 406,35 " style="fill:#4dd815; stroke-width:1; stroke:black; " description="&lt;b&gt;LOCUS_49700&lt;/b&gt;&lt;br&gt;hypothetical protein&lt;br&gt;Location: 3862052 - 3863120" locus_tag="LOCUS_49700" class="clusterblast-orf" id="dummy-7_q21_0_all"  />
<polygon points="416,35 417,30 417,40 416,35 " style="fill:white; stroke-width:1; stroke:black; " description="&lt;b&gt;LOCUS_49710&lt;/b&gt;&lt;br&gt;hypothetical protein&lt;br&gt;Location: 3863139 - 3863277" locus_tag="LOCUS_49710" class="clusterblast-orf" id="dummy-7_q22_0_all"  />
<polygon points="419,35 421,30 421,40 419,35 " style="fill:#1585d8; stroke-width:1; stroke:black; " description="&lt;b&gt;LOCUS_49720&lt;/b&gt;&lt;br&gt;hypothetical protein&lt;br&gt;Location: 3863423 - 3863636" locus_tag="LOCUS_49720" class="clusterblast-orf" id="dummy-7_q23_0_all"  />
<polygon points="422,35 424,30 424,40 422,35 " style="fill:#1585d8; stroke-width:1; stroke:black; " description="&lt;b&gt;LOCUS_49730&lt;/b&gt;&lt;br&gt;hypothetical protein&lt;br&gt;Location: 3863762 - 3864047" locus_tag="LOCUS_49730" class="clusterblast-orf" id="dummy-7_q24_0_all"  />
<polygon points="425,35 430,30 438,30 438,40 430,40 425,35 " style="fill:#d815bc; stroke-width:1; stroke:black; " description="&lt;b&gt;LOCUS_49740&lt;/b&gt;&lt;br&gt;2,3-dihydroxybenzoate-AMP ligase&lt;br&gt;Location: 3864081 - 3865470" locus_tag="LOCUS_49740" class="clusterblast-orf" id="dummy-7_q25_0_all"  />
<polygon points="438,35 439,30 439,40 438,35 " style="fill:white; stroke-width:1; stroke:black; " description="&lt;b&gt;LOCUS_49750&lt;/b&gt;&lt;br&gt;hypothetical protein&lt;br&gt;Location: 3865477 - 3865618" locus_tag="LOCUS_49750" class="clusterblast-orf" id="dummy-7_q26_0_all"  />
<polygon points="440,35 445,30 446,30 446,40 445,40 440,35 " style="fill:#d8bc15; stroke-width:1; stroke:black; " description="&lt;b&gt;LOCUS_49760&lt;/b&gt;&lt;br&gt;hypothetical protein&lt;br&gt;Location: 3865708 - 3866296" locus_tag="LOCUS_49760" class="clusterblast-orf" id="dummy-7_q27_0_all"  />
<polygon points="446,35 451,30 452,30 452,40 451,40 446,35 " style="fill:#d8bc15; stroke-width:1; stroke:black; " description="&lt;b&gt;LOCUS_49770&lt;/b&gt;&lt;br&gt;hypothetical protein&lt;br&gt;Location: 3866288 - 3866945" locus_tag="LOCUS_49770" class="clusterblast-orf" id="dummy-7_q28_0_all"  />
<polygon points="452,35 457,30 457,30 457,40 457,40 452,35 " style="fill:#15d885; stroke-width:1; stroke:black; " description="&lt;b&gt;LOCUS_49780&lt;/b&gt;&lt;br&gt;hypothetical protein&lt;br&gt;Location: 3866982 - 3867477" locus_tag="LOCUS_49780" class="clusterblast-orf" id="dummy-7_q29_0_all"  />
<polygon points="457,35 459,30 459,40 457,35 " style="fill:#15d885; stroke-width:1; stroke:black; " description="&lt;b&gt;LOCUS_49790&lt;/b&gt;&lt;br&gt;hypothetical protein&lt;br&gt;Location: 3867508 - 3867769" locus_tag="LOCUS_49790" class="clusterblast-orf" id="dummy-7_q30_0_all"  />
<polygon points="461,35 465,30 465,40 461,35 " style="fill:#4d15d8; stroke-width:1; stroke:black; " description="&lt;b&gt;LOCUS_49800&lt;/b&gt;&lt;br&gt;hypothetical protein&lt;br&gt;Location: 3867901 - 3868336" locus_tag="LOCUS_49800" class="clusterblast-orf" id="dummy-7_q31_0_all"  />
<polygon points="465,35 468,30 468,40 465,35 " style="fill:#4d15d8; stroke-width:1; stroke:black; " description="&lt;b&gt;LOCUS_49810&lt;/b&gt;&lt;br&gt;hypothetical protein&lt;br&gt;Location: 3868363 - 3868714" locus_tag="LOCUS_49810" class="clusterblast-orf" id="dummy-7_q32_0_all"  />
<polygon points="472,40 474,35 472,30 472,40 " style="fill:white; stroke-width:1; stroke:black; " description="&lt;b&gt;LOCUS_49820&lt;/b&gt;&lt;br&gt;hypothetical protein&lt;br&gt;Location: 3869070 - 3869301" locus_tag="LOCUS_49820" class="clusterblast-orf" id="dummy-7_q33_0_all"  />
<polygon points="474,40 477,35 474,30 474,40 " style="fill:white; stroke-width:1; stroke:black; " description="&lt;b&gt;LOCUS_49830&lt;/b&gt;&lt;br&gt;hypothetical protein&lt;br&gt;Location: 3869313 - 3869679" locus_tag="LOCUS_49830" class="clusterblast-orf" id="dummy-7_q34_0_all"  />
<polygon points="479,40 481,35 479,30 479,40 " style="fill:white; stroke-width:1; stroke:black; " description="&lt;b&gt;LOCUS_49840&lt;/b&gt;&lt;br&gt;hypothetical protein&lt;br&gt;Location: 3869819 - 3870065" locus_tag="LOCUS_49840" class="clusterblast-orf" id="dummy-7_q35_0_all"  />
<polygon points="481,40 486,40 491,35 486,30 481,30 481,40 " style="fill:white; stroke-width:1; stroke:black; " description="&lt;b&gt;LOCUS_49850&lt;/b&gt;&lt;br&gt;ferrichrome ABC transporter permease&lt;br&gt;Location: 3870080 - 3871088" locus_tag="LOCUS_49850" class="clusterblast-orf" id="dummy-7_q36_0_all"  />
<polygon points="491,40 495,40 500,35 495,30 491,30 491,40 " style="fill:white; stroke-width:1; stroke:black; " description="&lt;b&gt;LOCUS_49860&lt;/b&gt;&lt;br&gt;iron ABC transporter permease&lt;br&gt;Location: 3871080 - 3872103" locus_tag="LOCUS_49860" class="clusterblast-orf" id="dummy-7_q37_0_all"  />
<polygon points="500,40 503,40 508,35 503,30 500,30 500,40 " style="fill:white; stroke-width:1; stroke:black; " description="&lt;b&gt;LOCUS_49870&lt;/b&gt;&lt;br&gt;ABC transporter ATP-binding protein&lt;br&gt;Location: 3872118 - 3872940" locus_tag="LOCUS_49870" class="clusterblast-orf" id="dummy-7_q38_0_all"  />
<polygon points="508,40 511,40 516,35 511,30 508,30 508,40 " style="fill:white; stroke-width:1; stroke:black; " description="&lt;b&gt;LOCUS_49880&lt;/b&gt;&lt;br&gt;IroE protein&lt;br&gt;Location: 3872954 - 3873740" locus_tag="LOCUS_49880" class="clusterblast-orf" id="dummy-7_q39_0_all"  />
<polygon points="521,35 524,30 524,40 521,35 " style="fill:white; stroke-width:1; stroke:black; " description="&lt;b&gt;LOCUS_49890&lt;/b&gt;&lt;br&gt;hypothetical protein&lt;br&gt;Location: 3874297 - 3874636" locus_tag="LOCUS_49890" class="clusterblast-orf" id="dummy-7_q40_0_all"  />
<polygon points="524,35 529,30 533,30 533,40 529,40 524,35 " style="fill:white; stroke-width:1; stroke:black; " description="&lt;b&gt;LOCUS_49900&lt;/b&gt;&lt;br&gt;hypothetical protein&lt;br&gt;Location: 3874671 - 3875592" locus_tag="LOCUS_49900" class="clusterblast-orf" id="dummy-7_q41_0_all"  />
<polygon points="537,40 539,35 537,30 537,40 " style="fill:white; stroke-width:1; stroke:black; " description="&lt;b&gt;LOCUS_49910&lt;/b&gt;&lt;br&gt;hypothetical protein&lt;br&gt;Location: 3875957 - 3876173" locus_tag="LOCUS_49910" class="clusterblast-orf" id="dummy-7_q42_0_all"  />
<polygon points="538,40 542,40 547,35 542,30 538,30 538,40 " style="fill:white; stroke-width:1; stroke:black; " description="&lt;b&gt;LOCUS_49920&lt;/b&gt;&lt;br&gt;hypothetical protein&lt;br&gt;Location: 3876144 - 3877029" locus_tag="LOCUS_49920" class="clusterblast-orf" id="dummy-7_q43_0_all"  />
<polygon points="549,35 551,30 551,40 549,35 " style="fill:white; stroke-width:1; stroke:black; " description="&lt;b&gt;LOCUS_49930&lt;/b&gt;&lt;br&gt;hypothetical protein&lt;br&gt;Location: 3877289 - 3877520" locus_tag="LOCUS_49930" class="clusterblast-orf" id="dummy-7_q44_0_all"  />
<polygon points="552,35 556,30 556,40 552,35 " style="fill:white; stroke-width:1; stroke:black; " description="&lt;b&gt;LOCUS_49940&lt;/b&gt;&lt;br&gt;hypothetical protein&lt;br&gt;Location: 3877558 - 3877981" locus_tag="LOCUS_49940" class="clusterblast-orf" id="dummy-7_q45_0_all"  />
<polygon points="560,35 561,30 561,40 560,35 " style="fill:white; stroke-width:1; stroke:black; " description="&lt;b&gt;LOCUS_49950&lt;/b&gt;&lt;br&gt;hypothetical protein&lt;br&gt;Location: 3878424 - 3878589" locus_tag="LOCUS_49950" class="clusterblast-orf" id="dummy-7_q46_0_all"  />
<polygon points="562,35 567,30 571,30 571,40 567,40 562,35 " style="fill:white; stroke-width:1; stroke:black; " description="&lt;b&gt;LOCUS_49960&lt;/b&gt;&lt;br&gt;membrane protein&lt;br&gt;Location: 3878679 - 3879663" locus_tag="LOCUS_49960" class="clusterblast-orf" id="dummy-7_q47_0_all"  />
<polygon points="573,35 578,30 579,30 579,40 578,40 573,35 " style="fill:white; stroke-width:1; stroke:black; " description="&lt;b&gt;LOCUS_49970&lt;/b&gt;&lt;br&gt;GntR family transcriptional regulator&lt;br&gt;Location: 3879791 - 3880427" locus_tag="LOCUS_49970" class="clusterblast-orf" id="dummy-7_q48_0_all"  />
<polygon points="580,35 585,30 587,30 587,40 585,40 580,35 " style="fill:white; stroke-width:1; stroke:black; " description="&lt;b&gt;LOCUS_49980&lt;/b&gt;&lt;br&gt;blue-light photoreceptor&lt;br&gt;Location: 3880574 - 3881357" locus_tag="LOCUS_49980" class="clusterblast-orf" id="dummy-7_q49_0_all"  />
<polygon points="589,35 593,30 593,40 589,35 " style="fill:white; stroke-width:1; stroke:black; " description="&lt;b&gt;LOCUS_49990&lt;/b&gt;&lt;br&gt;membrane protein&lt;br&gt;Location: 3881519 - 3882008" locus_tag="LOCUS_49990" class="clusterblast-orf" id="dummy-7_q50_0_all"  />
</g>
<g label="BGC0000315" description="BGC0000315_c1: CDA1b / CDA2a / CDA2b / CDA3a / CDA3b / CDA4a / CDA4b (7% of genes show similarity), NRP:Ca+-dependent lipopeptide" class="clusterblast-cluster"  >
<text x="5" y="70" class="clusterblast-acc"  >
<a xlink:href="https://mibig.secondarymetabolites.org/go/BGC0000315/1" target="_blank">BGC0000315</a>:                            CDA1b / CDA2a / CDA2b / CDA3a / CDA3b / CDA4a / CDA4b (7% of genes show similarity), NRP:Ca+-dependent lipopeptide</text>
<line x1="10" y1="85" x2="778.0" y2="85" style="stroke-width:1; stroke:grey; "  />
</g>
<g id="a7_000"  >
<polygon points="0,90 2,85 0,80 0,90 " style="fill:white; stroke-width:1; stroke:black; " description="&lt;b&gt;CAB38893.1&lt;/b&gt;&lt;br&gt;acyl carrier protein&lt;br&gt;Location: 82872 - 82627" locus_tag="CAB38893.1" class="clusterblast-orf" id="dummy-7_h7_5_0"  />
</g>
<g id="a7_001"  >
<polygon points="2,90 8,90 13,85 8,80 2,80 2,90 " style="fill:white; stroke-width:1; stroke:black; " description="&lt;b&gt;CAB38892.1&lt;/b&gt;&lt;br&gt;3-Oxoacyl-[acyl carrier protein] synthase II (fabF3)&lt;br&gt;Location: 82630 - 81410" locus_tag="CAB38892.1" class="clusterblast-orf" id="dummy-7_h7_5_1"  />
</g>
<g id="a7_002"  >
<polygon points="14,90 26,90 31,85 26,80 14,80 14,90 " style="fill:white; stroke-width:1; stroke:black; " description="&lt;b&gt;CAB38891.1&lt;/b&gt;&lt;br&gt;Hexanoyl-S-ACP oxidase/epoxidase (hxcO)&lt;br&gt;Location: 81360 - 79558" locus_tag="CAB38891.1" class="clusterblast-orf" id="dummy-7_h7_5_2"  />
</g>
<g id="a7_003"  >
<polygon points="31,90 35,90 40,85 35,80 31,80 31,90 " style="fill:white; stroke-width:1; stroke:black; " description="&lt;b&gt;CAB38890.1&lt;/b&gt;&lt;br&gt;3-Oxoacyl-[acyl carrier protein] synthase III (fabH4)&lt;br&gt;Location: 79561 - 78569" locus_tag="CAB38890.1" class="clusterblast-orf" id="dummy-7_h7_5_3"  />
</g>
<g id="a7_004"  >
<polygon points="40,90 47,90 52,85 47,80 40,80 40,90 " style="fill:white; stroke-width:1; stroke:black; " description="&lt;b&gt;CAB38889.1&lt;/b&gt;&lt;br&gt;Hexenoyl-S-ACP Monooxygenase (hcmO)&lt;br&gt;Location: 78522 - 77260" locus_tag="CAB38889.1" class="clusterblast-orf" id="dummy-7_h7_5_4"  />
</g>
<g id="a7_005"  >
<polygon points="53,90 55,90 60,85 55,80 53,80 53,90 " style="fill:white; stroke-width:1; stroke:black; " description="&lt;b&gt;CAB38888.1&lt;/b&gt;&lt;br&gt;putative secreted protein&lt;br&gt;Location: 77192 - 76395" locus_tag="CAB38888.1" class="clusterblast-orf" id="dummy-7_h7_5_5"  />
</g>
<g id="a7_006"  >
<polygon points="61,90 67,90 72,85 67,80 61,80 61,90 " style="fill:white; stroke-width:1; stroke:black; " description="&lt;b&gt;CAB38887.1&lt;/b&gt;&lt;br&gt;putative myo-inositol phosphate synthase&lt;br&gt;Location: 76345 - 75179" locus_tag="CAB38887.1" class="clusterblast-orf" id="dummy-7_h7_5_6"  />
</g>
<g id="a7_007"  >
<polygon points="72,90 75,90 80,85 75,80 72,80 72,90 " style="fill:white; stroke-width:1; stroke:black; " description="&lt;b&gt;CAB38886.1&lt;/b&gt;&lt;br&gt;puitative transferase&lt;br&gt;Location: 75182 - 74307" locus_tag="CAB38886.1" class="clusterblast-orf" id="dummy-7_h7_5_7"  />
</g>
<g id="a7_008"  >
<polygon points="80,90 83,90 88,85 83,80 80,80 80,90 " style="fill:white; stroke-width:1; stroke:black; " description="&lt;b&gt;CAB38885.1&lt;/b&gt;&lt;br&gt;putaive isomerase&lt;br&gt;Location: 74310 - 73438" locus_tag="CAB38885.1" class="clusterblast-orf" id="dummy-7_h7_5_8"  />
</g>
<g id="a7_009"  >
<polygon points="88,90 90,90 95,85 90,80 88,80 88,90 " style="fill:white; stroke-width:1; stroke:black; " description="&lt;b&gt;CAB38884.1&lt;/b&gt;&lt;br&gt;conserved hypothetical protein&lt;br&gt;Location: 73441 - 72731" locus_tag="CAB38884.1" class="clusterblast-orf" id="dummy-7_h7_5_9"  />
</g>
<g id="a7_0010"  >
<polygon points="95,90 98,90 103,85 98,80 95,80 95,90 " style="fill:white; stroke-width:1; stroke:black; " description="&lt;b&gt;CAB38883.1&lt;/b&gt;&lt;br&gt;conserved hypothetical protein&lt;br&gt;Location: 72734 - 71865" locus_tag="CAB38883.1" class="clusterblast-orf" id="dummy-7_h7_5_10"  />
</g>
<g id="a7_0011"  >
<polygon points="103,90 109,90 114,85 109,80 103,80 103,90 " style="fill:white; stroke-width:1; stroke:black; " description="&lt;b&gt;CAB38882.1&lt;/b&gt;&lt;br&gt;hypothetical protein&lt;br&gt;Location: 71858 - 70698" locus_tag="CAB38882.1" class="clusterblast-orf" id="dummy-7_h7_5_11"  />
</g>
<g id="a7_0012"  >
<polygon points="114,90 122,90 127,85 122,80 114,80 114,90 " style="fill:white; stroke-width:1; stroke:black; " description="&lt;b&gt;CAB38881.1&lt;/b&gt;&lt;br&gt;conserved hypothetical protein&lt;br&gt;Location: 70686 - 69298" locus_tag="CAB38881.1" class="clusterblast-orf" id="dummy-7_h7_5_12"  />
</g>
<g id="a7_0013"  >
<polygon points="128,90 132,90 137,85 132,80 128,80 128,90 " style="fill:white; stroke-width:1; stroke:black; " description="&lt;b&gt;CAB38880.1&lt;/b&gt;&lt;br&gt;Asparagine oxygenase (AsnO)&lt;br&gt;Location: 69240 - 68239" locus_tag="CAB38880.1" class="clusterblast-orf" id="dummy-7_h7_5_13"  />
</g>
<g id="a7_0014"  >
<polygon points="138,90 150,90 155,85 150,80 138,80 138,90 " style="fill:white; stroke-width:1; stroke:black; " description="&lt;b&gt;CAB38879.1&lt;/b&gt;&lt;br&gt;putative ABC transporter&lt;br&gt;Location: 68199 - 66352" locus_tag="CAB38879.1" class="clusterblast-orf" id="dummy-7_h7_5_14"  />
</g>
<g id="a7_0015"  >
<polygon points="156,85 161,80 164,80 164,90 161,90 156,85 " style="fill:white; stroke-width:1; stroke:black; " description="&lt;b&gt;CAB38878.1&lt;/b&gt;&lt;br&gt;3-hydroxyasparagine phosphotransferase (HasP)&lt;br&gt;Location: 66276 - 65374" locus_tag="CAB38878.1" class="clusterblast-orf" id="dummy-7_h7_5_15"  />
</g>
<g id="a7_0016"  >
<polygon points="164,85 169,80 172,80 172,90 169,90 164,85 " style="fill:white; stroke-width:1; stroke:black; " description="&lt;b&gt;CAB38877.1&lt;/b&gt;&lt;br&gt;putative type II thioesterase&lt;br&gt;Location: 65362 - 64544" locus_tag="CAB38877.1" class="clusterblast-orf" id="dummy-7_h7_5_16"  />
</g>
<g id="a7_0017"  >
<polygon points="172,85 177,80 240,80 240,90 177,90 172,85 " style="fill:#4dd815; stroke-width:1; stroke:black; " description="&lt;b&gt;CAD55498.1&lt;/b&gt;&lt;br&gt;CDA peptide synthetase III (CdaPs3)&lt;br&gt;Location: 64540 - 57287&lt;br&gt;&lt;br&gt;&lt;b&gt;BlastP hit with LOCUS_49680&lt;/b&gt;&lt;br&gt;Percentage identity: 48&lt;br&gt;Percentage coverage: 93&lt;br&gt;BLAST bit score: 389&lt;br&gt;E-value: 6e-108" locus_tag="CAD55498.1" class="clusterblast-orf" id="dummy-7_h7_5_17"  />
</g>
<g id="a7_0018"  >
<polygon points="240,85 245,80 344,80 344,90 245,90 240,85 " style="fill:#4dd815; stroke-width:1; stroke:black; " description="&lt;b&gt;CAB38517.1&lt;/b&gt;&lt;br&gt;CDA peptide synthetase II (CdaPs2)&lt;br&gt;Location: 57287 - 46275&lt;br&gt;&lt;br&gt;&lt;b&gt;BlastP hit with LOCUS_49690&lt;/b&gt;&lt;br&gt;Percentage identity: 47&lt;br&gt;Percentage coverage: 95&lt;br&gt;BLAST bit score: 1119&lt;br&gt;E-value: 0.0" locus_tag="CAB38517.1" class="clusterblast-orf" id="dummy-7_h7_5_18"  />
</g>
<g id="a7_0019"  >
<polygon points="344,85 349,80 555,80 555,90 349,90 344,85 " style="fill:#4dd815; stroke-width:1; stroke:black; " description="&lt;b&gt;CAB38518.1&lt;/b&gt;&lt;br&gt;CDA peptide synthetase I (CdaPs1)&lt;br&gt;Location: 46278 - 23887&lt;br&gt;&lt;br&gt;&lt;b&gt;BlastP hit with LOCUS_49680&lt;/b&gt;&lt;br&gt;Percentage identity: 60&lt;br&gt;Percentage coverage: 87&lt;br&gt;BLAST bit score: 521&lt;br&gt;E-value: 1.7e-147" locus_tag="CAB38518.1" class="clusterblast-orf" id="dummy-7_h7_5_19"  />
</g>
<g id="a7_0020"  >
<polygon points="557,90 563,90 568,85 563,80 557,80 557,90 " style="fill:white; stroke-width:1; stroke:black; " description="&lt;b&gt;CAB38519.1&lt;/b&gt;&lt;br&gt;4-hydroxymandelic acid synthase (HmaS)&lt;br&gt;Location: 23618 - 22503" locus_tag="CAB38519.1" class="clusterblast-orf" id="dummy-7_h7_5_20"  />
</g>
<g id="a7_0021"  >
<polygon points="569,90 575,90 580,85 575,80 569,80 569,90 " style="fill:white; stroke-width:1; stroke:black; " description="&lt;b&gt;CAB38520.1&lt;/b&gt;&lt;br&gt;4-hydroxymandelate oxidase (Hmo)&lt;br&gt;Location: 22353 - 21220" locus_tag="CAB38520.1" class="clusterblast-orf" id="dummy-7_h7_5_21"  />
</g>
<g id="a7_0022"  >
<polygon points="580,90 587,90 592,85 587,80 580,80 580,90 " style="fill:white; stroke-width:1; stroke:black; " description="&lt;b&gt;CAD55497.1&lt;/b&gt;&lt;br&gt;4-hydroxyphenylglycine aminotransferase (hpgT)&lt;br&gt;Location: 21223 - 19889" locus_tag="CAD55497.1" class="clusterblast-orf" id="dummy-7_h7_5_22"  />
</g>
<g id="a7_0023"  >
<polygon points="592,85 597,80 599,80 599,90 597,90 592,85 " style="fill:white; stroke-width:1; stroke:black; " description="&lt;b&gt;CAB38597.1&lt;/b&gt;&lt;br&gt;two component system response regulator (absA2)&lt;br&gt;Location: 19899 - 19231" locus_tag="CAB38597.1" class="clusterblast-orf" id="dummy-7_h7_5_23"  />
</g>
<g id="a7_0024"  >
<polygon points="599,85 604,80 615,80 615,90 604,90 599,85 " style="fill:white; stroke-width:1; stroke:black; " description="&lt;b&gt;CAB38596.1&lt;/b&gt;&lt;br&gt;two component sensor kinase (absA1)&lt;br&gt;Location: 19212 - 17497" locus_tag="CAB38596.1" class="clusterblast-orf" id="dummy-7_h7_5_24"  />
</g>
<g id="a7_0025"  >
<polygon points="616,90 620,90 625,85 620,80 616,80 616,90 " style="fill:white; stroke-width:1; stroke:black; " description="&lt;b&gt;CAB38595.1&lt;/b&gt;&lt;br&gt;putative ABC transporter ATP-binding protein&lt;br&gt;Location: 17360 - 16407" locus_tag="CAB38595.1" class="clusterblast-orf" id="dummy-7_h7_5_25"  />
</g>
<g id="a7_0026"  >
<polygon points="625,90 628,90 633,85 628,80 625,80 625,90 " style="fill:white; stroke-width:1; stroke:black; " description="&lt;b&gt;CAB38594.1&lt;/b&gt;&lt;br&gt;putative ABC transporter integral membrane protein&lt;br&gt;Location: 16400 - 15606" locus_tag="CAB38594.1" class="clusterblast-orf" id="dummy-7_h7_5_26"  />
</g>
<g id="a7_0027"  >
<polygon points="634,90 638,85 634,80 634,90 " style="fill:white; stroke-width:1; stroke:black; " description="&lt;b&gt;CAB38593.1&lt;/b&gt;&lt;br&gt;putative secreted protein&lt;br&gt;Location: 15451 - 14996" locus_tag="CAB38593.1" class="clusterblast-orf" id="dummy-7_h7_5_27"  />
</g>
<g id="a7_0028"  >
<polygon points="639,90 642,90 647,85 642,80 639,80 639,90 " style="fill:white; stroke-width:1; stroke:black; " description="&lt;b&gt;CAB38592.1&lt;/b&gt;&lt;br&gt;putative oxidoreductase&lt;br&gt;Location: 14898 - 14044" locus_tag="CAB38592.1" class="clusterblast-orf" id="dummy-7_h7_5_28"  />
</g>
<g id="a7_0029"  >
<polygon points="648,90 652,85 648,80 648,90 " style="fill:white; stroke-width:1; stroke:black; " description="&lt;b&gt;CAB38591.1&lt;/b&gt;&lt;br&gt;putative secreted protein&lt;br&gt;Location: 13951 - 13523" locus_tag="CAB38591.1" class="clusterblast-orf" id="dummy-7_h7_5_29"  />
</g>
<g id="a7_0030"  >
<polygon points="654,90 660,90 665,85 660,80 654,80 654,90 " style="fill:white; stroke-width:1; stroke:black; " description="&lt;b&gt;CAB38590.1&lt;/b&gt;&lt;br&gt;putative lipase (putative secreted protein)&lt;br&gt;Location: 13315 - 12140" locus_tag="CAB38590.1" class="clusterblast-orf" id="dummy-7_h7_5_30"  />
</g>
<g id="a7_0031"  >
<polygon points="666,90 668,85 666,80 666,90 " style="fill:white; stroke-width:1; stroke:black; " description="&lt;b&gt;CAB38589.1&lt;/b&gt;&lt;br&gt;putative small conserved hypothetical protein&lt;br&gt;Location: 12017 - 11802" locus_tag="CAB38589.1" class="clusterblast-orf" id="dummy-7_h7_5_31"  />
</g>
<g id="a7_0032"  >
<polygon points="669,85 674,80 687,80 687,90 674,90 669,85 " style="fill:white; stroke-width:1; stroke:black; " description="&lt;b&gt;CAB38588.1&lt;/b&gt;&lt;br&gt;putative transcriptional regulator&lt;br&gt;Location: 11740 - 9824" locus_tag="CAB38588.1" class="clusterblast-orf" id="dummy-7_h7_5_32"  />
</g>
<g id="a7_0033"  >
<polygon points="694,85 699,80 717,80 717,90 699,90 694,85 " style="fill:white; stroke-width:1; stroke:black; " description="&lt;b&gt;CAB38587.1&lt;/b&gt;&lt;br&gt;putative integral membrane ATPase&lt;br&gt;Location: 9079 - 6689" locus_tag="CAB38587.1" class="clusterblast-orf" id="dummy-7_h7_5_33"  />
</g>
<g id="a7_0034"  >
<polygon points="719,90 724,90 729,85 724,80 719,80 719,90 " style="fill:white; stroke-width:1; stroke:black; " description="&lt;b&gt;CAB38586.1&lt;/b&gt;&lt;br&gt;2-oxogluterate-3-methyltransferase (glmT)&lt;br&gt;Location: 6396 - 5380" locus_tag="CAB38586.1" class="clusterblast-orf" id="dummy-7_h7_5_34"  />
</g>
<g id="a7_0035"  >
<polygon points="729,90 738,90 743,85 738,80 729,80 729,90 " style="fill:white; stroke-width:1; stroke:black; " description="&lt;b&gt;CAB38585.1&lt;/b&gt;&lt;br&gt;probable anthranilate synthase component I (trpE2)&lt;br&gt;Location: 5383 - 3848" locus_tag="CAB38585.1" class="clusterblast-orf" id="dummy-7_h7_5_35"  />
</g>
<g id="a7_0036"  >
<polygon points="743,90 744,90 749,85 744,80 743,80 743,90 " style="fill:white; stroke-width:1; stroke:black; " description="&lt;b&gt;CAB38584.1&lt;/b&gt;&lt;br&gt;probable anthranilate synthase component II (trpG)&lt;br&gt;Location: 3851 - 3249" locus_tag="CAB38584.1" class="clusterblast-orf" id="dummy-7_h7_5_36"  />
</g>
<g id="a7_0037"  >
<polygon points="749,90 754,90 759,85 754,80 749,80 749,90 " style="fill:white; stroke-width:1; stroke:black; " description="&lt;b&gt;CAB38583.1&lt;/b&gt;&lt;br&gt;probable anthranilate phosphoribotransferase (trpD2)&lt;br&gt;Location: 3232 - 2225" locus_tag="CAB38583.1" class="clusterblast-orf" id="dummy-7_h7_5_37"  />
</g>
<g id="a7_0038"  >
<polygon points="759,90 761,90 766,85 761,80 759,80 759,90 " style="fill:white; stroke-width:1; stroke:black; " description="&lt;b&gt;CAB38582.1&lt;/b&gt;&lt;br&gt;putative indoleglycerol phosphate synthase (trpC2)&lt;br&gt;Location: 2228 - 1452" locus_tag="CAB38582.1" class="clusterblast-orf" id="dummy-7_h7_5_38"  />
</g>
<g id="a7_0039"  >
<polygon points="766,90 775,90 780,85 775,80 766,80 766,90 " style="fill:white; stroke-width:1; stroke:black; " description="&lt;b&gt;CAB38581.1&lt;/b&gt;&lt;br&gt;putative 2-dehydro-3-deoxyheptonate aldolase&lt;br&gt;Location: 1455 - 1" locus_tag="CAB38581.1" class="clusterblast-orf" id="dummy-7_h7_5_39"  />
</g>
</svg>
