<svg xmlns="http://www.w3.org/2000/svg" xmlns:xlink="http://www.w3.org/1999/xlink" version="1.1" x="0" y="0" height="230" width="800" viewBox="0 0 800 230" preserveAspectRatio="none"  >
<g label="Query sequence" class="clusterblast-cluster"  >
<text x="5" y="20" class="clusterblast-acc"  >
Query sequence</text>
<line x1="10" y1="35" x2="778.0" y2="35" style="stroke-width:1; stroke:grey; "  />
<polygon points="131,35 134,30 134,40 131,35 " style="fill:white; stroke-width:1; stroke:black; " description="&lt;b&gt;LOCUS_49490&lt;/b&gt;&lt;br&gt;hypothetical protein&lt;br&gt;Location: 3838682 - 3838976" locus_tag="LOCUS_49490" class="clusterblast-orf" id="dummy-7_q0_0_all"  />
<polygon points="139,40 140,40 145,35 140,30 139,30 139,40 " style="fill:white; stroke-width:1; stroke:black; " description="&lt;b&gt;LOCUS_49500&lt;/b&gt;&lt;br&gt;hypothetical protein&lt;br&gt;Location: 3839403 - 3839901" locus_tag="LOCUS_49500" class="clusterblast-orf" id="dummy-7_q1_0_all"  />
<polygon points="146,35 151,30 160,30 160,40 151,40 146,35 " style="fill:white; stroke-width:1; stroke:black; " description="&lt;b&gt;LOCUS_49510&lt;/b&gt;&lt;br&gt;chloramphenicol resistance protein&lt;br&gt;Location: 3839946 - 3841146" locus_tag="LOCUS_49510" class="clusterblast-orf" id="dummy-7_q2_0_all"  />
<polygon points="164,40 168,35 164,30 164,40 " style="fill:white; stroke-width:1; stroke:black; " description="&lt;b&gt;LOCUS_49520&lt;/b&gt;&lt;br&gt;transcriptional regulator&lt;br&gt;Location: 3841459 - 3841807" locus_tag="LOCUS_49520" class="clusterblast-orf" id="dummy-7_q3_0_all"  />
<polygon points="168,40 171,35 168,30 168,40 " style="fill:white; stroke-width:1; stroke:black; " description="&lt;b&gt;LOCUS_49530&lt;/b&gt;&lt;br&gt;hypothetical protein&lt;br&gt;Location: 3841842 - 3842040" locus_tag="LOCUS_49530" class="clusterblast-orf" id="dummy-7_q4_0_all"  />
<polygon points="173,35 178,30 178,30 178,40 178,40 173,35 " style="fill:white; stroke-width:1; stroke:black; " description="&lt;b&gt;LOCUS_49540&lt;/b&gt;&lt;br&gt;hypothetical protein&lt;br&gt;Location: 3842199 - 3842640" locus_tag="LOCUS_49540" class="clusterblast-orf" id="dummy-7_q5_0_all"  />
<polygon points="178,35 183,30 189,30 189,40 183,40 178,35 " style="fill:white; stroke-width:1; stroke:black; " description="&lt;b&gt;LOCUS_49550&lt;/b&gt;&lt;br&gt;hypothetical protein&lt;br&gt;Location: 3842644 - 3843562" locus_tag="LOCUS_49550" class="clusterblast-orf" id="dummy-7_q6_0_all"  />
<polygon points="197,35 202,30 203,30 203,40 202,40 197,35 " style="fill:white; stroke-width:1; stroke:black; " description="&lt;b&gt;LOCUS_49560&lt;/b&gt;&lt;br&gt;hypothetical protein&lt;br&gt;Location: 3844231 - 3844741" locus_tag="LOCUS_49560" class="clusterblast-orf" id="dummy-7_q7_0_all"  />
<polygon points="203,35 206,30 206,40 203,35 " style="fill:white; stroke-width:1; stroke:black; " description="&lt;b&gt;LOCUS_49570&lt;/b&gt;&lt;br&gt;hypothetical protein&lt;br&gt;Location: 3844727 - 3845006" locus_tag="LOCUS_49570" class="clusterblast-orf" id="dummy-7_q8_0_all"  />
<polygon points="207,35 212,30 233,30 233,40 212,40 207,35 " style="fill:white; stroke-width:1; stroke:black; " description="&lt;b&gt;LOCUS_49580&lt;/b&gt;&lt;br&gt;malate synthase G&lt;br&gt;Location: 3845030 - 3847211" locus_tag="LOCUS_49580" class="clusterblast-orf" id="dummy-7_q9_0_all"  />
<polygon points="233,35 238,30 250,30 250,40 238,40 233,35 " style="fill:white; stroke-width:1; stroke:black; " description="&lt;b&gt;LOCUS_49590&lt;/b&gt;&lt;br&gt;FAD-binding protein&lt;br&gt;Location: 3847232 - 3848699" locus_tag="LOCUS_49590" class="clusterblast-orf" id="dummy-7_q10_0_all"  />
<polygon points="252,35 257,30 266,30 266,40 257,40 252,35 " style="fill:white; stroke-width:1; stroke:black; " description="&lt;b&gt;LOCUS_49600&lt;/b&gt;&lt;br&gt;putative glycolate oxidase iron-sulfur subunit&lt;br&gt;Location: 3848790 - 3849972" locus_tag="LOCUS_49600" class="clusterblast-orf" id="dummy-7_q11_0_all"  />
<polygon points="267,35 272,30 282,30 282,40 272,40 267,35 " style="fill:white; stroke-width:1; stroke:black; " description="&lt;b&gt;LOCUS_49610&lt;/b&gt;&lt;br&gt;glycolate oxidase&lt;br&gt;Location: 3850057 - 3851380" locus_tag="LOCUS_49610" class="clusterblast-orf" id="dummy-7_q12_0_all"  />
<polygon points="283,35 288,30 291,30 291,40 288,40 283,35 " style="fill:white; stroke-width:1; stroke:black; " description="&lt;b&gt;LOCUS_49620&lt;/b&gt;&lt;br&gt;HTH-type transcriptional regulator LutR&lt;br&gt;Location: 3851416 - 3852112" locus_tag="LOCUS_49620" class="clusterblast-orf" id="dummy-7_q13_0_all"  />
<polygon points="293,35 298,30 306,30 306,40 298,40 293,35 " style="fill:white; stroke-width:1; stroke:black; " description="&lt;b&gt;LOCUS_49630&lt;/b&gt;&lt;br&gt;hypothetical protein&lt;br&gt;Location: 3852292 - 3853348" locus_tag="LOCUS_49630" class="clusterblast-orf" id="dummy-7_q14_0_all"  />
<polygon points="308,35 313,30 314,30 314,40 313,40 308,35 " style="fill:white; stroke-width:1; stroke:black; " description="&lt;b&gt;LOCUS_49640&lt;/b&gt;&lt;br&gt;hypothetical protein&lt;br&gt;Location: 3853485 - 3854007" locus_tag="LOCUS_49640" class="clusterblast-orf" id="dummy-7_q15_0_all"  />
<polygon points="317,35 322,30 325,30 325,40 322,40 317,35 " style="fill:white; stroke-width:1; stroke:black; " description="&lt;b&gt;LOCUS_49650&lt;/b&gt;&lt;br&gt;hypothetical protein&lt;br&gt;Location: 3854261 - 3854933" locus_tag="LOCUS_49650" class="clusterblast-orf" id="dummy-7_q16_0_all"  />
<polygon points="328,35 333,30 334,30 334,40 333,40 328,35 " style="fill:#d81515; stroke-width:1; stroke:black; " description="&lt;b&gt;LOCUS_49660&lt;/b&gt;&lt;br&gt;hypothetical protein&lt;br&gt;Location: 3855217 - 3855706" locus_tag="LOCUS_49660" class="clusterblast-orf" id="dummy-7_q17_0_all"  />
<polygon points="337,35 342,30 345,30 345,40 342,40 337,35 " style="fill:#4dd815; stroke-width:1; stroke:black; " description="&lt;b&gt;LOCUS_49670&lt;/b&gt;&lt;br&gt;hypothetical protein&lt;br&gt;Location: 3855962 - 3856574" locus_tag="LOCUS_49670" class="clusterblast-orf" id="dummy-7_q18_0_all"  />
<polygon points="344,35 349,30 362,30 362,40 349,40 344,35 " style="fill:#4dd815; stroke-width:1; stroke:black; " description="&lt;b&gt;LOCUS_49680&lt;/b&gt;&lt;br&gt;hypothetical protein&lt;br&gt;Location: 3856548 - 3858060" locus_tag="LOCUS_49680" class="clusterblast-orf" id="dummy-7_q19_0_all"  />
<polygon points="362,35 367,30 410,30 410,40 367,40 362,35 " style="fill:#4dd815; stroke-width:1; stroke:black; " description="&lt;b&gt;LOCUS_49690&lt;/b&gt;&lt;br&gt;hypothetical protein&lt;br&gt;Location: 3858022 - 3862063" locus_tag="LOCUS_49690" class="clusterblast-orf" id="dummy-7_q20_0_all"  />
<polygon points="410,35 415,30 423,30 423,40 415,40 410,35 " style="fill:#4dd815; stroke-width:1; stroke:black; " description="&lt;b&gt;LOCUS_49700&lt;/b&gt;&lt;br&gt;hypothetical protein&lt;br&gt;Location: 3862052 - 3863120" locus_tag="LOCUS_49700" class="clusterblast-orf" id="dummy-7_q21_0_all"  />
<polygon points="423,35 425,30 425,40 423,35 " style="fill:white; stroke-width:1; stroke:black; " description="&lt;b&gt;LOCUS_49710&lt;/b&gt;&lt;br&gt;hypothetical protein&lt;br&gt;Location: 3863139 - 3863277" locus_tag="LOCUS_49710" class="clusterblast-orf" id="dummy-7_q22_0_all"  />
<polygon points="426,35 429,30 429,40 426,35 " style="fill:#1585d8; stroke-width:1; stroke:black; " description="&lt;b&gt;LOCUS_49720&lt;/b&gt;&lt;br&gt;hypothetical protein&lt;br&gt;Location: 3863423 - 3863636" locus_tag="LOCUS_49720" class="clusterblast-orf" id="dummy-7_q23_0_all"  />
<polygon points="430,35 434,30 434,40 430,35 " style="fill:#1585d8; stroke-width:1; stroke:black; " description="&lt;b&gt;LOCUS_49730&lt;/b&gt;&lt;br&gt;hypothetical protein&lt;br&gt;Location: 3863762 - 3864047" locus_tag="LOCUS_49730" class="clusterblast-orf" id="dummy-7_q24_0_all"  />
<polygon points="434,35 439,30 451,30 451,40 439,40 434,35 " style="fill:#d815bc; stroke-width:1; stroke:black; " description="&lt;b&gt;LOCUS_49740&lt;/b&gt;&lt;br&gt;2,3-dihydroxybenzoate-AMP ligase&lt;br&gt;Location: 3864081 - 3865470" locus_tag="LOCUS_49740" class="clusterblast-orf" id="dummy-7_q25_0_all"  />
<polygon points="451,35 453,30 453,40 451,35 " style="fill:white; stroke-width:1; stroke:black; " description="&lt;b&gt;LOCUS_49750&lt;/b&gt;&lt;br&gt;hypothetical protein&lt;br&gt;Location: 3865477 - 3865618" locus_tag="LOCUS_49750" class="clusterblast-orf" id="dummy-7_q26_0_all"  />
<polygon points="454,35 459,30 461,30 461,40 459,40 454,35 " style="fill:#d8bc15; stroke-width:1; stroke:black; " description="&lt;b&gt;LOCUS_49760&lt;/b&gt;&lt;br&gt;hypothetical protein&lt;br&gt;Location: 3865708 - 3866296" locus_tag="LOCUS_49760" class="clusterblast-orf" id="dummy-7_q27_0_all"  />
<polygon points="461,35 466,30 468,30 468,40 466,40 461,35 " style="fill:#d8bc15; stroke-width:1; stroke:black; " description="&lt;b&gt;LOCUS_49770&lt;/b&gt;&lt;br&gt;hypothetical protein&lt;br&gt;Location: 3866288 - 3866945" locus_tag="LOCUS_49770" class="clusterblast-orf" id="dummy-7_q28_0_all"  />
<polygon points="469,35 474,30 475,30 475,40 474,40 469,35 " style="fill:#15d885; stroke-width:1; stroke:black; " description="&lt;b&gt;LOCUS_49780&lt;/b&gt;&lt;br&gt;hypothetical protein&lt;br&gt;Location: 3866982 - 3867477" locus_tag="LOCUS_49780" class="clusterblast-orf" id="dummy-7_q29_0_all"  />
<polygon points="475,35 478,30 478,40 475,35 " style="fill:#15d885; stroke-width:1; stroke:black; " description="&lt;b&gt;LOCUS_49790&lt;/b&gt;&lt;br&gt;hypothetical protein&lt;br&gt;Location: 3867508 - 3867769" locus_tag="LOCUS_49790" class="clusterblast-orf" id="dummy-7_q30_0_all"  />
<polygon points="480,35 485,30 485,30 485,40 485,40 480,35 " style="fill:#4d15d8; stroke-width:1; stroke:black; " description="&lt;b&gt;LOCUS_49800&lt;/b&gt;&lt;br&gt;hypothetical protein&lt;br&gt;Location: 3867901 - 3868336" locus_tag="LOCUS_49800" class="clusterblast-orf" id="dummy-7_q31_0_all"  />
<polygon points="485,35 490,30 490,30 490,40 490,40 485,35 " style="fill:#4d15d8; stroke-width:1; stroke:black; " description="&lt;b&gt;LOCUS_49810&lt;/b&gt;&lt;br&gt;hypothetical protein&lt;br&gt;Location: 3868363 - 3868714" locus_tag="LOCUS_49810" class="clusterblast-orf" id="dummy-7_q32_0_all"  />
<polygon points="494,40 497,35 494,30 494,40 " style="fill:white; stroke-width:1; stroke:black; " description="&lt;b&gt;LOCUS_49820&lt;/b&gt;&lt;br&gt;hypothetical protein&lt;br&gt;Location: 3869070 - 3869301" locus_tag="LOCUS_49820" class="clusterblast-orf" id="dummy-7_q33_0_all"  />
<polygon points="497,40 501,35 497,30 497,40 " style="fill:white; stroke-width:1; stroke:black; " description="&lt;b&gt;LOCUS_49830&lt;/b&gt;&lt;br&gt;hypothetical protein&lt;br&gt;Location: 3869313 - 3869679" locus_tag="LOCUS_49830" class="clusterblast-orf" id="dummy-7_q34_0_all"  />
<polygon points="503,40 506,35 503,30 503,40 " style="fill:white; stroke-width:1; stroke:black; " description="&lt;b&gt;LOCUS_49840&lt;/b&gt;&lt;br&gt;hypothetical protein&lt;br&gt;Location: 3869819 - 3870065" locus_tag="LOCUS_49840" class="clusterblast-orf" id="dummy-7_q35_0_all"  />
<polygon points="506,40 513,40 518,35 513,30 506,30 506,40 " style="fill:white; stroke-width:1; stroke:black; " description="&lt;b&gt;LOCUS_49850&lt;/b&gt;&lt;br&gt;ferrichrome ABC transporter permease&lt;br&gt;Location: 3870080 - 3871088" locus_tag="LOCUS_49850" class="clusterblast-orf" id="dummy-7_q36_0_all"  />
<polygon points="518,40 525,40 530,35 525,30 518,30 518,40 " style="fill:white; stroke-width:1; stroke:black; " description="&lt;b&gt;LOCUS_49860&lt;/b&gt;&lt;br&gt;iron ABC transporter permease&lt;br&gt;Location: 3871080 - 3872103" locus_tag="LOCUS_49860" class="clusterblast-orf" id="dummy-7_q37_0_all"  />
<polygon points="530,40 535,40 540,35 535,30 530,30 530,40 " style="fill:white; stroke-width:1; stroke:black; " description="&lt;b&gt;LOCUS_49870&lt;/b&gt;&lt;br&gt;ABC transporter ATP-binding protein&lt;br&gt;Location: 3872118 - 3872940" locus_tag="LOCUS_49870" class="clusterblast-orf" id="dummy-7_q38_0_all"  />
<polygon points="540,40 545,40 550,35 545,30 540,30 540,40 " style="fill:white; stroke-width:1; stroke:black; " description="&lt;b&gt;LOCUS_49880&lt;/b&gt;&lt;br&gt;IroE protein&lt;br&gt;Location: 3872954 - 3873740" locus_tag="LOCUS_49880" class="clusterblast-orf" id="dummy-7_q39_0_all"  />
<polygon points="556,35 560,30 560,40 556,35 " style="fill:white; stroke-width:1; stroke:black; " description="&lt;b&gt;LOCUS_49890&lt;/b&gt;&lt;br&gt;hypothetical protein&lt;br&gt;Location: 3874297 - 3874636" locus_tag="LOCUS_49890" class="clusterblast-orf" id="dummy-7_q40_0_all"  />
<polygon points="561,35 566,30 572,30 572,40 566,40 561,35 " style="fill:white; stroke-width:1; stroke:black; " description="&lt;b&gt;LOCUS_49900&lt;/b&gt;&lt;br&gt;hypothetical protein&lt;br&gt;Location: 3874671 - 3875592" locus_tag="LOCUS_49900" class="clusterblast-orf" id="dummy-7_q41_0_all"  />
<polygon points="576,40 579,35 576,30 576,40 " style="fill:white; stroke-width:1; stroke:black; " description="&lt;b&gt;LOCUS_49910&lt;/b&gt;&lt;br&gt;hypothetical protein&lt;br&gt;Location: 3875957 - 3876173" locus_tag="LOCUS_49910" class="clusterblast-orf" id="dummy-7_q42_0_all"  />
<polygon points="578,40 584,40 589,35 584,30 578,30 578,40 " style="fill:white; stroke-width:1; stroke:black; " description="&lt;b&gt;LOCUS_49920&lt;/b&gt;&lt;br&gt;hypothetical protein&lt;br&gt;Location: 3876144 - 3877029" locus_tag="LOCUS_49920" class="clusterblast-orf" id="dummy-7_q43_0_all"  />
<polygon points="592,35 595,30 595,40 592,35 " style="fill:white; stroke-width:1; stroke:black; " description="&lt;b&gt;LOCUS_49930&lt;/b&gt;&lt;br&gt;hypothetical protein&lt;br&gt;Location: 3877289 - 3877520" locus_tag="LOCUS_49930" class="clusterblast-orf" id="dummy-7_q44_0_all"  />
<polygon points="595,35 600,30 600,30 600,40 600,40 595,35 " style="fill:white; stroke-width:1; stroke:black; " description="&lt;b&gt;LOCUS_49940&lt;/b&gt;&lt;br&gt;hypothetical protein&lt;br&gt;Location: 3877558 - 3877981" locus_tag="LOCUS_49940" class="clusterblast-orf" id="dummy-7_q45_0_all"  />
<polygon points="606,35 608,30 608,40 606,35 " style="fill:white; stroke-width:1; stroke:black; " description="&lt;b&gt;LOCUS_49950&lt;/b&gt;&lt;br&gt;hypothetical protein&lt;br&gt;Location: 3878424 - 3878589" locus_tag="LOCUS_49950" class="clusterblast-orf" id="dummy-7_q46_0_all"  />
<polygon points="609,35 614,30 620,30 620,40 614,40 609,35 " style="fill:white; stroke-width:1; stroke:black; " description="&lt;b&gt;LOCUS_49960&lt;/b&gt;&lt;br&gt;membrane protein&lt;br&gt;Location: 3878679 - 3879663" locus_tag="LOCUS_49960" class="clusterblast-orf" id="dummy-7_q47_0_all"  />
<polygon points="622,35 627,30 630,30 630,40 627,40 622,35 " style="fill:white; stroke-width:1; stroke:black; " description="&lt;b&gt;LOCUS_49970&lt;/b&gt;&lt;br&gt;GntR family transcriptional regulator&lt;br&gt;Location: 3879791 - 3880427" locus_tag="LOCUS_49970" class="clusterblast-orf" id="dummy-7_q48_0_all"  />
<polygon points="631,35 636,30 641,30 641,40 636,40 631,35 " style="fill:white; stroke-width:1; stroke:black; " description="&lt;b&gt;LOCUS_49980&lt;/b&gt;&lt;br&gt;blue-light photoreceptor&lt;br&gt;Location: 3880574 - 3881357" locus_tag="LOCUS_49980" class="clusterblast-orf" id="dummy-7_q49_0_all"  />
<polygon points="643,35 648,30 649,30 649,40 648,40 643,35 " style="fill:white; stroke-width:1; stroke:black; " description="&lt;b&gt;LOCUS_49990&lt;/b&gt;&lt;br&gt;membrane protein&lt;br&gt;Location: 3881519 - 3882008" locus_tag="LOCUS_49990" class="clusterblast-orf" id="dummy-7_q50_0_all"  />
</g>
<g label="BGC0001414" description="BGC0001414_c1: griselimycin (11% of genes show similarity), NRP" class="clusterblast-cluster"  >
<text x="5" y="70" class="clusterblast-acc"  >
<a xlink:href="https://mibig.secondarymetabolites.org/go/BGC0001414/1" target="_blank">BGC0001414</a>:                                                                     griselimycin (11% of genes show similarity), NRP</text>
<line x1="10" y1="85" x2="778.0" y2="85" style="stroke-width:1; stroke:grey; "  />
</g>
<g id="a7_000"  >
<polygon points="0,90 5,90 10,85 5,80 0,80 0,90 " style="fill:white; stroke-width:1; stroke:black; " description="&lt;b&gt;AKC91867.1&lt;/b&gt;&lt;br&gt;XRE family transcriptional regulator&lt;br&gt;Location: 66105 - 65203" locus_tag="AKC91867.1" class="clusterblast-orf" id="dummy-7_h7_10_0"  />
</g>
<g id="a7_001"  >
<polygon points="11,85 16,80 25,80 25,90 16,90 11,85 " style="fill:white; stroke-width:1; stroke:black; " description="&lt;b&gt;AKC91866.1&lt;/b&gt;&lt;br&gt;amidohydrolase family protein&lt;br&gt;Location: 65162 - 63966" locus_tag="AKC91866.1" class="clusterblast-orf" id="dummy-7_h7_10_1"  />
</g>
<g id="a7_002"  >
<polygon points="25,85 30,80 39,80 39,90 30,90 25,85 " style="fill:white; stroke-width:1; stroke:black; " description="&lt;b&gt;AKC91865.1&lt;/b&gt;&lt;br&gt;hypothetical protein&lt;br&gt;Location: 63936 - 62821" locus_tag="AKC91865.1" class="clusterblast-orf" id="dummy-7_h7_10_2"  />
</g>
<g id="a7_003"  >
<polygon points="39,85 44,80 47,80 47,90 44,90 39,85 " style="fill:white; stroke-width:1; stroke:black; " description="&lt;b&gt;AKC91864.1&lt;/b&gt;&lt;br&gt;hypothetical protein&lt;br&gt;Location: 62817 - 62167" locus_tag="AKC91864.1" class="clusterblast-orf" id="dummy-7_h7_10_3"  />
</g>
<g id="a7_004"  >
<polygon points="54,90 54,90 59,85 54,80 54,80 54,90 " style="fill:white; stroke-width:1; stroke:black; " description="&lt;b&gt;AKC91863.1&lt;/b&gt;&lt;br&gt;pyridoxamine 5'-phosphate oxidase family protein&lt;br&gt;Location: 61581 - 61141" locus_tag="AKC91863.1" class="clusterblast-orf" id="dummy-7_h7_10_4"  />
</g>
<g id="a7_005"  >
<polygon points="71,85 76,80 82,80 82,90 76,90 71,85 " style="fill:white; stroke-width:1; stroke:black; " description="&lt;b&gt;AKC91862.1&lt;/b&gt;&lt;br&gt;oxidoreductase&lt;br&gt;Location: 60138 - 59239" locus_tag="AKC91862.1" class="clusterblast-orf" id="dummy-7_h7_10_5"  />
</g>
<g id="a7_006"  >
<polygon points="82,85 87,80 91,80 91,90 87,90 82,85 " style="fill:white; stroke-width:1; stroke:black; " description="&lt;b&gt;AKC91861.1&lt;/b&gt;&lt;br&gt;alpha/beta hydrolase&lt;br&gt;Location: 59242 - 58442" locus_tag="AKC91861.1" class="clusterblast-orf" id="dummy-7_h7_10_6"  />
</g>
<g id="a7_007"  >
<polygon points="91,85 96,80 105,80 105,90 96,90 91,85 " style="fill:white; stroke-width:1; stroke:black; " description="&lt;b&gt;AKC91860.1&lt;/b&gt;&lt;br&gt;alcohol dehydrogenase&lt;br&gt;Location: 58415 - 57240" locus_tag="AKC91860.1" class="clusterblast-orf" id="dummy-7_h7_10_7"  />
</g>
<g id="a7_008"  >
<polygon points="105,85 110,80 115,80 115,90 110,90 105,85 " style="fill:white; stroke-width:1; stroke:black; " description="&lt;b&gt;AKC91859.1&lt;/b&gt;&lt;br&gt;leucine hydroxylase&lt;br&gt;Location: 57243 - 56431" locus_tag="AKC91859.1" class="clusterblast-orf" id="dummy-7_h7_10_8"  />
</g>
<g id="a7_009"  >
<polygon points="116,85 119,80 119,90 116,85 " style="fill:white; stroke-width:1; stroke:black; " description="&lt;b&gt;AKC91858.1&lt;/b&gt;&lt;br&gt;mbtH-like protein&lt;br&gt;Location: 56332 - 56114" locus_tag="AKC91858.1" class="clusterblast-orf" id="dummy-7_h7_10_9"  />
</g>
<g id="a7_0010"  >
<polygon points="119,85 124,80 166,80 166,90 124,90 119,85 " style="fill:#4dd815; stroke-width:1; stroke:black; " description="&lt;b&gt;AKC91857.1&lt;/b&gt;&lt;br&gt;nonribosomal peptide synthetase&lt;br&gt;Location: 56117 - 52143&lt;br&gt;&lt;br&gt;&lt;b&gt;BlastP hit with LOCUS_49690&lt;/b&gt;&lt;br&gt;Percentage identity: 46&lt;br&gt;Percentage coverage: 53&lt;br&gt;BLAST bit score: 592&lt;br&gt;E-value: 1.2e-168" locus_tag="AKC91857.1" class="clusterblast-orf" id="dummy-7_h7_10_10"  />
</g>
<g id="a7_0011"  >
<polygon points="166,85 171,80 316,80 316,90 171,90 166,85 " style="fill:#4dd815; stroke-width:1; stroke:black; " description="&lt;b&gt;AKC91856.1&lt;/b&gt;&lt;br&gt;nonribosomal peptide synthetase&lt;br&gt;Location: 52146 - 39640&lt;br&gt;&lt;br&gt;&lt;b&gt;BlastP hit with LOCUS_49680&lt;/b&gt;&lt;br&gt;Percentage identity: 52&lt;br&gt;Percentage coverage: 58&lt;br&gt;BLAST bit score: 275&lt;br&gt;E-value: 1.6e-73" locus_tag="AKC91856.1" class="clusterblast-orf" id="dummy-7_h7_10_11"  />
</g>
<g id="a7_0012"  >
<polygon points="325,90 333,90 338,85 333,80 325,80 325,90 " style="fill:white; stroke-width:1; stroke:black; " description="&lt;b&gt;AKC91855.1&lt;/b&gt;&lt;br&gt;DNA polymerase III beta subunit&lt;br&gt;Location: 38864 - 37743" locus_tag="AKC91855.1" class="clusterblast-orf" id="dummy-7_h7_10_12"  />
</g>
<g id="a7_0013"  >
<polygon points="344,85 349,80 356,80 356,90 349,90 344,85 " style="fill:white; stroke-width:1; stroke:black; " description="&lt;b&gt;AKC91854.1&lt;/b&gt;&lt;br&gt;transposase&lt;br&gt;Location: 37314 - 36283" locus_tag="AKC91854.1" class="clusterblast-orf" id="dummy-7_h7_10_13"  />
</g>
<g id="a7_0014"  >
<polygon points="356,90 370,90 375,85 370,80 356,80 356,90 " style="fill:white; stroke-width:1; stroke:black; " description="&lt;b&gt;AKC91853.1&lt;/b&gt;&lt;br&gt;transposase&lt;br&gt;Location: 36300 - 34648" locus_tag="AKC91853.1" class="clusterblast-orf" id="dummy-7_h7_10_14"  />
</g>
<g id="a7_0015"  >
<polygon points="382,90 383,90 388,85 383,80 382,80 382,90 " style="fill:white; stroke-width:1; stroke:black; " description="&lt;b&gt;AKC91852.1&lt;/b&gt;&lt;br&gt;integrase catalytic region&lt;br&gt;Location: 34127 - 33567" locus_tag="AKC91852.1" class="clusterblast-orf" id="dummy-7_h7_10_15"  />
</g>
<g id="a7_0016"  >
<polygon points="386,85 391,80 393,80 393,90 391,90 386,85 " style="fill:white; stroke-width:1; stroke:black; " description="&lt;b&gt;AKC91851.1&lt;/b&gt;&lt;br&gt;transposase&lt;br&gt;Location: 33726 - 33187" locus_tag="AKC91851.1" class="clusterblast-orf" id="dummy-7_h7_10_16"  />
</g>
<g id="a7_0017"  >
<polygon points="394,90 398,85 394,80 394,90 " style="fill:white; stroke-width:1; stroke:black; " description="&lt;b&gt;AKC91850.1&lt;/b&gt;&lt;br&gt;integrase catalytic region&lt;br&gt;Location: 33102 - 32770" locus_tag="AKC91850.1" class="clusterblast-orf" id="dummy-7_h7_10_17"  />
</g>
<g id="a7_0018"  >
<polygon points="408,90 683,90 688,85 683,80 408,80 408,90 " style="fill:#4dd815; stroke-width:1; stroke:black; " description="&lt;b&gt;AKC91849.1&lt;/b&gt;&lt;br&gt;nonribosomal peptide synthetase&lt;br&gt;Location: 31885 - 8501&lt;br&gt;&lt;br&gt;&lt;b&gt;BlastP hit with LOCUS_49680&lt;/b&gt;&lt;br&gt;Percentage identity: 61&lt;br&gt;Percentage coverage: 59&lt;br&gt;BLAST bit score: 359&lt;br&gt;E-value: 1.1e-98&lt;br&gt;&lt;br&gt;&lt;b&gt;BlastP hit with LOCUS_49690&lt;/b&gt;&lt;br&gt;Percentage identity: 46&lt;br&gt;Percentage coverage: 98&lt;br&gt;BLAST bit score: 1120&lt;br&gt;E-value: 0.0" locus_tag="AKC91849.1" class="clusterblast-orf" id="dummy-7_h7_10_18"  />
</g>
<g id="a7_0019"  >
<polygon points="692,85 697,80 703,80 703,90 697,90 692,85 " style="fill:white; stroke-width:1; stroke:black; " description="&lt;b&gt;AKC91848.1&lt;/b&gt;&lt;br&gt;phosphotransferase enzyme family&lt;br&gt;Location: 8133 - 7240" locus_tag="AKC91848.1" class="clusterblast-orf" id="dummy-7_h7_10_19"  />
</g>
<g id="a7_0020"  >
<polygon points="705,85 710,80 722,80 722,90 710,90 705,85 " style="fill:white; stroke-width:1; stroke:black; " description="&lt;b&gt;AKC91847.1&lt;/b&gt;&lt;br&gt;glutamin synthetase&lt;br&gt;Location: 7066 - 5627" locus_tag="AKC91847.1" class="clusterblast-orf" id="dummy-7_h7_10_20"  />
</g>
<g id="a7_0021"  >
<polygon points="722,85 727,80 740,80 740,90 727,90 722,85 " style="fill:white; stroke-width:1; stroke:black; " description="&lt;b&gt;AKC91846.1&lt;/b&gt;&lt;br&gt;amino acid permease&lt;br&gt;Location: 5630 - 4110" locus_tag="AKC91846.1" class="clusterblast-orf" id="dummy-7_h7_10_21"  />
</g>
<g id="a7_0022"  >
<polygon points="741,85 746,80 753,80 753,90 746,90 741,85 " style="fill:white; stroke-width:1; stroke:black; " description="&lt;b&gt;AKC91845.1&lt;/b&gt;&lt;br&gt;hypothetical protein&lt;br&gt;Location: 4037 - 3033" locus_tag="AKC91845.1" class="clusterblast-orf" id="dummy-7_h7_10_22"  />
</g>
<g id="a7_0023"  >
<polygon points="756,85 758,80 758,90 756,85 " style="fill:white; stroke-width:1; stroke:black; " description="&lt;b&gt;AKC91844.1&lt;/b&gt;&lt;br&gt;hypothetical protein&lt;br&gt;Location: 2819 - 2625" locus_tag="AKC91844.1" class="clusterblast-orf" id="dummy-7_h7_10_23"  />
</g>
<g id="a7_0024"  >
<polygon points="758,85 763,80 763,80 763,90 763,90 758,85 " style="fill:white; stroke-width:1; stroke:black; " description="&lt;b&gt;AKC91843.1&lt;/b&gt;&lt;br&gt;hypothetical protein&lt;br&gt;Location: 2625 - 2185" locus_tag="AKC91843.1" class="clusterblast-orf" id="dummy-7_h7_10_24"  />
</g>
<g id="a7_0025"  >
<polygon points="765,85 770,80 780,80 780,90 770,90 765,85 " style="fill:white; stroke-width:1; stroke:black; " description="&lt;b&gt;AKC91842.1&lt;/b&gt;&lt;br&gt;XRE family transcriptional regulator&lt;br&gt;Location: 2075 - 837" locus_tag="AKC91842.1" class="clusterblast-orf" id="dummy-7_h7_10_25"  />
</g>
</svg>
