<svg xmlns="http://www.w3.org/2000/svg" xmlns:xlink="http://www.w3.org/1999/xlink" version="1.1" x="0" y="0" height="230" width="800" viewBox="0 0 800 230" preserveAspectRatio="none"  >
<g label="Query sequence" class="clusterblast-cluster"  >
<text x="5" y="20" class="clusterblast-acc"  >
Query sequence</text>
<line x1="10" y1="35" x2="778.0" y2="35" style="stroke-width:1; stroke:grey; "  />
<polygon points="0,40 3,40 8,35 3,30 0,30 0,40 " style="fill:white; stroke-width:1; stroke:black; " description="&lt;b&gt;LOCUS_37480&lt;/b&gt;&lt;br&gt;hypothetical protein&lt;br&gt;Location: 2920545 - 2920779" locus_tag="LOCUS_37480" class="clusterblast-orf" id="dummy-4_q0_0_all"  />
<polygon points="7,40 21,40 26,35 21,30 7,30 7,40 " style="fill:white; stroke-width:1; stroke:black; " description="&lt;b&gt;LOCUS_37490&lt;/b&gt;&lt;br&gt;hypothetical protein&lt;br&gt;Location: 2920775 - 2921354" locus_tag="LOCUS_37490" class="clusterblast-orf" id="dummy-4_q1_0_all"  />
<polygon points="28,40 46,40 51,35 46,30 28,30 28,40 " style="fill:white; stroke-width:1; stroke:black; " description="&lt;b&gt;LOCUS_37500&lt;/b&gt;&lt;br&gt;hypothetical protein&lt;br&gt;Location: 2921399 - 2922098" locus_tag="LOCUS_37500" class="clusterblast-orf" id="dummy-4_q2_0_all"  />
<polygon points="57,35 62,30 80,30 80,40 62,40 57,35 " style="fill:white; stroke-width:1; stroke:black; " description="&lt;b&gt;LOCUS_37510&lt;/b&gt;&lt;br&gt;NH(3)-dependent NAD(+) synthetase&lt;br&gt;Location: 2922281 - 2922965" locus_tag="LOCUS_37510" class="clusterblast-orf" id="dummy-4_q3_0_all"  />
<polygon points="80,35 85,30 103,30 103,40 85,40 80,35 " style="fill:white; stroke-width:1; stroke:black; " description="&lt;b&gt;LOCUS_37520&lt;/b&gt;&lt;br&gt;putative nicotinate-nucleotide adenylyltransferase&lt;br&gt;Location: 2922989 - 2923676" locus_tag="LOCUS_37520" class="clusterblast-orf" id="dummy-4_q4_0_all"  />
<polygon points="104,35 109,30 152,30 152,40 109,40 104,35 " style="fill:white; stroke-width:1; stroke:black; " description="&lt;b&gt;LOCUS_37530&lt;/b&gt;&lt;br&gt;nicotinate phosphoribosyltransferase&lt;br&gt;Location: 2923691 - 2925161" locus_tag="LOCUS_37530" class="clusterblast-orf" id="dummy-4_q5_0_all"  />
<polygon points="153,35 158,30 171,30 171,40 158,40 153,35 " style="fill:white; stroke-width:1; stroke:black; " description="&lt;b&gt;LOCUS_37540&lt;/b&gt;&lt;br&gt;isochorismatase&lt;br&gt;Location: 2925192 - 2925741" locus_tag="LOCUS_37540" class="clusterblast-orf" id="dummy-4_q6_0_all"  />
<polygon points="173,35 178,30 198,30 198,40 178,40 173,35 " style="fill:white; stroke-width:1; stroke:black; " description="&lt;b&gt;LOCUS_37550&lt;/b&gt;&lt;br&gt;ADP-ribose pyrophosphatase&lt;br&gt;Location: 2925789 - 2926560" locus_tag="LOCUS_37550" class="clusterblast-orf" id="dummy-4_q7_0_all"  />
<polygon points="203,35 208,30 216,30 216,40 208,40 203,35 " style="fill:white; stroke-width:1; stroke:black; " description="&lt;b&gt;LOCUS_37560&lt;/b&gt;&lt;br&gt;hypothetical protein&lt;br&gt;Location: 2926709 - 2927102" locus_tag="LOCUS_37560" class="clusterblast-orf" id="dummy-4_q8_0_all"  />
<polygon points="223,35 228,30 253,30 253,40 228,40 223,35 " style="fill:#d81515; stroke-width:1; stroke:black; " description="&lt;b&gt;LOCUS_37570&lt;/b&gt;&lt;br&gt;hypothetical protein&lt;br&gt;Location: 2927303 - 2928224" locus_tag="LOCUS_37570" class="clusterblast-orf" id="dummy-4_q9_0_all"  />
<polygon points="253,35 258,30 282,30 282,40 258,40 253,35 " style="fill:#d81515; stroke-width:1; stroke:black; " description="&lt;b&gt;LOCUS_37580&lt;/b&gt;&lt;br&gt;hypothetical protein&lt;br&gt;Location: 2928231 - 2929098" locus_tag="LOCUS_37580" class="clusterblast-orf" id="dummy-4_q10_0_all"  />
<polygon points="282,35 287,30 321,30 321,40 287,40 282,35 " style="fill:white; stroke-width:1; stroke:black; " description="&lt;b&gt;LOCUS_37590&lt;/b&gt;&lt;br&gt;hypothetical protein&lt;br&gt;Location: 2929114 - 2930296" locus_tag="LOCUS_37590" class="clusterblast-orf" id="dummy-4_q11_0_all"  />
<polygon points="321,35 326,30 337,30 337,40 326,40 321,35 " style="fill:#15d815; stroke-width:1; stroke:black; " description="&lt;b&gt;LOCUS_37600&lt;/b&gt;&lt;br&gt;hypothetical protein&lt;br&gt;Location: 2930292 - 2930760" locus_tag="LOCUS_37600" class="clusterblast-orf" id="dummy-4_q12_0_all"  />
<polygon points="337,35 342,30 347,30 347,40 342,40 337,35 " style="fill:#1515d8; stroke-width:1; stroke:black; " description="&lt;b&gt;LOCUS_37610&lt;/b&gt;&lt;br&gt;hypothetical protein&lt;br&gt;Location: 2930777 - 2931083" locus_tag="LOCUS_37610" class="clusterblast-orf" id="dummy-4_q13_0_all"  />
<polygon points="347,35 352,30 378,30 378,40 352,40 347,35 " style="fill:white; stroke-width:1; stroke:black; " description="&lt;b&gt;LOCUS_37620&lt;/b&gt;&lt;br&gt;hypothetical protein&lt;br&gt;Location: 2931072 - 2932011" locus_tag="LOCUS_37620" class="clusterblast-orf" id="dummy-4_q14_0_all"  />
<polygon points="387,35 392,30 394,30 394,40 392,40 387,35 " style="fill:white; stroke-width:1; stroke:black; " description="&lt;b&gt;LOCUS_37630&lt;/b&gt;&lt;br&gt;hypothetical protein&lt;br&gt;Location: 2932291 - 2932489" locus_tag="LOCUS_37630" class="clusterblast-orf" id="dummy-4_q15_0_all"  />
<polygon points="392,35 397,30 451,30 451,40 397,40 392,35 " style="fill:#d815d8; stroke-width:1; stroke:black; " description="&lt;b&gt;LOCUS_37640&lt;/b&gt;&lt;br&gt;asparagine synthetase B&lt;br&gt;Location: 2932452 - 2934228" locus_tag="LOCUS_37640" class="clusterblast-orf" id="dummy-4_q16_0_all"  />
<polygon points="455,35 460,30 472,30 472,40 460,40 455,35 " style="fill:white; stroke-width:1; stroke:black; " description="&lt;b&gt;LOCUS_37650&lt;/b&gt;&lt;br&gt;hypothetical protein&lt;br&gt;Location: 2934363 - 2934858" locus_tag="LOCUS_37650" class="clusterblast-orf" id="dummy-4_q17_0_all"  />
<polygon points="478,35 483,30 507,30 507,40 483,40 478,35 " style="fill:white; stroke-width:1; stroke:black; " description="&lt;b&gt;LOCUS_37660&lt;/b&gt;&lt;br&gt;hypothetical protein&lt;br&gt;Location: 2935040 - 2935922" locus_tag="LOCUS_37660" class="clusterblast-orf" id="dummy-4_q18_0_all"  />
<polygon points="507,35 512,30 546,30 546,40 512,40 507,35 " style="fill:white; stroke-width:1; stroke:black; " description="&lt;b&gt;LOCUS_37670&lt;/b&gt;&lt;br&gt;hypothetical protein&lt;br&gt;Location: 2935936 - 2937127" locus_tag="LOCUS_37670" class="clusterblast-orf" id="dummy-4_q19_0_all"  />
<polygon points="548,35 553,30 570,30 570,40 553,40 548,35 " style="fill:white; stroke-width:1; stroke:black; " description="&lt;b&gt;LOCUS_37680&lt;/b&gt;&lt;br&gt;hypothetical protein&lt;br&gt;Location: 2937175 - 2937835" locus_tag="LOCUS_37680" class="clusterblast-orf" id="dummy-4_q20_0_all"  />
<polygon points="574,35 579,30 587,30 587,40 579,40 574,35 " style="fill:white; stroke-width:1; stroke:black; " description="&lt;b&gt;LOCUS_37690&lt;/b&gt;&lt;br&gt;hypothetical protein&lt;br&gt;Location: 2937966 - 2938356" locus_tag="LOCUS_37690" class="clusterblast-orf" id="dummy-4_q21_0_all"  />
<polygon points="587,35 592,30 612,30 612,40 592,40 587,35 " style="fill:white; stroke-width:1; stroke:black; " description="&lt;b&gt;LOCUS_37700&lt;/b&gt;&lt;br&gt;glycosyl transferase&lt;br&gt;Location: 2938360 - 2939107" locus_tag="LOCUS_37700" class="clusterblast-orf" id="dummy-4_q22_0_all"  />
<polygon points="612,35 617,30 622,30 622,40 617,40 612,35 " style="fill:white; stroke-width:1; stroke:black; " description="&lt;b&gt;LOCUS_37710&lt;/b&gt;&lt;br&gt;transcriptional regulator&lt;br&gt;Location: 2939126 - 2939426" locus_tag="LOCUS_37710" class="clusterblast-orf" id="dummy-4_q23_0_all"  />
<polygon points="625,35 630,30 644,30 644,40 630,40 625,35 " style="fill:white; stroke-width:1; stroke:black; " description="&lt;b&gt;LOCUS_37720&lt;/b&gt;&lt;br&gt;hypothetical protein&lt;br&gt;Location: 2939505 - 2940072" locus_tag="LOCUS_37720" class="clusterblast-orf" id="dummy-4_q24_0_all"  />
<polygon points="645,35 650,30 657,30 657,40 650,40 645,35 " style="fill:white; stroke-width:1; stroke:black; " description="&lt;b&gt;LOCUS_37730&lt;/b&gt;&lt;br&gt;hypothetical protein&lt;br&gt;Location: 2940127 - 2940466" locus_tag="LOCUS_37730" class="clusterblast-orf" id="dummy-4_q25_0_all"  />
<polygon points="663,35 668,30 682,30 682,40 668,40 663,35 " style="fill:white; stroke-width:1; stroke:black; " description="&lt;b&gt;LOCUS_37740&lt;/b&gt;&lt;br&gt;putative acetyltransferase EpsM&lt;br&gt;Location: 2940674 - 2941235" locus_tag="LOCUS_37740" class="clusterblast-orf" id="dummy-4_q26_0_all"  />
<polygon points="685,35 690,30 704,30 704,40 690,40 685,35 " style="fill:#d8d815; stroke-width:1; stroke:black; " description="&lt;b&gt;LOCUS_37750&lt;/b&gt;&lt;br&gt;putative sugar transferase EpsL&lt;br&gt;Location: 2941320 - 2941920" locus_tag="LOCUS_37750" class="clusterblast-orf" id="dummy-4_q27_0_all"  />
<polygon points="705,35 710,30 711,30 711,40 710,40 705,35 " style="fill:white; stroke-width:1; stroke:black; " description="&lt;b&gt;LOCUS_37760&lt;/b&gt;&lt;br&gt;hypothetical protein&lt;br&gt;Location: 2941928 - 2942114" locus_tag="LOCUS_37760" class="clusterblast-orf" id="dummy-4_q28_0_all"  />
<polygon points="716,35 721,30 746,30 746,40 721,40 716,35 " style="fill:#15d8d8; stroke-width:1; stroke:black; " description="&lt;b&gt;LOCUS_37770&lt;/b&gt;&lt;br&gt;UDP-glucose 4-epimerase&lt;br&gt;Location: 2942261 - 2943170" locus_tag="LOCUS_37770" class="clusterblast-orf" id="dummy-4_q29_0_all"  />
<polygon points="747,35 752,30 780,30 780,40 752,40 747,35 " style="fill:white; stroke-width:1; stroke:black; " description="&lt;b&gt;LOCUS_37780&lt;/b&gt;&lt;br&gt;transmembrane protein EpsG&lt;br&gt;Location: 2943205 - 2944207" locus_tag="LOCUS_37780" class="clusterblast-orf" id="dummy-4_q30_0_all"  />
</g>
<g label="BGC0001356" description="BGC0001356_c1: paeninodin (80% of genes show similarity), RiPP" class="clusterblast-cluster"  >
<text x="5" y="70" class="clusterblast-acc"  >
<a xlink:href="https://mibig.secondarymetabolites.org/go/BGC0001356/1" target="_blank">BGC0001356</a>:                                                                       paeninodin (80% of genes show similarity), RiPP</text>
<line x1="10" y1="85" x2="778.0" y2="85" style="stroke-width:1; stroke:grey; "  />
</g>
<g id="a4_000"  >
<polygon points="296,85 301,80 356,80 356,90 301,90 296,85 " style="fill:#d81515; stroke-width:1; stroke:black; " description="&lt;b&gt;PDENDC454_19528&lt;/b&gt;&lt;br&gt;ABC transporter&lt;br&gt;Location: 5701 - 3878&lt;br&gt;&lt;br&gt;&lt;b&gt;BlastP hit with LOCUS_37570&lt;/b&gt;&lt;br&gt;Percentage identity: 54&lt;br&gt;Percentage coverage: 100&lt;br&gt;BLAST bit score: 331&lt;br&gt;E-value: 2e-90&lt;br&gt;&lt;br&gt;&lt;b&gt;BlastP hit with LOCUS_37580&lt;/b&gt;&lt;br&gt;Percentage identity: 47&lt;br&gt;Percentage coverage: 99&lt;br&gt;BLAST bit score: 240&lt;br&gt;E-value: 2.6e-63" locus_tag="PDENDC454_19528" class="clusterblast-orf" id="dummy-4_h4_1_0"  />
</g>
<g id="a4_001"  >
<polygon points="356,85 361,80 370,80 370,90 361,90 356,85 " style="fill:#15d815; stroke-width:1; stroke:black; " description="&lt;b&gt;PDENDC454_19523&lt;/b&gt;&lt;br&gt;hypothetical protein&lt;br&gt;Location: 3881 - 3453&lt;br&gt;&lt;br&gt;&lt;b&gt;BlastP hit with LOCUS_37600&lt;/b&gt;&lt;br&gt;Percentage identity: 48&lt;br&gt;Percentage coverage: 86&lt;br&gt;BLAST bit score: 135&lt;br&gt;E-value: 8.2e-32" locus_tag="PDENDC454_19523" class="clusterblast-orf" id="dummy-4_h4_1_1"  />
</g>
<g id="a4_002"  >
<polygon points="371,85 376,80 381,80 381,90 376,90 371,85 " style="fill:#1515d8; stroke-width:1; stroke:black; " description="&lt;b&gt;PDENDC454_19518&lt;/b&gt;&lt;br&gt;hypothetical protein&lt;br&gt;Location: 3423 - 3124&lt;br&gt;&lt;br&gt;&lt;b&gt;BlastP hit with LOCUS_37610&lt;/b&gt;&lt;br&gt;Percentage identity: 49&lt;br&gt;Percentage coverage: 80&lt;br&gt;BLAST bit score: 90&lt;br&gt;E-value: 2e-18" locus_tag="PDENDC454_19518" class="clusterblast-orf" id="dummy-4_h4_1_2"  />
</g>
<g id="a4_003"  >
<polygon points="380,85 385,80 411,80 411,90 385,90 380,85 " style="fill:white; stroke-width:1; stroke:black; " description="&lt;b&gt;PDENDC454_19513&lt;/b&gt;&lt;br&gt;HPr kinase&lt;br&gt;Location: 3127 - 2186" locus_tag="PDENDC454_19513" class="clusterblast-orf" id="dummy-4_h4_1_3"  />
</g>
<g id="a4_004"  >
<polygon points="419,85 424,80 483,80 483,90 424,90 419,85 " style="fill:#d815d8; stroke-width:1; stroke:black; " description="&lt;b&gt;PDENDC454_19508&lt;/b&gt;&lt;br&gt;asparagine synthase&lt;br&gt;Location: 1950 - 1&lt;br&gt;&lt;br&gt;&lt;b&gt;BlastP hit with LOCUS_37640&lt;/b&gt;&lt;br&gt;Percentage identity: 50&lt;br&gt;Percentage coverage: 98&lt;br&gt;BLAST bit score: 602&lt;br&gt;E-value: 5.3e-172" locus_tag="PDENDC454_19508" class="clusterblast-orf" id="dummy-4_h4_1_4"  />
</g>
</svg>
