<svg xmlns="http://www.w3.org/2000/svg" xmlns:xlink="http://www.w3.org/1999/xlink" version="1.1" x="0" y="0" height="50" width="800" viewBox="0 0 800 50" preserveAspectRatio="none"  >
<g label="Query sequence" class="clusterblast-cluster"  >
<text x="5" y="20" class="clusterblast-acc"  >
Query sequence</text>
<line x1="10" y1="35" x2="778.0" y2="35" style="stroke-width:1; stroke:grey; "  />
<polygon points="0,40 10,40 15,35 10,30 0,30 0,40 " style="fill:white; stroke-width:1; stroke:black; " description="&lt;b&gt;LOCUS_02200&lt;/b&gt;&lt;br&gt;membrane protein&lt;br&gt;Location: 183283 - 183685" locus_tag="LOCUS_02200" class="clusterblast-orf" id="subclusterblast-1_q0_0_all"  />
<polygon points="17,40 30,40 35,35 30,30 17,30 17,40 " style="fill:white; stroke-width:1; stroke:black; " description="&lt;b&gt;LOCUS_02210&lt;/b&gt;&lt;br&gt;membrane protein&lt;br&gt;Location: 183735 - 184209" locus_tag="LOCUS_02210" class="clusterblast-orf" id="subclusterblast-1_q1_0_all"  />
<polygon points="36,35 41,30 55,30 55,40 41,40 36,35 " style="fill:white; stroke-width:1; stroke:black; " description="&lt;b&gt;LOCUS_02220&lt;/b&gt;&lt;br&gt;kynurenine formamidase&lt;br&gt;Location: 184247 - 184739" locus_tag="LOCUS_02220" class="clusterblast-orf" id="subclusterblast-1_q2_0_all"  />
<polygon points="61,35 66,30 70,30 70,40 66,40 61,35 " style="fill:white; stroke-width:1; stroke:black; " description="&lt;b&gt;LOCUS_02230&lt;/b&gt;&lt;br&gt;hypothetical protein&lt;br&gt;Location: 184897 - 185143" locus_tag="LOCUS_02230" class="clusterblast-orf" id="subclusterblast-1_q3_0_all"  />
<polygon points="70,35 75,30 77,30 77,40 75,40 70,35 " style="fill:white; stroke-width:1; stroke:black; " description="&lt;b&gt;LOCUS_02240&lt;/b&gt;&lt;br&gt;hypothetical protein&lt;br&gt;Location: 185124 - 185328" locus_tag="LOCUS_02240" class="clusterblast-orf" id="subclusterblast-1_q4_0_all"  />
<polygon points="82,35 87,30 90,30 90,40 87,40 82,35 " style="fill:white; stroke-width:1; stroke:black; " description="&lt;b&gt;LOCUS_02250&lt;/b&gt;&lt;br&gt;hypothetical protein&lt;br&gt;Location: 185442 - 185658" locus_tag="LOCUS_02250" class="clusterblast-orf" id="subclusterblast-1_q5_0_all"  />
<polygon points="95,35 100,30 144,30 144,40 100,40 95,35 " style="fill:white; stroke-width:1; stroke:black; " description="&lt;b&gt;LOCUS_02260&lt;/b&gt;&lt;br&gt;kynureninase&lt;br&gt;Location: 185809 - 187084" locus_tag="LOCUS_02260" class="clusterblast-orf" id="subclusterblast-1_q6_0_all"  />
<polygon points="155,35 160,30 197,30 197,40 160,40 155,35 " style="fill:white; stroke-width:1; stroke:black; " description="&lt;b&gt;LOCUS_02270&lt;/b&gt;&lt;br&gt;transposase&lt;br&gt;Location: 187370 - 188486" locus_tag="LOCUS_02270" class="clusterblast-orf" id="subclusterblast-1_q7_0_all"  />
<polygon points="204,40 222,40 227,35 222,30 204,30 204,40 " style="fill:white; stroke-width:1; stroke:black; " description="&lt;b&gt;LOCUS_02280&lt;/b&gt;&lt;br&gt;TetR family transcriptional regulator&lt;br&gt;Location: 188676 - 189291" locus_tag="LOCUS_02280" class="clusterblast-orf" id="subclusterblast-1_q8_0_all"  />
<polygon points="228,35 233,30 250,30 250,40 233,40 228,35 " style="fill:white; stroke-width:1; stroke:black; " description="&lt;b&gt;LOCUS_02290&lt;/b&gt;&lt;br&gt;hypothetical protein&lt;br&gt;Location: 189317 - 189887" locus_tag="LOCUS_02290" class="clusterblast-orf" id="subclusterblast-1_q9_0_all"  />
<polygon points="249,35 254,30 256,30 256,40 254,40 249,35 " style="fill:white; stroke-width:1; stroke:black; " description="&lt;b&gt;LOCUS_02300&lt;/b&gt;&lt;br&gt;hypothetical protein&lt;br&gt;Location: 189867 - 190059" locus_tag="LOCUS_02300" class="clusterblast-orf" id="subclusterblast-1_q10_0_all"  />
<polygon points="257,35 262,30 282,30 282,40 262,40 257,35 " style="fill:white; stroke-width:1; stroke:black; " description="&lt;b&gt;LOCUS_02310&lt;/b&gt;&lt;br&gt;amino acid ABC transporter substrate-binding protein&lt;br&gt;Location: 190083 - 190746" locus_tag="LOCUS_02310" class="clusterblast-orf" id="subclusterblast-1_q11_0_all"  />
<polygon points="287,35 292,30 319,30 319,40 292,40 287,35 " style="fill:white; stroke-width:1; stroke:black; " description="&lt;b&gt;LOCUS_02320&lt;/b&gt;&lt;br&gt;ABC transporter substrate-binding protein&lt;br&gt;Location: 190880 - 191717" locus_tag="LOCUS_02320" class="clusterblast-orf" id="subclusterblast-1_q12_0_all"  />
<polygon points="336,35 341,30 369,30 369,40 341,40 336,35 " style="fill:white; stroke-width:1; stroke:black; " description="&lt;b&gt;LOCUS_02330&lt;/b&gt;&lt;br&gt;membrane protein&lt;br&gt;Location: 192155 - 193031" locus_tag="LOCUS_02330" class="clusterblast-orf" id="subclusterblast-1_q13_0_all"  />
<polygon points="376,35 381,30 381,30 381,40 381,40 376,35 " style="fill:white; stroke-width:1; stroke:black; " description="&lt;b&gt;LOCUS_02340&lt;/b&gt;&lt;br&gt;hypothetical protein&lt;br&gt;Location: 193211 - 193343" locus_tag="LOCUS_02340" class="clusterblast-orf" id="subclusterblast-1_q14_0_all"  />
<polygon points="380,35 385,30 404,30 404,40 385,40 380,35 " style="fill:white; stroke-width:1; stroke:black; " description="&lt;b&gt;LOCUS_02350&lt;/b&gt;&lt;br&gt;accessory gene regulator B&lt;br&gt;Location: 193323 - 193959" locus_tag="LOCUS_02350" class="clusterblast-orf" id="subclusterblast-1_q15_0_all"  />
<polygon points="413,40 421,40 426,35 421,30 413,30 413,40 " style="fill:white; stroke-width:1; stroke:black; " description="&lt;b&gt;LOCUS_02360&lt;/b&gt;&lt;br&gt;PadR family transcriptional regulator&lt;br&gt;Location: 194192 - 194543" locus_tag="LOCUS_02360" class="clusterblast-orf" id="subclusterblast-1_q16_0_all"  />
<polygon points="426,40 440,40 445,35 440,30 426,30 426,40 " style="fill:white; stroke-width:1; stroke:black; " description="&lt;b&gt;LOCUS_02370&lt;/b&gt;&lt;br&gt;hypothetical protein&lt;br&gt;Location: 194539 - 195052" locus_tag="LOCUS_02370" class="clusterblast-orf" id="subclusterblast-1_q17_0_all"  />
<polygon points="452,35 457,30 471,30 471,40 457,40 452,35 " style="fill:white; stroke-width:1; stroke:black; " description="&lt;b&gt;LOCUS_02380&lt;/b&gt;&lt;br&gt;membrane protein&lt;br&gt;Location: 195224 - 195740" locus_tag="LOCUS_02380" class="clusterblast-orf" id="subclusterblast-1_q18_0_all"  />
<polygon points="475,35 480,30 483,30 483,40 480,40 475,35 " style="fill:white; stroke-width:1; stroke:black; " description="&lt;b&gt;LOCUS_02390&lt;/b&gt;&lt;br&gt;hypothetical protein&lt;br&gt;Location: 195848 - 196049" locus_tag="LOCUS_02390" class="clusterblast-orf" id="subclusterblast-1_q19_0_all"  />
<polygon points="484,35 489,30 492,30 492,40 489,40 484,35 " style="fill:white; stroke-width:1; stroke:black; " description="&lt;b&gt;LOCUS_02400&lt;/b&gt;&lt;br&gt;hypothetical protein&lt;br&gt;Location: 196081 - 196282" locus_tag="LOCUS_02400" class="clusterblast-orf" id="subclusterblast-1_q20_0_all"  />
<polygon points="493,35 498,30 501,30 501,40 498,40 493,35 " style="fill:white; stroke-width:1; stroke:black; " description="&lt;b&gt;LOCUS_02410&lt;/b&gt;&lt;br&gt;hypothetical protein&lt;br&gt;Location: 196320 - 196521" locus_tag="LOCUS_02410" class="clusterblast-orf" id="subclusterblast-1_q21_0_all"  />
<polygon points="502,35 507,30 528,30 528,40 507,40 502,35 " style="fill:white; stroke-width:1; stroke:black; " description="&lt;b&gt;LOCUS_02420&lt;/b&gt;&lt;br&gt;hypothetical protein&lt;br&gt;Location: 196552 - 197248" locus_tag="LOCUS_02420" class="clusterblast-orf" id="subclusterblast-1_q22_0_all"  />
<polygon points="535,35 540,30 542,30 542,40 540,40 535,35 " style="fill:white; stroke-width:1; stroke:black; " description="&lt;b&gt;LOCUS_02430&lt;/b&gt;&lt;br&gt;hypothetical protein&lt;br&gt;Location: 197430 - 197601" locus_tag="LOCUS_02430" class="clusterblast-orf" id="subclusterblast-1_q23_0_all"  />
<polygon points="541,35 546,30 569,30 569,40 546,40 541,35 " style="fill:white; stroke-width:1; stroke:black; " description="&lt;b&gt;LOCUS_02440&lt;/b&gt;&lt;br&gt;ABC transporter&lt;br&gt;Location: 197593 - 198319" locus_tag="LOCUS_02440" class="clusterblast-orf" id="subclusterblast-1_q24_0_all"  />
<polygon points="569,35 574,30 601,30 601,40 574,40 569,35 " style="fill:white; stroke-width:1; stroke:black; " description="&lt;b&gt;LOCUS_02450&lt;/b&gt;&lt;br&gt;hypothetical protein&lt;br&gt;Location: 198333 - 199170" locus_tag="LOCUS_02450" class="clusterblast-orf" id="subclusterblast-1_q25_0_all"  />
<polygon points="600,35 605,30 623,30 623,40 605,40 600,35 " style="fill:white; stroke-width:1; stroke:black; " description="&lt;b&gt;LOCUS_02460&lt;/b&gt;&lt;br&gt;hypothetical protein&lt;br&gt;Location: 199156 - 199747" locus_tag="LOCUS_02460" class="clusterblast-orf" id="subclusterblast-1_q26_0_all"  />
<polygon points="640,40 642,40 647,35 642,30 640,30 640,40 " style="fill:white; stroke-width:1; stroke:black; " description="&lt;b&gt;LOCUS_02470&lt;/b&gt;&lt;br&gt;hypothetical protein&lt;br&gt;Location: 200203 - 200380" locus_tag="LOCUS_02470" class="clusterblast-orf" id="subclusterblast-1_q27_0_all"  />
<polygon points="647,35 652,30 661,30 661,40 652,40 647,35 " style="fill:white; stroke-width:1; stroke:black; " description="&lt;b&gt;LOCUS_02480&lt;/b&gt;&lt;br&gt;hypothetical protein&lt;br&gt;Location: 200380 - 200746" locus_tag="LOCUS_02480" class="clusterblast-orf" id="subclusterblast-1_q28_0_all"  />
<polygon points="667,40 694,40 699,35 694,30 667,30 667,40 " style="fill:white; stroke-width:1; stroke:black; " description="&lt;b&gt;LOCUS_02490&lt;/b&gt;&lt;br&gt;signal transduction histidine kinase&lt;br&gt;Location: 200904 - 201747" locus_tag="LOCUS_02490" class="clusterblast-orf" id="subclusterblast-1_q29_0_all"  />
<polygon points="699,40 702,40 707,35 702,30 699,30 699,40 " style="fill:white; stroke-width:1; stroke:black; " description="&lt;b&gt;LOCUS_02500&lt;/b&gt;&lt;br&gt;hypothetical protein&lt;br&gt;Location: 201760 - 201976" locus_tag="LOCUS_02500" class="clusterblast-orf" id="subclusterblast-1_q30_0_all"  />
<polygon points="708,40 714,40 719,35 714,30 708,30 708,40 " style="fill:white; stroke-width:1; stroke:black; " description="&lt;b&gt;LOCUS_02510&lt;/b&gt;&lt;br&gt;hypothetical protein&lt;br&gt;Location: 201998 - 202280" locus_tag="LOCUS_02510" class="clusterblast-orf" id="subclusterblast-1_q31_0_all"  />
<polygon points="721,40 723,40 728,35 723,30 721,30 721,40 " style="fill:white; stroke-width:1; stroke:black; " description="&lt;b&gt;LOCUS_02520&lt;/b&gt;&lt;br&gt;hypothetical protein&lt;br&gt;Location: 202335 - 202524" locus_tag="LOCUS_02520" class="clusterblast-orf" id="subclusterblast-1_q32_0_all"  />
<polygon points="732,35 737,30 752,30 752,40 737,40 732,35 " style="fill:white; stroke-width:1; stroke:black; " description="&lt;b&gt;LOCUS_02530&lt;/b&gt;&lt;br&gt;signal peptidase I&lt;br&gt;Location: 202637 - 203150" locus_tag="LOCUS_02530" class="clusterblast-orf" id="subclusterblast-1_q33_0_all"  />
<polygon points="764,35 769,30 780,30 780,40 769,40 764,35 " style="fill:white; stroke-width:1; stroke:black; " description="&lt;b&gt;LOCUS_02540&lt;/b&gt;&lt;br&gt;hypothetical protein&lt;br&gt;Location: 203471 - 203897" locus_tag="LOCUS_02540" class="clusterblast-orf" id="subclusterblast-1_q34_0_all"  />
</g>
</svg>
